<mxfile host="65bd71144e">
    <diagram id="FB0lLMp8adpU2UOfi77A" name="Page-1">
        <mxGraphModel dx="2052" dy="1057" grid="1" gridSize="10" guides="1" tooltips="1" connect="1" arrows="1" fold="1" page="1" pageScale="1" pageWidth="827" pageHeight="1169" math="0" shadow="0">
            <root>
                <mxCell id="-sU8y2Q3AdZbQh8XbGMl-0"/>
                <mxCell id="-sU8y2Q3AdZbQh8XbGMl-1" parent="-sU8y2Q3AdZbQh8XbGMl-0"/>
                <mxCell id="-sU8y2Q3AdZbQh8XbGMl-2" value="" style="rounded=0;whiteSpace=wrap;html=1;dashed=1;labelBackgroundColor=none;sketch=0;fontSize=45;align=center;fontFamily=Verdana;verticalAlign=top;fillColor=#FFFFFF;fontColor=#182633;strokeColor=#182633;dashPattern=1 1;" parent="-sU8y2Q3AdZbQh8XbGMl-1" vertex="1">
                    <mxGeometry x="-880" y="200" width="2520" height="2170" as="geometry"/>
                </mxCell>
                <mxCell id="-sU8y2Q3AdZbQh8XbGMl-5" value="" style="rounded=0;whiteSpace=wrap;html=1;labelPosition=center;verticalLabelPosition=middle;align=center;verticalAlign=top;horizontal=1;direction=south;fontSize=15;sketch=0;fillColor=none;fontFamily=Verdana;strokeWidth=2;fontColor=#182633;strokeColor=#216FF8;" parent="-sU8y2Q3AdZbQh8XbGMl-1" vertex="1">
                    <mxGeometry x="-700" y="970" width="2300" height="1110" as="geometry"/>
                </mxCell>
                <mxCell id="LqsbPOSO8fhI4KLYFztt-86" style="edgeStyle=orthogonalEdgeStyle;rounded=0;orthogonalLoop=1;jettySize=auto;html=1;dashed=1;dashPattern=1 1;startArrow=none;startFill=0;endArrow=classic;endFill=1;strokeColor=#F99007;strokeWidth=2;fontSize=13;" parent="-sU8y2Q3AdZbQh8XbGMl-1" edge="1">
                    <mxGeometry relative="1" as="geometry">
                        <mxPoint x="-502.1399999999999" y="1395" as="targetPoint"/>
                    </mxGeometry>
                </mxCell>
                <mxCell id="A7LO37rXqU6r63j_RT8w-58" style="edgeStyle=orthogonalEdgeStyle;rounded=0;jumpStyle=gap;orthogonalLoop=1;jettySize=auto;html=1;exitX=1;exitY=0.5;exitDx=0;exitDy=0;entryX=0;entryY=0.5;entryDx=0;entryDy=0;fontSize=16;startArrow=classic;startFill=1;strokeColor=#55D397;strokeWidth=2;dashed=1;fontColor=#182633;" parent="-sU8y2Q3AdZbQh8XbGMl-1" source="7xWn3VJRYGwJ2Aq6T1ND-1" target="A7LO37rXqU6r63j_RT8w-55" edge="1">
                    <mxGeometry relative="1" as="geometry"/>
                </mxCell>
                <mxCell id="7xWn3VJRYGwJ2Aq6T1ND-1" value="" style="fillColor=none;dashed=1;verticalAlign=top;fontStyle=0;rounded=0;sketch=0;fontFamily=Verdana;strokeWidth=2;dashPattern=1 1;fontColor=#182633;strokeColor=#216FF8;" parent="-sU8y2Q3AdZbQh8XbGMl-1" vertex="1">
                    <mxGeometry x="-510" y="1180" width="1740" height="680" as="geometry"/>
                </mxCell>
                <mxCell id="7xWn3VJRYGwJ2Aq6T1ND-0" value="Main VNET" style="aspect=fixed;html=1;points=[];align=center;image;fontSize=14;image=img/lib/azure2/networking/Virtual_Networks.svg;fontFamily=Verdana;labelBackgroundColor=none;fontColor=#182633;" parent="-sU8y2Q3AdZbQh8XbGMl-1" vertex="1">
                    <mxGeometry x="-479.9999999999999" y="1160" width="67" height="40" as="geometry"/>
                </mxCell>
                <mxCell id="A7LO37rXqU6r63j_RT8w-44" style="edgeStyle=orthogonalEdgeStyle;rounded=0;jumpStyle=arc;orthogonalLoop=1;jettySize=auto;html=1;fontSize=16;startArrow=classic;startFill=1;strokeColor=#FFCC3E;strokeWidth=2;entryX=1;entryY=0.75;entryDx=0;entryDy=0;fontColor=#182633;" parent="-sU8y2Q3AdZbQh8XbGMl-1" source="7xWn3VJRYGwJ2Aq6T1ND-4" target="7xWn3VJRYGwJ2Aq6T1ND-48" edge="1">
                    <mxGeometry relative="1" as="geometry">
                        <Array as="points">
                            <mxPoint x="215" y="1345"/>
                        </Array>
                    </mxGeometry>
                </mxCell>
                <mxCell id="A7LO37rXqU6r63j_RT8w-46" style="edgeStyle=orthogonalEdgeStyle;rounded=0;jumpStyle=arc;orthogonalLoop=1;jettySize=auto;html=1;entryX=0.5;entryY=0;entryDx=0;entryDy=0;fontSize=16;startArrow=classic;startFill=1;strokeColor=#FFCC3E;strokeWidth=2;fontColor=#182633;" parent="-sU8y2Q3AdZbQh8XbGMl-1" source="7xWn3VJRYGwJ2Aq6T1ND-4" target="A7LO37rXqU6r63j_RT8w-15" edge="1">
                    <mxGeometry relative="1" as="geometry"/>
                </mxCell>
                <mxCell id="7xWn3VJRYGwJ2Aq6T1ND-4" value="Databricks Engineering Hosts Subnet" style="whiteSpace=wrap;html=1;labelPosition=center;verticalLabelPosition=middle;align=center;verticalAlign=top;sketch=0;fillStyle=zigzag;fontSize=16;fontFamily=Verdana;fillColor=none;strokeWidth=2;fontColor=#182633;strokeColor=#216FF8;" parent="-sU8y2Q3AdZbQh8XbGMl-1" vertex="1">
                    <mxGeometry x="-380" y="1280" width="440" height="130" as="geometry"/>
                </mxCell>
                <mxCell id="7xWn3VJRYGwJ2Aq6T1ND-41" style="edgeStyle=orthogonalEdgeStyle;rounded=0;orthogonalLoop=1;jettySize=auto;html=1;fontSize=13;startArrow=classic;startFill=1;strokeWidth=2;fontFamily=Verdana;fillColor=#f8cecc;endArrow=classic;endFill=1;strokeColor=#FC5F57;fontColor=#182633;" parent="-sU8y2Q3AdZbQh8XbGMl-1" source="7xWn3VJRYGwJ2Aq6T1ND-5" target="7xWn3VJRYGwJ2Aq6T1ND-40" edge="1">
                    <mxGeometry relative="1" as="geometry">
                        <Array as="points">
                            <mxPoint x="-216" y="620"/>
                        </Array>
                    </mxGeometry>
                </mxCell>
                <mxCell id="7xWn3VJRYGwJ2Aq6T1ND-6" value="NSG" style="aspect=fixed;html=1;points=[];align=center;image;fontSize=14;image=img/lib/azure2/networking/Network_Security_Groups.svg;rounded=0;labelBackgroundColor=none;sketch=0;fontFamily=Verdana;fontColor=#182633;" parent="-sU8y2Q3AdZbQh8XbGMl-1" vertex="1">
                    <mxGeometry x="-360" y="1260" width="35.41" height="43" as="geometry"/>
                </mxCell>
                <mxCell id="A7LO37rXqU6r63j_RT8w-62" style="edgeStyle=orthogonalEdgeStyle;rounded=0;jumpStyle=gap;orthogonalLoop=1;jettySize=auto;html=1;exitX=0.5;exitY=1;exitDx=0;exitDy=0;entryX=0.5;entryY=0;entryDx=0;entryDy=0;fontSize=16;startArrow=classic;startFill=1;strokeColor=#55D397;strokeWidth=2;fontColor=#182633;" parent="-sU8y2Q3AdZbQh8XbGMl-1" source="7xWn3VJRYGwJ2Aq6T1ND-25" target="g8gtufJMEGG4L0LgHNhl-12" edge="1">
                    <mxGeometry relative="1" as="geometry"/>
                </mxCell>
                <mxCell id="7xWn3VJRYGwJ2Aq6T1ND-25" value="Private Link Endpoints" style="whiteSpace=wrap;html=1;labelPosition=center;verticalLabelPosition=middle;align=center;verticalAlign=top;sketch=0;fillStyle=zigzag;fontSize=16;fontFamily=Verdana;fillColor=none;strokeWidth=2;fontColor=#182633;strokeColor=#216FF8;" parent="-sU8y2Q3AdZbQh8XbGMl-1" vertex="1">
                    <mxGeometry x="-380" y="1666" width="1480" height="150" as="geometry"/>
                </mxCell>
                <mxCell id="7xWn3VJRYGwJ2Aq6T1ND-40" value="e.g. pypi.org" style="html=1;strokeColor=none;fillColor=#0079D6;labelPosition=center;verticalLabelPosition=middle;verticalAlign=top;align=center;fontSize=14;outlineConnect=0;spacingTop=-6;shape=mxgraph.sitemap.cloud;rounded=0;dashed=1;sketch=0;fontFamily=Verdana;fontColor=#FFFFFF;" parent="-sU8y2Q3AdZbQh8XbGMl-1" vertex="1">
                    <mxGeometry x="-291.88" y="586.86" width="150" height="95" as="geometry"/>
                </mxCell>
                <mxCell id="7xWn3VJRYGwJ2Aq6T1ND-5" value="NAT Gateway" style="aspect=fixed;html=1;points=[];align=center;image;fontSize=14;image=img/lib/azure2/networking/NAT.svg;rounded=0;labelBackgroundColor=none;sketch=0;labelPosition=center;verticalLabelPosition=bottom;verticalAlign=top;fontFamily=Verdana;fontColor=#182633;" parent="-sU8y2Q3AdZbQh8XbGMl-1" vertex="1">
                    <mxGeometry x="-250" y="1146" width="68" height="68" as="geometry"/>
                </mxCell>
                <mxCell id="7xWn3VJRYGwJ2Aq6T1ND-42" value="External Sources" style="text;html=1;resizable=0;autosize=1;align=center;verticalAlign=middle;points=[];fillColor=none;strokeColor=none;rounded=0;dashed=1;sketch=0;fontSize=16;fontFamily=Verdana;fontColor=#182633;" parent="-sU8y2Q3AdZbQh8XbGMl-1" vertex="1">
                    <mxGeometry x="-291.88" y="560" width="150" height="20" as="geometry"/>
                </mxCell>
                <mxCell id="7xWn3VJRYGwJ2Aq6T1ND-48" value="" style="rounded=0;whiteSpace=wrap;html=1;labelPosition=center;verticalLabelPosition=middle;align=center;verticalAlign=top;horizontal=1;direction=south;fontSize=15;sketch=0;fillColor=none;fontFamily=Verdana;strokeColor=#216FF8;strokeWidth=2;fontColor=#182633;" parent="-sU8y2Q3AdZbQh8XbGMl-1" vertex="1">
                    <mxGeometry x="70" y="444.72" width="580" height="379.28" as="geometry"/>
                </mxCell>
                <mxCell id="7xWn3VJRYGwJ2Aq6T1ND-49" value="Customer Managed&lt;br style=&quot;font-size: 14px;&quot;&gt;Subscription" style="verticalLabelPosition=bottom;html=1;verticalAlign=top;align=center;strokeColor=none;shape=mxgraph.azure.azure_subscription;rounded=0;dashed=1;labelBackgroundColor=none;sketch=0;fontSize=14;fontFamily=Verdana;fillColor=#FC5F57;fontColor=#182633;" parent="-sU8y2Q3AdZbQh8XbGMl-1" vertex="1">
                    <mxGeometry x="-639.9999999999999" y="930" width="74.62" height="60" as="geometry"/>
                </mxCell>
                <mxCell id="-sU8y2Q3AdZbQh8XbGMl-49" value="Microsoft Managed&lt;br style=&quot;font-size: 14px;&quot;&gt;Subscription" style="verticalLabelPosition=bottom;html=1;verticalAlign=top;align=center;strokeColor=none;shape=mxgraph.azure.azure_subscription;rounded=0;dashed=1;labelBackgroundColor=none;sketch=0;fontSize=14;fontFamily=Verdana;fillColor=#216FF8;fontColor=#182633;" parent="-sU8y2Q3AdZbQh8XbGMl-1" vertex="1">
                    <mxGeometry x="110" y="404.72" width="74.62" height="60" as="geometry"/>
                </mxCell>
                <mxCell id="7xWn3VJRYGwJ2Aq6T1ND-50" value="" style="whiteSpace=wrap;html=1;labelPosition=center;verticalLabelPosition=middle;align=center;verticalAlign=top;sketch=0;fillStyle=zigzag;fontSize=18;fontFamily=Verdana;rounded=0;fillColor=none;dashed=1;strokeColor=#4EC4F5;strokeWidth=2;dashPattern=1 1;fontColor=#182633;" parent="-sU8y2Q3AdZbQh8XbGMl-1" vertex="1">
                    <mxGeometry x="200" y="514" width="410" height="275" as="geometry"/>
                </mxCell>
                <mxCell id="A7LO37rXqU6r63j_RT8w-68" style="edgeStyle=orthogonalEdgeStyle;rounded=0;jumpStyle=gap;orthogonalLoop=1;jettySize=auto;html=1;entryX=1;entryY=0.58;entryDx=0;entryDy=0;entryPerimeter=0;fontSize=16;startArrow=none;startFill=0;strokeColor=#216FF8;strokeWidth=2;endArrow=none;endFill=0;dashed=1;fontColor=#182633;" parent="-sU8y2Q3AdZbQh8XbGMl-1" source="7xWn3VJRYGwJ2Aq6T1ND-51" target="7xWn3VJRYGwJ2Aq6T1ND-52" edge="1">
                    <mxGeometry relative="1" as="geometry">
                        <Array as="points">
                            <mxPoint x="929" y="634"/>
                        </Array>
                    </mxGeometry>
                </mxCell>
                <mxCell id="7xWn3VJRYGwJ2Aq6T1ND-51" value="Users" style="outlineConnect=0;dashed=0;verticalLabelPosition=bottom;verticalAlign=top;align=center;html=1;shape=mxgraph.aws3.users;fillColor=#D2D3D3;gradientColor=none;rounded=0;sketch=0;fontFamily=Verdana;fontSize=14;strokeColor=#66B2FF;fontColor=#182633;" parent="-sU8y2Q3AdZbQh8XbGMl-1" vertex="1">
                    <mxGeometry x="1175" y="605" width="66" height="70" as="geometry"/>
                </mxCell>
                <mxCell id="A7LO37rXqU6r63j_RT8w-67" style="edgeStyle=orthogonalEdgeStyle;rounded=0;jumpStyle=gap;orthogonalLoop=1;jettySize=auto;html=1;entryX=0.5;entryY=0;entryDx=0;entryDy=0;fontSize=16;startArrow=none;startFill=0;strokeColor=#216FF8;strokeWidth=2;endArrow=classic;endFill=1;dashed=1;fontColor=#182633;" parent="-sU8y2Q3AdZbQh8XbGMl-1" source="7xWn3VJRYGwJ2Aq6T1ND-52" target="7xWn3VJRYGwJ2Aq6T1ND-48" edge="1">
                    <mxGeometry relative="1" as="geometry"/>
                </mxCell>
                <mxCell id="7xWn3VJRYGwJ2Aq6T1ND-52" value="Azure Active&lt;br style=&quot;font-size: 14px;&quot;&gt;Directory" style="verticalLabelPosition=bottom;html=1;verticalAlign=top;align=center;strokeColor=none;fillColor=#00BEF2;shape=mxgraph.azure.azure_active_directory;rounded=0;dashed=1;sketch=0;fontFamily=Verdana;fontSize=14;fontColor=#182633;" parent="-sU8y2Q3AdZbQh8XbGMl-1" vertex="1">
                    <mxGeometry x="858.74" y="598.72" width="70" height="71.28" as="geometry"/>
                </mxCell>
                <mxCell id="7xWn3VJRYGwJ2Aq6T1ND-53" value="Web App" style="whiteSpace=wrap;html=1;labelPosition=center;verticalLabelPosition=middle;align=center;verticalAlign=middle;sketch=0;fillStyle=zigzag;fontSize=14;strokeColor=#66B2FF;fontFamily=Verdana;fillColor=none;strokeWidth=2;fontColor=#182633;" parent="-sU8y2Q3AdZbQh8XbGMl-1" vertex="1">
                    <mxGeometry x="214.5" y="589.72" width="178" height="60" as="geometry"/>
                </mxCell>
                <mxCell id="7xWn3VJRYGwJ2Aq6T1ND-54" value="Cluster Manager" style="whiteSpace=wrap;html=1;labelPosition=center;verticalLabelPosition=middle;align=center;verticalAlign=middle;sketch=0;fillStyle=zigzag;fontSize=14;strokeColor=#66B2FF;fontFamily=Verdana;fillColor=none;strokeWidth=2;fontColor=#182633;" parent="-sU8y2Q3AdZbQh8XbGMl-1" vertex="1">
                    <mxGeometry x="214.5" y="679" width="178" height="60" as="geometry"/>
                </mxCell>
                <mxCell id="7xWn3VJRYGwJ2Aq6T1ND-55" value="Notebooks" style="whiteSpace=wrap;html=1;labelPosition=center;verticalLabelPosition=middle;align=center;verticalAlign=middle;sketch=0;fillStyle=zigzag;fontSize=15;strokeColor=#66B2FF;fontFamily=Verdana;labelBackgroundColor=none;fillColor=none;strokeWidth=2;fontColor=#182633;" parent="-sU8y2Q3AdZbQh8XbGMl-1" vertex="1">
                    <mxGeometry x="411" y="589.72" width="178" height="60" as="geometry"/>
                </mxCell>
                <mxCell id="7xWn3VJRYGwJ2Aq6T1ND-56" value="Job Service" style="whiteSpace=wrap;html=1;labelPosition=center;verticalLabelPosition=middle;align=center;verticalAlign=middle;sketch=0;fillStyle=zigzag;fontSize=14;strokeColor=#66B2FF;fontFamily=Verdana;fillColor=none;strokeWidth=2;fontColor=#182633;" parent="-sU8y2Q3AdZbQh8XbGMl-1" vertex="1">
                    <mxGeometry x="411" y="679.0000000000001" width="178" height="60" as="geometry"/>
                </mxCell>
                <mxCell id="7xWn3VJRYGwJ2Aq6T1ND-57" value="Databricks Control Plane&lt;br style=&quot;font-size: 14px;&quot;&gt;VNET" style="aspect=fixed;html=1;points=[];align=center;image;fontSize=14;image=img/lib/azure2/networking/Virtual_Networks.svg;fontFamily=Verdana;labelBackgroundColor=none;fontColor=#182633;" parent="-sU8y2Q3AdZbQh8XbGMl-1" vertex="1">
                    <mxGeometry x="280" y="494" width="67" height="40" as="geometry"/>
                </mxCell>
                <mxCell id="g8gtufJMEGG4L0LgHNhl-12" value="Azure Services" style="whiteSpace=wrap;html=1;labelPosition=center;verticalLabelPosition=middle;align=center;verticalAlign=top;sketch=0;fillStyle=zigzag;fontSize=16;fontFamily=Verdana;fillColor=none;fontColor=#182633;strokeColor=#216FF8;" parent="-sU8y2Q3AdZbQh8XbGMl-1" vertex="1">
                    <mxGeometry x="-510" y="1890" width="1740" height="150" as="geometry"/>
                </mxCell>
                <mxCell id="g8gtufJMEGG4L0LgHNhl-13" value="Azure Blob" style="verticalLabelPosition=bottom;html=1;verticalAlign=top;align=center;strokeColor=none;fillColor=#00BEF2;shape=mxgraph.azure.storage_blob;dashed=1;labelBackgroundColor=none;fontSize=14;fontColor=#182633;" parent="-sU8y2Q3AdZbQh8XbGMl-1" vertex="1">
                    <mxGeometry x="172.95" y="1934" width="50" height="45" as="geometry"/>
                </mxCell>
                <mxCell id="g8gtufJMEGG4L0LgHNhl-14" value="Azure Data Lake" style="aspect=fixed;html=1;points=[];align=center;image;fontSize=14;image=img/lib/mscae/Data_Lake.svg;rounded=0;dashed=1;labelBackgroundColor=none;sketch=0;fillColor=none;fontFamily=Verdana;fontColor=#182633;" parent="-sU8y2Q3AdZbQh8XbGMl-1" vertex="1">
                    <mxGeometry x="291.95" y="1937" width="30.4" height="40" as="geometry"/>
                </mxCell>
                <mxCell id="g8gtufJMEGG4L0LgHNhl-15" value="Azure SQL" style="aspect=fixed;html=1;points=[];align=center;image;fontSize=14;image=img/lib/azure2/databases/SQL_Database.svg;dashed=1;labelBackgroundColor=none;fontColor=#182633;" parent="-sU8y2Q3AdZbQh8XbGMl-1" vertex="1">
                    <mxGeometry x="400.95" y="1937" width="30" height="40" as="geometry"/>
                </mxCell>
                <mxCell id="g8gtufJMEGG4L0LgHNhl-17" value="Azure Key Vault" style="aspect=fixed;html=1;points=[];align=center;image;fontSize=14;image=img/lib/mscae/Key_Vaults.svg;sketch=0;labelBackgroundColor=none;fontFamily=Verdana;fontColor=#182633;" parent="-sU8y2Q3AdZbQh8XbGMl-1" vertex="1">
                    <mxGeometry x="503.84999999999997" y="1934" width="43.2" height="45" as="geometry"/>
                </mxCell>
                <mxCell id="g8gtufJMEGG4L0LgHNhl-19" value="" style="aspect=fixed;html=1;points=[];align=center;image;fontSize=14;image=img/lib/azure2/networking/Private_Link.svg;dashed=1;labelBackgroundColor=none;strokeColor=#000000;fillColor=none;fontColor=#182633;" parent="-sU8y2Q3AdZbQh8XbGMl-1" vertex="1">
                    <mxGeometry x="-367.39" y="1640" width="50.18" height="46" as="geometry"/>
                </mxCell>
                <mxCell id="A7LO37rXqU6r63j_RT8w-50" style="edgeStyle=orthogonalEdgeStyle;rounded=0;jumpStyle=arc;orthogonalLoop=1;jettySize=auto;html=1;entryX=0.148;entryY=0.009;entryDx=0;entryDy=0;entryPerimeter=0;fontSize=16;startArrow=classic;startFill=1;strokeWidth=2;strokeColor=#55D397;fontColor=#182633;" parent="-sU8y2Q3AdZbQh8XbGMl-1" source="A7LO37rXqU6r63j_RT8w-15" target="7xWn3VJRYGwJ2Aq6T1ND-25" edge="1">
                    <mxGeometry relative="1" as="geometry">
                        <Array as="points">
                            <mxPoint x="-160" y="1633"/>
                        </Array>
                    </mxGeometry>
                </mxCell>
                <mxCell id="A7LO37rXqU6r63j_RT8w-15" value="Databricks Engineering Containers Subnet" style="whiteSpace=wrap;html=1;labelPosition=center;verticalLabelPosition=middle;align=center;verticalAlign=top;sketch=0;fillStyle=zigzag;fontSize=16;fontFamily=Verdana;fillColor=none;strokeWidth=2;fontColor=#182633;strokeColor=#216FF8;" parent="-sU8y2Q3AdZbQh8XbGMl-1" vertex="1">
                    <mxGeometry x="-380" y="1470" width="440" height="130" as="geometry"/>
                </mxCell>
                <mxCell id="A7LO37rXqU6r63j_RT8w-17" value="Container Runtime" style="aspect=fixed;html=1;points=[];align=center;image;fontSize=14;image=img/lib/mscae/Databricks.svg;shadow=1;labelBackgroundColor=none;sketch=0;fillColor=none;fontFamily=Verdana;fontColor=#182633;" parent="-sU8y2Q3AdZbQh8XbGMl-1" vertex="1">
                    <mxGeometry x="-250.42000000000007" y="1515" width="41.67" height="40" as="geometry"/>
                </mxCell>
                <mxCell id="A7LO37rXqU6r63j_RT8w-19" value="Container Runtime" style="aspect=fixed;html=1;points=[];align=center;image;fontSize=14;image=img/lib/mscae/Databricks.svg;shadow=1;labelBackgroundColor=none;sketch=0;fillColor=none;fontFamily=Verdana;fontColor=#182633;" parent="-sU8y2Q3AdZbQh8XbGMl-1" vertex="1">
                    <mxGeometry x="-111.25999999999999" y="1515" width="41.67" height="40" as="geometry"/>
                </mxCell>
                <mxCell id="A7LO37rXqU6r63j_RT8w-45" style="edgeStyle=orthogonalEdgeStyle;rounded=0;jumpStyle=arc;orthogonalLoop=1;jettySize=auto;html=1;entryX=1;entryY=0.25;entryDx=0;entryDy=0;fontSize=16;startArrow=classic;startFill=1;strokeColor=#FFCC3E;strokeWidth=2;fontColor=#182633;" parent="-sU8y2Q3AdZbQh8XbGMl-1" source="A7LO37rXqU6r63j_RT8w-20" target="7xWn3VJRYGwJ2Aq6T1ND-48" edge="1">
                    <mxGeometry relative="1" as="geometry"/>
                </mxCell>
                <mxCell id="A7LO37rXqU6r63j_RT8w-47" style="edgeStyle=orthogonalEdgeStyle;rounded=0;jumpStyle=arc;orthogonalLoop=1;jettySize=auto;html=1;exitX=0.5;exitY=1;exitDx=0;exitDy=0;entryX=0.5;entryY=0;entryDx=0;entryDy=0;fontSize=16;startArrow=classic;startFill=1;strokeColor=#FFCC3E;strokeWidth=2;fontColor=#182633;" parent="-sU8y2Q3AdZbQh8XbGMl-1" source="A7LO37rXqU6r63j_RT8w-20" target="A7LO37rXqU6r63j_RT8w-23" edge="1">
                    <mxGeometry relative="1" as="geometry"/>
                </mxCell>
                <mxCell id="A7LO37rXqU6r63j_RT8w-20" value="Databricks Analytics Hosts Subnet" style="whiteSpace=wrap;html=1;labelPosition=center;verticalLabelPosition=middle;align=center;verticalAlign=top;sketch=0;fillStyle=zigzag;fontSize=16;fontFamily=Verdana;fillColor=none;strokeWidth=2;fontColor=#182633;strokeColor=#216FF8;" parent="-sU8y2Q3AdZbQh8XbGMl-1" vertex="1">
                    <mxGeometry x="660" y="1280" width="440" height="130" as="geometry"/>
                </mxCell>
                <mxCell id="A7LO37rXqU6r63j_RT8w-21" value="NSG" style="aspect=fixed;html=1;points=[];align=center;image;fontSize=14;image=img/lib/azure2/networking/Network_Security_Groups.svg;rounded=0;labelBackgroundColor=none;sketch=0;fontFamily=Verdana;fontColor=#182633;" parent="-sU8y2Q3AdZbQh8XbGMl-1" vertex="1">
                    <mxGeometry x="680" y="1260" width="35.41" height="43" as="geometry"/>
                </mxCell>
                <mxCell id="A7LO37rXqU6r63j_RT8w-22" value="Worker" style="aspect=fixed;html=1;points=[];align=center;image;fontSize=14;image=img/lib/mscae/Databricks.svg;shadow=1;labelBackgroundColor=none;sketch=0;fillColor=none;fontFamily=Verdana;fontColor=#182633;" parent="-sU8y2Q3AdZbQh8XbGMl-1" vertex="1">
                    <mxGeometry x="802.28" y="1325" width="41.67" height="40" as="geometry"/>
                </mxCell>
                <mxCell id="A7LO37rXqU6r63j_RT8w-49" style="edgeStyle=orthogonalEdgeStyle;rounded=0;jumpStyle=arc;orthogonalLoop=1;jettySize=auto;html=1;entryX=0.851;entryY=0.027;entryDx=0;entryDy=0;entryPerimeter=0;fontSize=16;startArrow=classic;startFill=1;strokeWidth=2;strokeColor=#55D397;fontColor=#182633;" parent="-sU8y2Q3AdZbQh8XbGMl-1" source="A7LO37rXqU6r63j_RT8w-23" target="7xWn3VJRYGwJ2Aq6T1ND-25" edge="1">
                    <mxGeometry relative="1" as="geometry"/>
                </mxCell>
                <mxCell id="A7LO37rXqU6r63j_RT8w-23" value="Databricks Analytics Containers Subnet" style="whiteSpace=wrap;html=1;labelPosition=center;verticalLabelPosition=middle;align=center;verticalAlign=top;sketch=0;fillStyle=zigzag;fontSize=16;fontFamily=Verdana;strokeWidth=2;fillColor=none;fontColor=#182633;strokeColor=#216FF8;" parent="-sU8y2Q3AdZbQh8XbGMl-1" vertex="1">
                    <mxGeometry x="660" y="1470" width="440" height="130" as="geometry"/>
                </mxCell>
                <mxCell id="A7LO37rXqU6r63j_RT8w-24" value="Container Runtime" style="aspect=fixed;html=1;points=[];align=center;image;fontSize=14;image=img/lib/mscae/Databricks.svg;shadow=1;labelBackgroundColor=none;sketch=0;fillColor=none;fontFamily=Verdana;fontColor=#182633;" parent="-sU8y2Q3AdZbQh8XbGMl-1" vertex="1">
                    <mxGeometry x="789.5799999999999" y="1515" width="41.67" height="40" as="geometry"/>
                </mxCell>
                <mxCell id="A7LO37rXqU6r63j_RT8w-25" value="Container Runtime" style="aspect=fixed;html=1;points=[];align=center;image;fontSize=14;image=img/lib/mscae/Databricks.svg;shadow=1;labelBackgroundColor=none;sketch=0;fillColor=none;fontFamily=Verdana;fontColor=#182633;" parent="-sU8y2Q3AdZbQh8XbGMl-1" vertex="1">
                    <mxGeometry x="928.74" y="1515" width="41.67" height="40" as="geometry"/>
                </mxCell>
                <mxCell id="A7LO37rXqU6r63j_RT8w-26" value="Worker" style="aspect=fixed;html=1;points=[];align=center;image;fontSize=14;image=img/lib/mscae/Databricks.svg;shadow=1;labelBackgroundColor=none;sketch=0;fillColor=none;fontFamily=Verdana;fontColor=#182633;" parent="-sU8y2Q3AdZbQh8XbGMl-1" vertex="1">
                    <mxGeometry x="916.06" y="1325" width="41.67" height="40" as="geometry"/>
                </mxCell>
                <mxCell id="A7LO37rXqU6r63j_RT8w-27" value="Worker" style="aspect=fixed;html=1;points=[];align=center;image;fontSize=14;image=img/lib/mscae/Databricks.svg;shadow=1;labelBackgroundColor=none;sketch=0;fillColor=none;fontFamily=Verdana;fontColor=#182633;" parent="-sU8y2Q3AdZbQh8XbGMl-1" vertex="1">
                    <mxGeometry x="-237.72000000000003" y="1325" width="41.67" height="40" as="geometry"/>
                </mxCell>
                <mxCell id="A7LO37rXqU6r63j_RT8w-28" value="Worker" style="aspect=fixed;html=1;points=[];align=center;image;fontSize=14;image=img/lib/mscae/Databricks.svg;shadow=1;labelBackgroundColor=none;sketch=0;fillColor=none;fontFamily=Verdana;fontColor=#182633;" parent="-sU8y2Q3AdZbQh8XbGMl-1" vertex="1">
                    <mxGeometry x="-123.94000000000001" y="1325" width="41.67" height="40" as="geometry"/>
                </mxCell>
                <mxCell id="A7LO37rXqU6r63j_RT8w-29" value="NSG" style="aspect=fixed;html=1;points=[];align=center;image;fontSize=14;image=img/lib/azure2/networking/Network_Security_Groups.svg;rounded=0;labelBackgroundColor=none;sketch=0;fontFamily=Verdana;fontColor=#182633;" parent="-sU8y2Q3AdZbQh8XbGMl-1" vertex="1">
                    <mxGeometry x="-365.5" y="1450" width="35.41" height="43" as="geometry"/>
                </mxCell>
                <mxCell id="A7LO37rXqU6r63j_RT8w-30" value="NSG" style="aspect=fixed;html=1;points=[];align=center;image;fontSize=14;image=img/lib/azure2/networking/Network_Security_Groups.svg;rounded=0;labelBackgroundColor=none;sketch=0;fontFamily=Verdana;fontColor=#182633;" parent="-sU8y2Q3AdZbQh8XbGMl-1" vertex="1">
                    <mxGeometry x="674.5" y="1450" width="35.41" height="43" as="geometry"/>
                </mxCell>
                <mxCell id="A7LO37rXqU6r63j_RT8w-37" value="Legend" style="whiteSpace=wrap;html=1;labelPosition=center;verticalLabelPosition=middle;align=center;verticalAlign=top;sketch=0;fillStyle=zigzag;fontSize=16;fontFamily=Verdana;fillColor=none;strokeWidth=2;dashed=1;dashPattern=1 1;strokeColor=#182633;fontColor=#182633;" parent="-sU8y2Q3AdZbQh8XbGMl-1" vertex="1">
                    <mxGeometry x="-827" y="2140" width="497" height="220" as="geometry"/>
                </mxCell>
                <mxCell id="A7LO37rXqU6r63j_RT8w-52" value="Azure Data Lake Gen 2&lt;br style=&quot;font-size: 14px;&quot;&gt;Private Endpoint" style="aspect=fixed;html=1;points=[];align=center;image;fontSize=14;image=img/lib/mscae/Data_Lake.svg;rounded=0;labelBackgroundColor=none;sketch=0;fillColor=none;fontFamily=Verdana;strokeWidth=2;perimeterSpacing=0;imageBorder=#4EC4F5;fontColor=#182633;" parent="-sU8y2Q3AdZbQh8XbGMl-1" vertex="1">
                    <mxGeometry x="182.74999999999997" y="1710.5" width="30.4" height="40" as="geometry"/>
                </mxCell>
                <mxCell id="A7LO37rXqU6r63j_RT8w-53" value="Azure Key Vault&lt;br style=&quot;font-size: 14px;&quot;&gt;Private Endpoint" style="aspect=fixed;html=1;points=[];align=center;image;fontSize=14;image=img/lib/mscae/Key_Vaults.svg;sketch=0;labelBackgroundColor=none;fontFamily=Verdana;imageBorder=#4EC4F5;strokeWidth=2;fontColor=#182633;" parent="-sU8y2Q3AdZbQh8XbGMl-1" vertex="1">
                    <mxGeometry x="503.8499999999999" y="1705.5" width="43.2" height="45" as="geometry"/>
                </mxCell>
                <mxCell id="A7LO37rXqU6r63j_RT8w-55" value="" style="fillColor=none;dashed=1;verticalAlign=top;fontStyle=0;rounded=0;sketch=0;fontFamily=Verdana;strokeWidth=2;dashPattern=1 1;fontColor=#182633;strokeColor=#216FF8;" parent="-sU8y2Q3AdZbQh8XbGMl-1" vertex="1">
                    <mxGeometry x="1330" y="1180" width="230" height="680" as="geometry"/>
                </mxCell>
                <mxCell id="A7LO37rXqU6r63j_RT8w-54" value="Private DNS" style="aspect=fixed;html=1;points=[];align=center;image;fontSize=14;image=img/lib/azure2/networking/DNS_Zones.svg;labelBackgroundColor=none;sketch=0;strokeColor=#4EC4F5;strokeWidth=2;fillColor=#355470;fontColor=#182633;" parent="-sU8y2Q3AdZbQh8XbGMl-1" vertex="1">
                    <mxGeometry x="1350" y="1150" width="64" height="64" as="geometry"/>
                </mxCell>
                <mxCell id="A7LO37rXqU6r63j_RT8w-66" value="Private Link &lt;br&gt;DNS Zones" style="whiteSpace=wrap;html=1;labelPosition=center;verticalLabelPosition=middle;align=center;verticalAlign=top;sketch=0;fillStyle=zigzag;fontSize=16;fontFamily=Verdana;strokeWidth=2;strokeColor=#4EC4F5;fillColor=none;fontColor=#182633;" parent="-sU8y2Q3AdZbQh8XbGMl-1" vertex="1">
                    <mxGeometry x="1350" y="1678" width="190" height="70" as="geometry"/>
                </mxCell>
                <mxCell id="A7LO37rXqU6r63j_RT8w-71" value="" style="edgeStyle=orthogonalEdgeStyle;rounded=0;orthogonalLoop=1;jettySize=auto;html=1;fontSize=14;startArrow=classic;startFill=1;strokeWidth=2;fontFamily=Verdana;fillColor=#f8cecc;endArrow=classic;endFill=1;strokeColor=#FC5F57;labelBackgroundColor=none;fontColor=#182633;" parent="-sU8y2Q3AdZbQh8XbGMl-1" edge="1">
                    <mxGeometry x="-1" y="90" relative="1" as="geometry">
                        <Array as="points">
                            <mxPoint x="-610" y="2220"/>
                            <mxPoint x="-610" y="2220"/>
                        </Array>
                        <mxPoint x="-600" y="2220" as="sourcePoint"/>
                        <mxPoint x="-800" y="2220" as="targetPoint"/>
                        <mxPoint x="90" y="-90" as="offset"/>
                    </mxGeometry>
                </mxCell>
                <mxCell id="A7LO37rXqU6r63j_RT8w-72" value="Outbound Internet Traffic" style="text;html=1;resizable=0;autosize=1;align=left;verticalAlign=middle;points=[];fillColor=none;strokeColor=none;rounded=0;dashed=1;dashPattern=1 1;labelBackgroundColor=none;sketch=0;fontSize=14;fontColor=#182633;" parent="-sU8y2Q3AdZbQh8XbGMl-1" vertex="1">
                    <mxGeometry x="-778.5" y="2194.66" width="170" height="20" as="geometry"/>
                </mxCell>
                <mxCell id="A7LO37rXqU6r63j_RT8w-73" style="edgeStyle=orthogonalEdgeStyle;rounded=0;jumpStyle=arc;orthogonalLoop=1;jettySize=auto;html=1;fontSize=16;startArrow=classic;startFill=1;strokeColor=#FFCC3E;strokeWidth=2;fontColor=#182633;" parent="-sU8y2Q3AdZbQh8XbGMl-1" edge="1">
                    <mxGeometry relative="1" as="geometry">
                        <mxPoint x="-800" y="2260" as="sourcePoint"/>
                        <mxPoint x="-600" y="2260" as="targetPoint"/>
                        <Array as="points">
                            <mxPoint x="-799" y="2260"/>
                            <mxPoint x="-799" y="2260"/>
                        </Array>
                    </mxGeometry>
                </mxCell>
                <mxCell id="A7LO37rXqU6r63j_RT8w-74" value="Databricks Control Traffic (TLS)" style="text;html=1;resizable=0;autosize=1;align=left;verticalAlign=middle;points=[];fillColor=none;strokeColor=none;rounded=0;dashed=1;dashPattern=1 1;labelBackgroundColor=none;sketch=0;fontSize=14;fontColor=#182633;" parent="-sU8y2Q3AdZbQh8XbGMl-1" vertex="1">
                    <mxGeometry x="-778.5" y="2234.66" width="210" height="20" as="geometry"/>
                </mxCell>
                <mxCell id="A7LO37rXqU6r63j_RT8w-76" style="edgeStyle=orthogonalEdgeStyle;rounded=0;jumpStyle=gap;orthogonalLoop=1;jettySize=auto;html=1;exitX=1;exitY=0.5;exitDx=0;exitDy=0;entryX=0;entryY=0.5;entryDx=0;entryDy=0;fontSize=16;startArrow=classic;startFill=1;strokeColor=#55D397;strokeWidth=2;fontColor=#182633;" parent="-sU8y2Q3AdZbQh8XbGMl-1" edge="1">
                    <mxGeometry relative="1" as="geometry">
                        <mxPoint x="-800" y="2300" as="sourcePoint"/>
                        <mxPoint x="-600" y="2300" as="targetPoint"/>
                    </mxGeometry>
                </mxCell>
                <mxCell id="A7LO37rXqU6r63j_RT8w-77" value="Private Link Traffic" style="text;html=1;resizable=0;autosize=1;align=left;verticalAlign=middle;points=[];fillColor=none;strokeColor=none;rounded=0;dashed=1;dashPattern=1 1;labelBackgroundColor=none;sketch=0;fontSize=14;fontColor=#182633;" parent="-sU8y2Q3AdZbQh8XbGMl-1" vertex="1">
                    <mxGeometry x="-778.5" y="2276" width="130" height="20" as="geometry"/>
                </mxCell>
                <mxCell id="A7LO37rXqU6r63j_RT8w-78" style="edgeStyle=orthogonalEdgeStyle;rounded=0;jumpStyle=gap;orthogonalLoop=1;jettySize=auto;html=1;exitX=1;exitY=0.5;exitDx=0;exitDy=0;entryX=0;entryY=0.5;entryDx=0;entryDy=0;fontSize=16;startArrow=classic;startFill=1;strokeColor=#55D397;strokeWidth=2;dashed=1;fontColor=#182633;" parent="-sU8y2Q3AdZbQh8XbGMl-1" edge="1">
                    <mxGeometry relative="1" as="geometry">
                        <mxPoint x="-800" y="2340" as="sourcePoint"/>
                        <mxPoint x="-600" y="2340" as="targetPoint"/>
                    </mxGeometry>
                </mxCell>
                <mxCell id="A7LO37rXqU6r63j_RT8w-79" value="Private DNS Queries" style="text;html=1;resizable=0;autosize=1;align=left;verticalAlign=middle;points=[];fillColor=none;strokeColor=none;rounded=0;dashed=1;dashPattern=1 1;labelBackgroundColor=none;sketch=0;fontSize=14;fontColor=#182633;" parent="-sU8y2Q3AdZbQh8XbGMl-1" vertex="1">
                    <mxGeometry x="-778.5" y="2318" width="150" height="20" as="geometry"/>
                </mxCell>
                <mxCell id="A7LO37rXqU6r63j_RT8w-80" style="edgeStyle=orthogonalEdgeStyle;rounded=0;jumpStyle=arc;orthogonalLoop=1;jettySize=auto;html=1;fontSize=16;startArrow=classic;startFill=1;strokeWidth=2;strokeColor=#216FF8;dashed=1;fontColor=#182633;" parent="-sU8y2Q3AdZbQh8XbGMl-1" edge="1">
                    <mxGeometry relative="1" as="geometry">
                        <mxPoint x="-560" y="2260" as="sourcePoint"/>
                        <mxPoint x="-360" y="2260" as="targetPoint"/>
                        <Array as="points">
                            <mxPoint x="-559" y="2260"/>
                            <mxPoint x="-559" y="2260"/>
                        </Array>
                    </mxGeometry>
                </mxCell>
                <mxCell id="A7LO37rXqU6r63j_RT8w-81" value="User Authentication (HTTPS)" style="text;html=1;resizable=0;autosize=1;align=left;verticalAlign=middle;points=[];fillColor=none;strokeColor=none;rounded=0;dashed=1;dashPattern=1 1;labelBackgroundColor=none;sketch=0;fontSize=14;fontColor=#182633;" parent="-sU8y2Q3AdZbQh8XbGMl-1" vertex="1">
                    <mxGeometry x="-546.5" y="2234.66" width="200" height="20" as="geometry"/>
                </mxCell>
                <mxCell id="A7LO37rXqU6r63j_RT8w-82" value="" style="aspect=fixed;html=1;points=[];align=center;image;fontSize=14;image=img/lib/azure2/networking/NAT.svg;rounded=0;labelBackgroundColor=none;sketch=0;labelPosition=center;verticalLabelPosition=bottom;verticalAlign=top;fontFamily=Verdana;fontColor=#182633;" parent="-sU8y2Q3AdZbQh8XbGMl-1" vertex="1">
                    <mxGeometry x="-362.3" y="1350" width="40" height="40" as="geometry"/>
                </mxCell>
                <mxCell id="A7LO37rXqU6r63j_RT8w-84" value="" style="aspect=fixed;html=1;points=[];align=center;image;fontSize=14;image=img/lib/azure2/networking/NAT.svg;rounded=0;labelBackgroundColor=none;sketch=0;labelPosition=center;verticalLabelPosition=bottom;verticalAlign=top;fontFamily=Verdana;fontColor=#182633;" parent="-sU8y2Q3AdZbQh8XbGMl-1" vertex="1">
                    <mxGeometry x="-367.79" y="1540" width="40" height="40" as="geometry"/>
                </mxCell>
                <mxCell id="A7LO37rXqU6r63j_RT8w-85" value="" style="aspect=fixed;html=1;points=[];align=center;image;fontSize=14;image=img/lib/azure2/networking/NAT.svg;rounded=0;labelBackgroundColor=none;sketch=0;labelPosition=center;verticalLabelPosition=bottom;verticalAlign=top;fontFamily=Verdana;fontColor=#182633;" parent="-sU8y2Q3AdZbQh8XbGMl-1" vertex="1">
                    <mxGeometry x="677.7" y="1350" width="40" height="40" as="geometry"/>
                </mxCell>
                <mxCell id="A7LO37rXqU6r63j_RT8w-86" value="" style="aspect=fixed;html=1;points=[];align=center;image;fontSize=14;image=img/lib/azure2/networking/NAT.svg;rounded=0;labelBackgroundColor=none;sketch=0;labelPosition=center;verticalLabelPosition=bottom;verticalAlign=top;fontFamily=Verdana;fontColor=#182633;" parent="-sU8y2Q3AdZbQh8XbGMl-1" vertex="1">
                    <mxGeometry x="672.21" y="1540" width="40" height="40" as="geometry"/>
                </mxCell>
                <mxCell id="A7LO37rXqU6r63j_RT8w-90" value="Private Link &lt;br&gt;DNS Zones" style="whiteSpace=wrap;html=1;labelPosition=center;verticalLabelPosition=middle;align=center;verticalAlign=top;sketch=0;fillStyle=zigzag;fontSize=16;fontFamily=Verdana;strokeWidth=2;strokeColor=#4EC4F5;fillColor=none;fontColor=#182633;" parent="-sU8y2Q3AdZbQh8XbGMl-1" vertex="1">
                    <mxGeometry x="1350" y="1521" width="190" height="70" as="geometry"/>
                </mxCell>
                <mxCell id="A7LO37rXqU6r63j_RT8w-92" value="Private Link &lt;br&gt;DNS Zones" style="whiteSpace=wrap;html=1;labelPosition=center;verticalLabelPosition=middle;align=center;verticalAlign=top;sketch=0;fillStyle=zigzag;fontSize=16;fontFamily=Verdana;strokeWidth=2;strokeColor=#4EC4F5;fillColor=none;fontColor=#182633;" parent="-sU8y2Q3AdZbQh8XbGMl-1" vertex="1">
                    <mxGeometry x="1350" y="1364" width="190" height="70" as="geometry"/>
                </mxCell>
                <mxCell id="A7LO37rXqU6r63j_RT8w-93" value="" style="aspect=fixed;html=1;points=[];align=center;image;fontSize=12;image=img/lib/mscae/DNS_Private_Zones.svg;dashed=1;dashPattern=1 1;labelBackgroundColor=none;sketch=0;strokeColor=#355470;strokeWidth=2;fillColor=#355470;fontColor=#182633;" parent="-sU8y2Q3AdZbQh8XbGMl-1" vertex="1">
                    <mxGeometry x="1355" y="1663" width="38" height="38" as="geometry"/>
                </mxCell>
                <mxCell id="A7LO37rXqU6r63j_RT8w-91" value="" style="aspect=fixed;html=1;points=[];align=center;image;fontSize=12;image=img/lib/mscae/DNS_Private_Zones.svg;dashed=1;dashPattern=1 1;labelBackgroundColor=none;sketch=0;strokeColor=#355470;strokeWidth=2;fillColor=#355470;fontColor=#182633;" parent="-sU8y2Q3AdZbQh8XbGMl-1" vertex="1">
                    <mxGeometry x="1355" y="1348" width="38" height="38" as="geometry"/>
                </mxCell>
                <mxCell id="A7LO37rXqU6r63j_RT8w-89" value="" style="aspect=fixed;html=1;points=[];align=center;image;fontSize=12;image=img/lib/mscae/DNS_Private_Zones.svg;dashed=1;dashPattern=1 1;labelBackgroundColor=none;sketch=0;strokeColor=#355470;strokeWidth=2;fillColor=#355470;fontColor=#182633;" parent="-sU8y2Q3AdZbQh8XbGMl-1" vertex="1">
                    <mxGeometry x="1355" y="1506" width="38" height="38" as="geometry"/>
                </mxCell>
                <mxCell id="Z8FXyI8Y6aoCltyuqe3g-0" value="" style="shape=image;verticalLabelPosition=bottom;verticalAlign=top;imageAspect=0;aspect=fixed;image=data:image/png,iVBORw0KGgoAAAANSUhEUgAAAggAAAIICAYAAAAL/BZjAAAgAElEQVR4XuydB5wcZ3n/f+/s7vWq3iVXWdWy3JAMJBgb2xQbhxCKwaZXG1MSQggJKUCSP9WQkAAGF7nbYLBxAXeMiyy5gHtvapZ00vXbNvP+P8/7vrM7u7d3W253b2fmGdBH1t3szLy/d3be7zxVSCkleGMFWAFWgBVgBVgBVsCjgGBA4PuBFWAFWAFWgBVgBfIVYEDge4IVYAVYAVaAFWAFxinAgMA3BSvACrACrAArwAowIPA9wAqwAqwAK8AKsALFFWALQnGNeA9WgBVgBVgBViB0CjAghG7KecCsACvACrACrEBxBRgQimvEe7ACrAArwAqwAqFTgAEhdFPOA2YFWAFWgBVgBYorwIBQXCPegxVgBVgBVoAVCJ0CDAihm3IeMCvACrACrAArUFwBBoTiGvEerAArwAqwAqxA6BRgQAjdlPOAWQFWgBVgBViB4gowIBTXiPdgBVgBVoAVYAVCpwADQuimnAfMCrACrAArwAoUV4ABobhGvAcrwAqwAqwAKxA6BRgQQjflPGBWgBVgBVgBVqC4AgwIxTXiPVgBVoAVYAVYgdApwIAQuinnAbMCrAArwAqwAsUVYEAorhHvwQqwAqwAK8AKhE4BBoTQTTkPmBVgBVgBVoAVKK4AA0JxjXgPVoAVYAVYAVYgdAowIIRuynnArAArwAqwAqxAcQUYEIprxHuwAqwAK8AKsAKhU4ABIXRTzgNmBVgBVoAVYAWKK8CAUFwj3oMVYAVYAVaAFQidAgwIoZtyHjArwAqwAqwAK1BcAQaE4hrxHqwAK8AKsAKsQOgUYEAI3ZTzgFkBVoAVYAVYgeIKMCAU14j3YAVYAVaAFWAFQqcAA0LoppwHzAqwAqwAK8AKFFeAAaG4RrwHK8AKsAKsACsQOgUYEEI35TxgVoAVYAVYAVaguAIMCMU14j1YAVaAFWAFWIHQKcCAELop5wGzAqwAK8AKsALFFWBAKK4R78EKsAKsACvACoROAQaE0E05D5gVYAVYAVaAFSiuAANCcY14D1aAFWAFWAFWIHQKMCCEbsp5wKwAK8AKsAKsQHEFGBCKa8R7sAKsACvACrACoVOAASF0U84DZgVYAVaAFWAFiivAgFBcI96DFWAFWAFWgBUInQIMCKGbch4wK8AKsAKsACtQXAEGhOIa8R6sACvACrACrEDoFGBACN2U84BZAVaAFWAFWIHiCjAgFNeI92AFWAFWgBVgBUKnAANC6KacB8wKsAKsACvAChRXgAGhuEa8ByvACrACrAArEDoFGBBCN+U8YFaAFWAFWAFWoLgCDAjFNeI9WAFWoEwF0g4QTwNJG5ATfDZqAS0RIBYBLFHmCXh3VoAVqLkCDAg1l5hPwAoEVwHbAUZTQMLOHePz+yR+86SNe7Y7GErS7zQBWACkoP+WWDlL4G2HCBy9QKC7xSUEoWChvQlojgRXNx4ZK+AHBRgQ/DBLfI2sQIMoQNaA0SQwltYX9MqAxEUPO7jzZQla92mZF16bgZCQZu3XvzOwkOEBOqLXxiAws03g4+uieNMyfcCoANpiQBMDQ4PcBXwZYVGAASEsM83jZAUqVMCFArIUkNvgokccXPOEDSG1NcC7vFtCGggwJ6sAEJSBwWwEFwf2CHx4bQTHLLBgWUB7jK0LFU4lf4wVKEsBBoSy5OKdWYHwKDCWAkZSQDItcfHDDq583IEyE3i2/Pf/6gNC9nzkepjfIfDRwyM4bhFZFQRaY65VIjzzwiNlBeqlAANCvZTm87ACPlFgJKnjCn75uINNf7IVJNCmluppBASyVSh7hbJaSHxkbRSnHhpBZ5O2KlDQI2+sACtQPQUYEKqnJR+JFfC1AgQGBAOXPOzg4kdsSHIXeICgkQDBtSsQMrxuoYX3r7JU0CPFKsQYFHx9H/LFN44CDAiNMxd8JazAtChAYDBMYPCIo+ILKLZAmwx04KG7NSIg0LVRnAJd8vq5Fj6wOoL1czUocOrktNxOfNIAKcCAEKDJ5KGwAuUokEgDBAcXPmTjwocpvoD+7yUCfwGCoRq897AI3nmowMIugdZoOYrwvqwAK+BVgAGB7wdWIIQKEBj87lmJTQ+n8Xw/vX+7CYj+BgRLUY42gZy9PoKTD7TQ1SzQwqAQwruchzxVBRgQpqogf54V8JECFHw4nAAu+5PEBQ9nqxtR0J/yKvjcguACguslaYsKfOYICmZka4KPblO+1AZRgAGhQSaCL4MVqLUCw0kdgHjhQw5G07kJCUEFBFfTzx0ZxSkHWSrjgSs01vpO4+MHRQEGhKDMJI+DFZhAAUcCQwmJC7Y6uOAhXchIVTf0FiQKqAUhI4kQWNxp4aNrBI5fSvUTuPkDf2FYgWIKMCAUU4h/zwr4WAGKNXhpP3D5nx1c95TOUAgjIOhsDA0FnzsygncttziA0cf3NV96fRRgQKiPznwWVqDuCgwnJS5+0MHPH3SQdITulcCAoEQ494gITjvUUtUYOR2y7rcmn9AnCjAg+GSi+DJZgXIUoHiD87cQHLiBiAwIOT4VIfG+FRbeeUgECzsEN4Iq5+bifUOjAANCaKaaBxoWBShL4edbJM5/kCIR3VEzIHgBQRhTysE9Fj60OoLXL+Ish7B8P3icpSvAgFC6VrwnK9DwChAcZCwHOXF4DAiFAIEmtNkCPrs+inccRC6Hhp9ivkBWoG4KMCDUTWo+EStQWwWGEsAvttg4f6utcxgZEDKCe4MU6YeuBcE7I587IoLTTVxCbWeKj84K+EMBBgR/zBNfJSswqQIEBz83MQcqS0Gtgt6PsAVhIgsCqeQWVjp3fQSnH6KDF3ljBcKuAANC2O8AHr/vFVBwsNVRrgVtODBljxgQSrYgZPpTCeDz66N45yGcBun7LwYPYMoKMCBMWUI+ACswfQq4loPzKVtBGisBA0LGIuDOTDEXgxcQWi3g3CMtvPXACJqjbEmYvrubzzzdCjAgTPcM8PlZgQoV0DEHUsUceBe4RrIg0HU5toQkeIHUfZQsARGB/qN+4F699ot4W0xLzz/U52lfkdMxItPumT6d34uhEkCgox/YLXD2ERG8bgHXSajw9uSPBUABBoQATCIPIXwKZGIOtjpq8I0ACCr2geo625mrQXIMGNkrkBrNREbAigm09Tpo6QYslTUgISISlgKGxgAESIl3HxbBGSsimNcevvuLR8wKKFyXUnrxnVVhBViBBldgLAVcsNXG/97vZDouTScgkFwO1WNyJMb6BEb6BK2vJW4CUki0zrDRPguIxAQiBhYUOkyTBYEGQP0qzqV4hIM5/bHEyeTdAqYAA0LAJpSHE3wFfv+MxH/f6+DF/uwqPF2A4KQBaQMjfcDoPu0iqHQjGBCWRNdcibaZZFGQQCR7vHq6GFzC0ZAQwTsPjnCNhEonlj/nWwUYEHw7dXzhYVSgfwy4YIuDXzykXQvuVm9AkI4Gg+E9UweD/HmkRbm5Q6JjFtDcTe4Hvcd0AALFO5C2XzjSwmkHU2ZD5QAUxvuVx+xvBRgQ/D1/fPUhUmAoruHgZxSU6KQg44NAOg40dUC0dAHCqlKao8ENSpn0rIe6IaIAWQ2SowQGAsnhbGxB9adCoHO+RPtcR8cn1CtIMZ2CPbIfMp2A1doNq6UDbU0W/vF1URy/VIVB8sYKhEIBBoRQTDMP0u8KUNzBhVsd/Pdd/XDi+2HvexHxx65BauejaDnkRLSsPh1W+xy1oIlIbNJCSeZ1XHU1pLdzK5pVR0NANshQ76v/rXIHBDCyW2Bol4Cdqr2qwgJ6lxEk6AyGTKtq1ZVSX1dunIJuWaksHPTHZR1Pu2fNOaatpRkC7WaP7AMSI0jveRGD92xCfPtj6DzqXWg7/GREO2bhMxtm4a9XtaGrqfbj5jOwAo2gAANCI8wCXwMrUESB25+TOO/2fjx228UYfeSSgkGATYuORNvh70XTvLWQLZ0FKylGojq9UMGBJdHSrf39EVr0pJsgWTjCkDIMaEsMCux91sLwLpH5TDohYCemPo1kKYg0E7Toa2huB2avsJUVQcDSQKDAIP8a3fd6+rlAckQgMQhIAzEKLxz6o68xHxDs4T7s//15GH3yDsBxxunbNGsJut9wJr7yvuNx+qpOjkeY+lTzEXygAAOCDyaJLzHcCgzGgV/cM4Dzfnohxh6+ZFIxIi1daDvyLLSse2/GP0AWAlp46U/7bInWmW4L6OrpuvcZC/ueiwCOQCoB2MnSj03AElNQALTOdDDrUAetMwpBQOnHzN9TpgTGBgRScYIayrjIWhec0X7su/E7GHnijqInmHXq3+P/feodOOWgJpWSyRsrEGQFGBCCPLs8Nt8roFMaHXznJ5swet+P1Bt7sa115TvQvuGTiHbNUItu+yyJttnuglty/mGx0xT8Pb3l733aQt/zAmRVSJNVYYJTRluASJNEaw8wa7mNtlm5gZcVXUDRD1EMhUBiQIdvOLbA/lv/F0NbfwUnPlr00x1rTsCnP/kxnPmGgzC7tejuvAMr4GsFGBB8PX188UFX4K4XJM77QxyP3HoJRh/4adHhWs3NiHb2oHvj32DWCe9BU0d138SLXoC7gxDY/6KF/c9ZiA8aUDCsEIkB0WaJuasd9B5AUFBbaJnsmuP7Ley94Sfov/9XsEdHig6P+GzO6f+Mr571Npx6sIV2bg9dVDPewb8KMCD4d+74ygOuwEBc4sKtEj/+9YMY3fpTpHY8UnjEKnZQINLRja61GzDrze9C67Ll07rwZjhBWRQi6HuOzPtUC1li5oESMw+SiHVMLxxkxRTY9aufYuChPyDVv7coKMz+q6+jY+1J+LeNEZy4TMdF8MYKBFEBBoQgziqPKRAKbHpQ4j/vTCP+2FUYue+HKniu0Bbt7EbTjLmY+cZTMeNNpzbk2KUtsOepCGJtEr0HVD8GohqDppiCnb/6Kfruuh728CDkBHrPftc/o2PNSfjcEVG2IlRDeD5GwyrAgNCwU8MXFmYF+k3Ng/MfcJB86U6MPvB/sPe/nCMJxciR1WDuWz+IWSe9pyEsBv6fM4G+O3+D/vt+h/j2F5Au4HZwAYH0/6fXRXHSMov6T/HGCgROAQaEwE0pD8jvCqQdYNODDr7zB3rTptS8JOJ/ujQnBiHS1o6m3jmY+ZfvxMw3/xXDQZUnXVkTfvkT7L392lyXg5BQLoY1J6kskfcst/C+5RbmtjMhVHkK+HANoAADQgNMAl8CK+BV4Pk+4GebHVz/pHYp0Jtq4slfY+T+/4GTGFJBiDPf+A7MOvHdiHb1sng1VGDnL8nl8BvYI0MqljLaPQuz3vZltB56nG47LST+/qgITjkggiZTErqGl8OHZgXqqgADQl3l5pOxApMrkLSBi7c6+MHddqZCIAGCPbQdYw9vQnrbHzDnlPdh9knvZSnrpMDu6y9C313XwXEszHzrF9F26Ov1mWliBPD6BQKfWBPBIb1sRajTlPBp6qQAA0KdhObTsAKlKPDnnRL/e6+Nu1+kdsN6wdF/SQUHHTMHMfMvTi7lULxPlRSg2g77/ngD7OgCROevhSVMbWoDCFJKfPWYKE45wEKMkxqqpDofphEUYEBohFnga2AFqBeAA1yy1cG377LVm6kXEKyYVI2LOuc5ptQwS1ZvBVKjlioz7VD5ZlXRWVsQaGMrQr1ng89XDwUYEOqhMp+DFShBgRf7JH662cZ1T7hNifTqE4lJdC2Q6JhPPQKmr6hQCUMI/C7JYQvJQQGZNgBnAIH6Q/zL6yJ4y1LKaGBXQ+BvhJAMkAEhJBPNw2x8BS55yMG3brfVS6nuWihU0yJlOVjQKEWFGl/HWl9hcsBCckjAobKKHhZ436EW3nuYhTltDAi1ngM+fn0UYECoj858FlZgUgX6x4ALtjj42QNZQKDmhR3zHHQtdkwcAovYKAok+i0kR6zcro/SwTc2xvDmpRyI0CjzxNcxNQUYEKamH3+aFaiKApc+JPGtO2zlQnAtCNE2oGuhozoc8tZoClDDpwiSI8i0kKa5O2ddFKcdbKGDezQ02oTx9VSgAANCBaLxR1iBaiownAAuetDBj+8jQNBWa2po1LnQURYE3hpXgbF9EaRGtUtBxYcIKCvCCUvYzdC4s8ZXVqoCDAilKsX7sQI1UuCWZyS+d5eNlwd0AKKwgK75UrkWprPTYY2GG6jDJgYtJIep2qUwgCDxtWOacPIygSh7GgI112EcDANCGGedx9xQClz2kMQ3b7cz6YstXUD3IgdNXWw9aKiJKnAxVJJ5rF+AshukQxYEiZOWRPHhVREs6270q+frYwUmV4ABge8QVmAaFdg/BlxoghPpMsi1oFMaG7Pj4TRK1bCnllJgbJ+F1CiZfyQsWMrNcPyShr1kvjBWoCQFGBBKkol3YgVqo0C+9aBznkTPUkctNLz5R4HEgIUEuRpMkOnZFKx4UISDFf0zhXylhSxkkiuv8I3BCkyLAmQ9uOABifO3kLVA6sDE+UDnAv1v3vylwGifhfSYuWYh8M2NURy/mAMR/DWLfLVeBdiCwPcDKzBNClz2kINv3O7GGeiCSD1L2bUwTdMx5dPq2giUzaAPdc7hUZxKVoSmKR+aD8AKTIsCDAjTIjufNOwK7B+VqjDS+Q+QO0FXTKTMhc6FDAi+vTdULIJAyrUiAPjmcTG2Ivh2QvnCGRD4HmAFpkGByx528I3byHqgiiqjtddBzxIH0VZ2LUzDdFTtlGP7qS6CKoqgjnn24TGcepCFTrYiVE1jPlD9FGBAqJ/WfCZWQCmwb5QyFyj2wOtecNC7jJsx+f0WSY25HR9NTQsBfHNjDG/iWAS/T20or58BIZTTzoOeTgUuf1jiG7c6oF4/tCn3wgLbNGQq58qy1fqkDdipbNnfSBSw1FsrWyQmU9SxBUg7d7MiulCVbsJUmXaZlEfVEVrgsxSLcCBbEcq5s3nfxlCAAaEx5oGvIiQKjLceAB1zHBWcKCLFFiRT0pdgIEkwoLs2UCJSalhARdGnJKJNQNtMifY5nC452W1Fi3d8QKjAQgVXUqClHYi1SxAoECDQjChoKDo32TOp8ssUh0Apj0IoEPzWxijetIgzGkLyNQ/MMBkQAjOVPBA/KHD5QxL/fputAhPVJil7wUHPssmDE52UgJ3Un0kOAcN7LNgJjwVBAFYM6JjtKDCwyljQ/KBbra8x3k/BhQJOWgAEXm5TDEg0dwKxNgnqrqlhwb2awkBHXR5pjpy0tiDQdvZaymiwOKOh1hPJx6+qAgwIVZWTD8YKTKxA36jEhQ9I/JxiD8zCIUCAYKObiiPlb1KoN1snBVWpb2inthioj3p6AVkxiUiL1FaDWbRoFbNE8CxNpECcUhWHPG4HF+SMPaGpU6KpXU8fuYaEVUhrk80wmgUEOt83NkRVLILnkDwRrEBDK8CA0NDTwxcXFAWoTP9lDzr41u3GemBWiWizRNdCW7sDMi+mGgzScYGRPQKje4X2i5tNEB0YQKDiSh3ztdWAwaAad4sANWBKjWgLgHbj6E1SdUsCA8MEzT0S0RYJK0pxC15QKAwIH15p4V2HRDCjhTs9VmOm+Bi1V4ABofYa8xlYAWzrB37+gIMrHyHrgYpeU6p0zst1L5C1IDlCUGBhtE/voy0G2QWIAIF+JpokOuZJFcPAcFDlm0wKxAcFkoPUhMklMw0Imamg+AIALd3OOFBwAxVdF4OeSImvHR3DiUstxDgcocoTxoerhQIMCLVQlY/JCngUGEsBm7ZKfP+PDoTr284Ago2eZY6yGFBMAUHB8E5lI4B03RB5gEBvrE2tQNtsidaZDAe1utlo8aceCy4kqJBFikNwWU1RWsa+gOYuoKndUTEKylUxkuMJUjuesNjCR1SnR7Yi1Gre+LjVU4ABoXpa8pFYgYIKbH1V4od3O9iyXeq3z4wFQSoLQudCicEdGgzUi6ZbPqkAIBActM3SGQrknuCt1goIUAAjxSWQm8jrYtBmnNzzN3U4iLVBpU4mKFAxlbsDfeTz6yJ42wEW2mIMCbWePT7+1BRgQJiafvxpVmBSBfrHgIu2OPi/zdpO7QUE+u/WGY6qVzD8mq6oOBkgEBy0z5XonEtvqQwH9bz1EgMCiWHtbvC6GLyAoPreCUpttNDS5SCd0FYh70YuhwXtwFeOiuLIuQwI9ZxDPlf5CjAglK8Zf4IVKFmB6x6lwEQHA0n99pmpv0Ovkm5Xn7yiPIUsCCJKsQa6oROnMJYsf1V3jKuWzgDcjNQ8C0IGEBTlaeDTzqLspmIShMSnV+u0xy4uwVzVOeKDVVcBBoTq6slHYwUyCvSNABc94OCnW2yVD69y6CnNPp0NUtQ756YmFgIEsjR0LZCItbLA06UAxSAkKHCR0iBVG41cF0MOIJiLzAlSNJUVlZVBSnxrYwxv5OJJ0zWdfN4SFGBAKEEk3oUVqESBKx+W+Nff2yY9zsQX5MQguEedHBAolY4sB60z2a1QyTxU+zPJQaHSIKnyYkEXQ77FoIAFgaDw02uoBHOErQjVniA+XtUUYECompR8IFYgqwBZDy7c4uDnmwkQshaD3CDF4oAQiUl0zHXQPjvf6sBqT5sCUqoUSKpT4d3KsSC48Sb/sYGtCNM2j3ziogowIBSViHdgBcpTgKLdr3jIwb/fapt0xcoAQTQJdMyWaJ/NloPyZqD2e1MvjOQolWbOnqsSQPj4qgjeeVAEPc0csFj7WeMzlKsAA0K5ivH+rEARBbYPSPxis4PLH9aZC5VZEARaZ1MhJIdS73lrQAWod0M6Qc2y9MVVAggUxvgPR0XxliUWmjM9HhpwsHxJoVSAASGU086DrpUCQwmJS7Y6+NEfs6WTKwGESEygdZaD1t4CPRpqdfF83DIV0G4Gt4lWJYBAJ9wwP4JPrYngYC6eVKb+vHutFWBAqLXCfPxQKXDX8xLfvSON5/qywy4XECjboXUGtWxmOGj0m8dOG0BwKrMgKMsDBM5eE8E7Doygk9MeG33KQ3V9DAihmm4ebC0V2GvSGqnngrc3QrmAQN0CqStjhBeLWk5XdY4tgHQSkGlyNZhCSZ4jT5Tm6L0/qFZCzBKq2+NxCzgWoToTw0ephgIMCNVQkY/BCgC46mGJr/+Oah7o90J3KwcQlPWgB2jpcfMhWdpGV4DAgIIVHSqgRDUOKgAE6rvx6dURnHogF09q9PkO0/UxIIRptnmsNVNg77AuinT+A86UAKGpA2jr5WqJNZuoWhxYCjgO1J9KAcGlCkp7fP3C/PqLtbhoPiYrUFwBBoTiGvEerMCkCtDCoIoi3aLTGiu1INDnmjuN9UCZHXjzjwJSN3NSEQXZrVQXg/uhj62M4p0HWehp9s/I+UqDqwADQnDnlkdWJwVe2Q+cf7+Dq/7kTAkQok1AUye4S2Od5q3qpzFtuacCCIQXf78+otIeW6JVv0I+ICtQlgIMCGXJxTuzArkK7B8DNm1x8ON7TbfGKVgQKDixuYvq9E9sPaAeAMqUbUIcqHGTUIUS2OJQ9XszX9Ji9aqoTKZFFqTsjhNbELS1Qc9cbsnmtTMtnHN4BCtm8JxWfU75gGUpwIBQlly8MyuQq8BNT0p861Ybe0b0zyt1MQhLItYGNLXlHp+AQNoUHa+bP1LOPeXeC1pcLIFYqwT1amBAqPadKWEReGl/kRLfLYjkznTuv/VPrSgBWxFAUDdKtv9GPiDQvz+x2lJ9Gro5k6XaE8vHK0MBBoQyxOJdWQGvAhSYeMEDDnRa49QAIdqsAYEWF9UEyLQUphQ6O6FbBOecwxKItFAqZLHXWp6zShUgQCDrjLA0JEiaAwHQ+q8tOYRpUnd2NNNAqanedtzlxiAYGlFg8p8UsMhpj5VOH3+uCgowIFRBRD5EOBW45hHgazd7ivFPwYKgAKFFuw/sFOBQbr1xNaiX2ByzNRBpNnUSmA9qevNR2qkVNZBgACEzFards4SdEsrKQ6BA+1qxrJuhYkCAwCdX6bTHbu7TUNM55oNPrAADAt8drEAFCuweBi58wMEvPNYDZTmuKAYBoK6NZD0gi4FZh0C58eqYHkCg/6YFKBKr4KL5IxUpYMWk1lu5HLQFITMxWQ+EggSqh0Dz41oRpgIIZJb452NieNMiCzFuyFHR3PGHpqYAA8LU9ONPh1CBoQRw6VYHP7h7fCnkygAh64/OQIYyaY8HBPVGG/OWYQrhBEzDkKPNOrtEuRwKAAJd0lQqKebGmGZjSiib4cMrI1jcwQGL0zDtoT8lA0LobwEWoFwF7nlR4tu323hqz/hP1hQQ6O01ov3ivNVbAaGCQemPCUnQph3Pul0LQKAYh0+vieLUAyLo4oDFek966M/HgBD6W4AFKEeBPZ6KiYU+V1NAUCl05Vxtg+3rXrtP4yYou6Cpw0G0xXBBHQCBZjBiAf+5MYYN8/w8+Q12L/LllKQAA0JJMvFOrIBW4JpHJP7ppnTG/J+vSy0AQaXJu75un64RMQqqbAbScWpu5NNBAGhqkWhqp1LYJjikxhYEdX8JmIBFTnvk51B9FWBAqK/efDYfK/DakFSBiRdsmfgVuCaAQJr59K2bLj3aKtGzyEHrTAfDuy0Mbrd06qYfNyHR1CHR3A6ISO1dDC4gUELL14+igEXq/OhH4fia/agAA4IfZ42vue4KDIzpwMQf/tGe1M5fC0BQefbj4yHrrkElJ1RwsMRB2ywnwzjDr1kY2mapgk9+3dpmSsTac+tT1SIGwQsIJy2O4MOHWVjc6V/d/DrfYb1uBoSwzjyPuywF7nxW4j9vdfBSvy6WM9FWbUCQtmkjXNbVNsbOVOWxd6lE22yCA2+hJ4HhXRYGtuuqkAqAfLY1dwMtXVLVPXC3WgMCZU98YpWF0w6IcG0En90vfr1cBgS/zhxfd90UoJoHF212cP5m08q5XoAAofLqHVNVsW4DnvKJdAnongNstM/OTeHMHlpgtE9gZI+FxACBwpRPWvcDtM+RqvtmvQDBPc+3NyJwH2AAACAASURBVEaxcR77Geo+4SE8IQNCCCedh1y6ArajAxP/+Wa9SuuiRRN/vpoWBDstYCdLv9ZG2JNqNDS1At3kVphTnGyoMdXgDoH+Vyykx/xlOm+doVtzu1aEWlsQ3Pn95EqqsBhBD6c9NsItH+hrYEAI9PTy4KaqwCv7JX5+n8QVj5hujXUEhHRKIJ2Y6gjq93myGrTPcdA5HyqQr5zIysHtEQxuE0iNCl9ZTLoWSDR3aY3rBQh0ri8eHsXJSy20c0vo+t3gITwTA0IIJ52HXJoCu4dMOeX77byqhvWyIFBaoFD9GQp1DixtFLXfi+oCNJlgxPZ5lQYUCMT7BYZ3WhjeI5Aaq/11T+UMNOZoE6CCFU0HznoCwgGdwFfWx7B6pr+sLlPRnD9bfwUYEOqvOZ/RJwpc+2eJr/w210xeTxcDlVqmGASyIjjUwKm4xb6uylK3Q4rk714k0TmfCgip3oZTvAaBgVcpiFEgOWw1HChQyWXqzdA+G2juqG8Wg1dYwoJProzh1AMEupunKDl/nBWYQAEGBL41WIECClDNg4s2y5xWzrRbvQFBXZqg4kJAepS6BgJ2bgPJus8f+dypWFBzp0T3IkdlKVR/E+h/OaKyHRLDQGq0+mco54gEBtRau22WREunNPdBfesgeK9XNYwSwD8eFcXxCy00UeEm3liBKivAgFBlQflw/lfALaf8s/uccQGJ0wEImW6OEpgbAxY2CewdBl6iLIA6BjE2dZDFwFEmdQIDKnxU603Awv6XLAzuEkiPAKmReqVF0ju6xAG9CcxoTWFvWxPi7RHd+rmOzZpcQDSdvzNyu4Dw+vkWPrk6gmVcG6HWt2Ioj8+AEMpp50FPpsD1jzn4xxtsJNK5b4jTZUHwtns+83CJczY4eOgVC795GNg5ILCrX+CFvQLJqrsghLISkLWANspMIHcCLZxTdyWUfw8O7bQwuM2CkyL3g0ByFFWuoaD9+Qf0JjGrPQ0hHLzjsL1YOWcYl+xcgM2DXRO2e6bP1TMGwQUEuqCPU1bDARZ62NVQ/k3Fn5hUAQYEvkFYAY8Crmvh/M02qDlPfkrjtFoQAJy5Djh7g6MWI/3HwT3PWLj2oQiGqJaABHYPCbzYZ2EslTu1hcLZsgu9UGbz2R0pzOtIotlykHIEkvNikIssZV5vjC6SQgHCvucFZg0LzG4WaszbBoBX9gHxpJq1SbdslITuzLi4x8bcDhsRteoCp6zcj/ULhiFgw3YkHNvB1bvm4b7BbqQgYHarSzfHYhYEtyX4l9dFcOJiC62c1cDPsyoqwIBQRTH5UP5WIBN3sFlX/mt0QFCpDY6ELSUcKkco9Rv1Ay9a+O2fotgzqN5r3f/rN3+1Buq/FWBQDWf1ecCyJNYsGsbGJf3ojCbx4lArbtgxB0+nO9DaQ+l8UoHC9GzatUBwMLZPIDkCfOko4LRDqAy1xC3PCvz+zwL9AxoYMmN0gybVWNVrvhm3toNEhMSblo/hmKWjaImmYTsOHJvAwIHj/rEl7u/vxq37ZmJ3uqmhXAwuIKzuBb64LopDe4rh0fTMHp/VnwowIPhz3viqq6xAMi1VQaSv/44sB3prPEAQyoJwzgYbjl7hcwBBLfj0xisdvZjSAifdhY5+p/+b3oppAaQ/0rFh5y+IapF0cP32OfjtjjkZPVp6gdZeB9FmqSL567NpiwB1gEyPAolBqg1BP5P4q0MF3rtCYk6ba03x/G10cBxtZaG/aeze/9YAoH/uAsF4QNAWhH0JC9fsmY9HRzsb0oJAuPMJ19XQxJBQn3sz+GdhQAj+HPMIS1Dgmd0SP77bxo1P5fYMaCgXgzQuho3axVAUEBQoZBdBx7HVgqgBwfOWXAAQhpMCN2ybg9t2z/SoJ5SbgSChudtR7ZsjNQMFvcg5Scra0DUSUsPGIiI0NNBMfelo4NSDCwACWUXyoGA8HJQCCARLWq/Ldi3EluGehrQg6EmS+MQKikeIcDxCCd953qW4AgwIxTXiPQKuwO5BiQs3S/yM4g48L18NZ0EgQDgiG4NQO0CQ+HNfB367fTZeGm3JzL6SxhXIkhoUOqUGBVX2d6pWBS2+TAN2UqjhERgkKXNBWXTI7UPNsjyAcJQBBOU2yf1THUDQFgQXEB4Y7mlQC4I7TRLf3RjDsXPZihDwx1ZdhseAUBeZ+SSNqsBIQuLKhxz8x22UskeBeo1rQeiICQUIHzrSrtiCoILuiloQJK5/ZTau2z4rD5g8gKBWcglKv2vplWjp1ou3iOoKgyJSDBY8C5gkIADslP6ZPSqQGBKw03T87H75gED7nn4I8J7DJOa21wEQXluILUONbEFQNhd89LAY3nmghV7OamjUx45vrosBwTdTxRdaCwUeelXiu3c4eOAVvaA1MiCsnyfwsaMljlpUuotB+d2NqZ1cDMq9QOZ3r1shz8VA7oXrX52NW3fNmBwQjM1Avd0LAgSoaorUwIjiFFQKiAe4cufPAwgOEB8QSIzopBGvFacYINAxv3iUxDsKuBmqY0HwuBh8AghCCHx8RRSnHWChmxs61eKxEZpjMiCEZqp5oPkK7BoELtzs4Bcqa0FvjQwIpx8m8JnXSXS3lggIJkjRCwilxCA80teO616ZhZdHW0sGBFdby4CC0pIAwtLZAt4eV0prlUHqAoTX2qDTLd2tNEBwDCCYzAzjahgHCJmgTR2YWFqQogEE28Fluxf4woKg72PgextjOHoOt4XmJ1/lCjAgVK4df9LHClAb519nei2Yt90GB4SzqAbCxqwpvZQYhHwLQimAQHDw61dma6tATkxG3uu9x4JQCBA0cWk3hAsM+j899SWUhWFqgHD6IVK5GfKzGapjQTAxCD4EhI8fFuWARR8/oxrh0hkQGmEW+BrqrgAV1Tn/XokrHqZOjQEFBPXGbGdTHo2LYbIYhHgKuP6VWbhx+0y1uPsBEAhAvnikxDsO8haQGp/FMJU0R9t2cPlrC0BBio1UatlrYdFfomxbcipT/beHR3DCYgttXECp7s+YIJyQASEIs8hjKEuBvmFg0wMOfnyPfpj6CRDO2Uh1DrQVoagFoYCLoVgMwrP9Lbju5Vl4bKDdV4DwpSMl3l4EEFTKp6cmQrkuhl/tmYf7h3qRdlyTyPQ3a5ocEASW9wj87bqo+ps3VqBcBRgQylWM9/e9Arc8JfG16230x7Vx2y+AoIokleliKLcOwvUvz8S1L8/UUQM+siC851CJdy93MINaTk8UgzAODsqog2A7uG+gG7f3z0ZfykT+kXnFGy9B0OaJwVDOFK8Jxv13nltlfDpt1qLlemQmatZUDBDo8x9dEcFpVBuBAxZ9/+yq9wAYEOqtOJ9vWhV4bRC4iAIT79eBiX4BBIIYikEoFxDKjUG4TgHCLD1HPgKE7mbgnHUOjl+SdTNUOwbhlbFmXL9vHp4fazf6+AMQ6GIpYPGoOWxFmNaHjw9PzoDgw0njS65cgesflfjbX2fbHvoFEGixLtuCUGYMwo6RKH7z8kzcv7vLd4CgqiquJzeDrhFBfwqVV6601DLFIIykJa7euwh/Hu72HSAoK8Iy6vjIkFD50yN8n2RACN+ch3bEZD248H6d1uhufgEEZUE4gvowlJHFMAEgTFQH4bqXZ+BXL800DZ38ZUGgefz0WonTDnLQFNFWhOoAQjbN0XZSuGL3Ejw43Os7QCAXxfc2RHHUHKtot8vQPiB44OMUYEDgmyI0CpD14EvX5pZT9gsgKAtCFQBhsjTH37ykASGz+cjFQPO4YR5w1iobh/ZWExCyaY62k8YVuxf7EhBoTj90WASnHxDhCouheeJNfaAMCFPXkI/gAwV2DUpccJ/EBZud3EI8fglShAGEcoIUyyiUNJwECBBu2mbejn0Wg+BWUvjSegdvO1C7GapTKMkDCLaNK/YQIPT4zoJAF6ytCDoWgR0NPnhoNcAlMiA0wCTwJdRegesfdZT1QPdbyJ7PNxaESgDBtHrOL7VcqA7Cn/a24NqXZuC5wVbfWhDowicFBE/r69IrKXotCLaxIPgTEJQVYXkEpx/IVoTaP3GCcQYGhGDMI49iEgWopLK2HqT9CwgqSFHgHNPqudp1EH79Yi+ueZGsB97Sif4plORaED54mMRfHWKjqymbwugGJlZWByELCNTL4nKyIAz5FxBoelVGw2y2IfBDs7gCDAjFNeI9fK7Abx+V+KKyHuj8cl9aEARMFkM2ja9ooSRJjZqyCyUtcAVjEBwH177QowAhx/jssxgEuk2XdgKfXGvj2Hl6rN7qieMzGMqrg0Atn3UMgn8BQVoSH14exenL2Irg88daXS6fAaEuMvNJpkuBnSZz4YL73dRGvwKCroNQbi+GUgBhIC4UIPxue5fvAYEA54vr03jrAdUChGBZEAgQCJLP2xDF+tncyGm6nkt+OS8Dgl9miq+zIgXIevD5a9PIPgr9CQhRS+Ks9cCnji0jzbFEC8LmXW345fM9eHU05ntAoCS+LyhASMNxUFULguOkjYvBf2mO7pfHBYSPLbdw2rII10Wo6KkSng8xIIRnrkM3Urfuwc8z1gOSwJ+A0NEk8aH1wFlHlgcIpVRSvPb5blz1fE+2BbN7p/jQxUCA8O5DbLzrEBu9zbqlcyYGYYpBikGIQXABQUDiBxtjWD+LrQihezCWMWAGhDLE4l39pcCNjzv44q9sON5uwj4FhM5mKpQkcNaRZcQglJjmGDRAmNECfObwNN6wgKwIHkCYYrOmIFkQCBA+szKGty2x0Mk9Gvz1YKvj1TIg1FFsPlX9FBhLAb982MG/3kR1D7yE4E8LggKE9QJnrS8DEEpwMewesfCrF3pwxw7dX6CWQYr6+OYcbhB9XuOicRYeT0QpLWr0h6JMvTH4lN/vzrCqEyiALxyRxslL8wChomZNwYxBIB17Yxa+eUwUq2dyRkP9nkz+OhMDgr/mi6+2RAWe2Cnx/dsl7nwuGIDQ0UwuhvIBoZiL4ZZXOnDVc90YTGlTcy0BQcOBwYSaAoLE59elccoyAgRyyehsBf23N6ujvCyGoFkQhBT4DpdfLvGJEs7dGBDCOe+BH/UNjzn4/C91z4XAWBBq4GK49vkuXPlcd+YNPCiA8PYDbLz7kDTmtEzVxRBcCwIx2hkHR/DXB0Uwg5s4Bf6ZWMkAGRAqUY0/09AKuGWVf3GfowPvAuBiaI3pGISPHl09FwO9Tf8qoIAQsYBzD0/hxMXpPAuCro1QeiXFbLOmwFkQzLeYghWP4GDFhn6mTdfFMSBMl/J83popcNNjDr7wSxu2a9AOACBU1KypSAzCayMWfvlcF+7Y0QFpbAhBsSBQTMIX1qVx0pIUA4Lnm+bNYnC9PH+3Noo3L4qgNVqzryQf2KcKMCD4dOL4sidSQOIGqn1A7gUdrwZaXLObP4MUaQyVFEqaLAbhdy+36/iDpBUiQOAYBB1pQgGfelvda+FLh0dxYBcHK/JzNVcBBgS+IwKlwI4B4IJ7JS7cbConBsTFUBEgFElzvOa5LlzxLFVPpCwADVFBsiD89UE2/uqgFHqbdVXFqfZiCEqp5XxAoH9rNwMDQqAehlUYDANCFUTkQzSOAjc8JvH5a9yyyjpsPggxCMrFUG6zpslcDNLBNc92BhoQZrRIfHp1Cq+fn8rJZqg8BsH/zZoKuRjoS3LumihOWmyhnd0MjfMwa4ArYUBogEngS6ieAip74RqdvWBeiQMBCJTrf9YRwDkbygtSnMjFMJiU+OWznbj+pU4lUxAtCDSuLxyexFuWeAFhCi4GO4XL9yzBg8P+L7XsdTEQICztFPja+igO7WYrQvWeRv4/EgOC/+eQR2AU2DkAUObChfcHERAoi4EAoYxSy8rFYEOangTebo5bX4vhqmc78dxAc+AB4aQladgmc2F8R0ed1eD+Xv1t25l/K2uDLWHbtE8aV6h2z8EDBKpH9YMNUazjbAZ+nnoUYEDg2yEwCtz4uMTnrrHzYxIDYkGoLiBc/Ww7LnumMxNzEFQLwqdWp/DWpSlEkNuXofQ0x2wdBFumdbvngALCP62P4g3zLDRFAvNI4IFMUQEGhCkKyB9vHAUIEM65xobqaBswF4NOcxTluRgmCVK8xgCCW9swqIDw+vk23ndIEss6yZJCFpXKXQxJ28GVexbh4eEe475y02T0P6WkMtDZ7AD6mfCUis78O6+8tAoMzbHs65bM3nuYXEzezXRthsw7PuAWB8sLODUfnigGgQ7z+nkWPrUygkXt7GZonKfa9F4JA8L06s9nr5ICg3GJKx6U+K9bnYACAnDmOuCcjdWJQdCA0JVRP6iAQL72c9cmceJitx5C5YCwJ2Hh2r6FeGpUx21QTwjvOu53QKAh/WBDDOs4m6FKTyX/H4YBwf9zyCMAsPVliW/cbOPRXQgoIFAWAwFCuTEIDqTjVg/U6X4DCeDqZztw/YsdgQcEGuC5axN4CwFCRRaErIvh8eE23Lx/LrYnWhkQ+KkTCgUYEEIxzcEf5I2PkXshrd7qMi4GYykNSpojFUqiLAYyIqu3VfrjSNhSKtM5/UzBgEpvpF/R3943Zg0IW3Y144pnOvDcQCwkgJDEWxYnMxUVy0tzzALCHftm4K7BmRhMG90CaEH47KooTllsoSN7awT/4cEjnFABBgS+OQKhwA0UoHj1eEAIWiVFsiA4BAIlAkKhNMernunAJU935LZMDmChJPfGJhdDFhDKdTFkAeHq3fOweagXjhsQEEBAmN8m8C9HRrG8h+MQAvFgnOIgGBCmKCB/fPoVGBgDLt/q4Nu32bkWBOUnDk6hpLJLLU8QpBg2QHj3wSmctiyJnpg9pSDFy3YvwANDPR4LVfBiEAg8zzsuhnUzdftv3sKtAANCuOc/EKPf8rLEv91o44nXKIrc42IIGCCcsRY4e4NExKrcgkB5/lc/04FLn6b4g+xbYlCDFOkWWNju4GMrEjh6DhVMqtyCQICwZagnm0YbQAsC6fWDjVEGhEA8Gac+CAaEqWvIR5hmBW6i9MarbV0NMMCAcNJBwKeOBRZ263iDojEIBSwItnRw9dOduPSpjtwI/AC7GOj2PHdNHCcuSlZgQTAuBsfBZa+FAxC+ekQUfzHfQjPXQ5jmJ9v0n54BYfrngK9gigpoQEjrJS7AgHBAj8CHj5Q4+dASAaFAkGJ/QuDqpzpw3Ytt4QOExUkVpFlRkKJj47LXFobCgnD0bAvnrI5gSQfHIUzx0eT7jzMg+H4KeQCqQNJVFKCYBwgBy2KICuDMI8iKUDkgbN7ZhMuf7MTzg1EGBI+7oWip5RABgiMkfkj1EDgOIfQPVwaE0N8C/hZg7zBwyQMSP7qrMCAEKYuBZopqIZxtGjYVdTGoqoG5dRCuerodm5409Q88L4hBjkEg3T6/Jo4TpuRiCI8FwYHEDzcyIPj7yVidq2dAqI6OfJRpUuDu5yS+dp2DbQPOeAtCwIIUyYWiiiWVCggFmjUpQHjCxB+ECBA+viKBkxcnELMqC1IcS0tcuXsBHhruDnyQItXZ+CEHKk7TE62xTsuA0FjzwVdTpgIUf3A2uRcMDAQ5BsG1IKhiSRUGKYYVEI6bZ+M9B8exrEO3fi63WdPzIy24vm8OXoi3hQIQ/vOYKI6dYyHCYQhlPpGCtTsDQrDmM3SjCR8gSJXqWFIWQwEXw9VPd2DTE+1QtX5CZEHoiEl8elUcb5iXKBMQdLvnG/fMxN0DMzDiREIBCH+9LIL3H2JhVgsTQugeqp4BMyCEefYDMPabHpM4myoohsiCUHIMQgEXw9XGxRA2QCAY+tzqMZywsFxA0GmOl+xcgM2DXbo/k9stNKB1EMjF0NMkQFaElb0MCAF4TFY8BAaEiqXjDzaCAjc+5qgaCAUBIWBZDDTGdx4GfOZ1Drpbyq+DkEhTDYR2XPFU+CwIGhDiOGFhvAILAgHCwlABAnXB/NHGJqydyYDQCM+56boGBoTpUp7PO2UFhhPANQ85+PebwwMIB/UKfOQoiRMOsosXSsqrg/DqoMCVT7bjzm0toXMx0Mv+ORUCgm07uHQHlVnu1qW7Q2BBsEwmw1pOdZzyc8rPB2BA8PPshfzaH9sp8Z1bHNz9PBlFjU89wIWS3EGeuU7is68rDRC8aY63vdyES55ox57RSEgBoTIXg522camxIMDytBMPsIvBEsAPN0TBgBDuhywDQrjn39ejv/UpiS/+0sZI0rzS5RdKMtAQlHbP7mRRqmNJgJAXg3DlUy246PF2WBAMCKpIUjblcbJCSYm0xOU7qMxyF0IDCADO2xjF4WxB8PUzcqoXz4AwVQX589OmwM2PS3zWTXEMjQUBOGudVHEIRQslFQCEix9vh2BAKCPN0cFzwy24fvccPDfWGhpAINb+0cYYxyBM29OtMU7MgNAY88BXUYECGhAo/iBcFgQChM++zpRbdiRsKVUTIkp9lJTjr2IPoBdBaWf++8qnWqEBAaG0IHx4ORVLiqNJuNaD0iwIv9k1B3fv78GYI0IFCN88KorXzbUQ5c7PFTydgvERBoQ6zWM8Bfz5VaB/FHjL6jqdNOCnuelxB2crQDBbSFwMf7NK4tPHOmiLSaAoIGRLLYcdEP5yQQrvPiCOBW3pMiwIEpu2z8PmfgpQpG6h4QhSpK/Shw6J4PQDLPQ0cyZDwB+lEw6PAaEOMz8wBlz9gMRNj0rsGAD+9TSLIaEKuocVEFbPliqT4bglZCaYxILgKZREPvarnmrDxY+3hdaCsKjdwUeWj+GImdTVsfQYhEu2zcf9A+EDhCNnWjh3TQRLOxkQqvC48uUhGBBqPG0EBxfdDXz7d7Z69bCEwMIega+fZuEktiRMSf2cKoohikGgoapMhmPtki0ItiNBFoRNIQYEKht89qox/OV8qoVQKiBIaEDogmpoFZYsBgAdMeC/jo1hFRdLmtJzys8fZkCo4ewRHFx4t8R3bpagSHppAEEKgUU9wNdPZUiYivxhDVKkIMMPKkBIF7UgSBOpT4BwlYpBCK8FgfwD56waxfELSgeE/mQEV+6Yiz8NUYOr8LgY3LAD6urIxZKm8pTy92cZEGo0fwQHF9wt8d2bdY4+pUx7AYGMdivmCVz2SWBGO5vwKpmGmx8HPntVKnQxCAQIZEH4zDFplckwYZBinovhyqfaQm1BoC/hOSvLA4Q/9nXjlr0zsCcZY0Co5EvKn/G1AgwINZg+BQd/kPj2zQ6o4EhBQBDA7A6Jz7xJ4COvz+ucU4NrCuIhw+piIEB47xoHnznGRpNVLItBBylSDELoAaECC8LF2+bh/v1d5kscIgsCvdFQ22dVLIlfYIL4/CxlTAwIpahUxj4Do9LAAbkVtOVgIkAgt8PCHuCf3i5w8mrOJSpDZrVrWIMUCRDWzXPw0SMdHL3AKdmCEPYgxUpcDJu2zcN9YQQE89BiQCj3qRSs/RkQqjifg2PAL+508G3qDSCskgCBTr96IXDd2ZGMtaGKlxToQ4UZEGhizzycrAjpkuogxNM6SPGKJzkGoeQYBNvGpm3zcV9/CC0IproIxSAczhaEQD9HJxscA0KVpl7DgcR3bnRUpDO10y3FgkCnJyvCV98WwdvWVOliQnKYMAcpUq6iAoSjiwGCdjHsHgGueLIVN73YGto0x3ItCDvGovjljtl4fLg9lC4GMn6exy6GkDxNCw+TAaEK009wcOFdEv91g6MLqaiAxNIBgfZfOkPgv95l4dgDq3BBITkEA4KDTx+dhjNRJUVPN8dn91m47MlW3L+jObyAoIIUR0wWgyzai+HGXb24o68HQ+kIA0JInik8zFwFGBCmeEeMJIBrt0j8w9UObOKDigBBoikq8JeHWvjJBzkgqNQpCTsgnHigxMePsrGw0y5catmTxfDYHguXPdGGh3c3hRcQIHD2qlG8ucQ0x4tfmYN73fgDZXIPUR0EQZEubEEo9VkU1P0YEKYwsykbePBl4MtXpPHCXgFJGXcVAgJ9cHGPwFffBg5YLHFOwg4IM1upcZONd60kK8JEvRi0i+HhXVFc+kQrHu+LhRoQzlk1huMXjJVUKCnsgEBfQw5SLPFhFNDdGBCmMLGvDUr82/USNz1BtQ4E0gkVfoB0qlwXAzUbEsr6sHK+xJWfiKCd658XnZmbH3dMsyaza0h6Mah3O2No+uBaG59SboYCgOBxMWzeEcMlT7Thuf0RBoQSAGFPPIIrt8/CnwZN/EHYLAj0lRIECFwoqeiDKMA7MCBUOLmDYxI//6PED293KGEBkkqwUrM3IZEcFUin9IJfLM1RfQ+pQpsBhLldEue+2cJ7j+a0x2JTw4AAnLnWwSePThV1MTAg6BWvVAvCbbu7cMvubvSlYpnbMFQuBjNqrqRY7CkU7N8zIFQwv0OUsXCPg+/fRo+cXEAQlqTidrATFgQk0kn9qjeukqKCB92mOAMIlt5vAWU1nGLhlFUcjzDZ9BR1MWRqUJh20FrtDLTRv+g3VOHSfSV358TsmXlTd69DAd8k02KMGNkW1JnWyuY+cE/lkqM6sLqKzFDdU1BJbvfeUWV+M4aSrAXh+GUOPnZkGou77UnbPTMglAcIF748C/f2dcKdAz0R4SqUxDEIFSwOAfsIA0KZE0pwcMHdwPdu122GaUHxWhBg0UNEIGIeJimyJiT0opRTankSQHCExIq5Aj/7QESlQPJWWAEGBKCnWeLMw228e3VqAkDQMQgMCOUCwmzcs68z98YLEyCoZ5vgNMeQP3wZEMq4AVStgz8A37/VhnAznyYBBGkJCCmRGqO/gVSKXBBCvZVo90NhCwIBwsw24IPHRnDu8WxFmGiKQl0oyXNbUBzCJ45KjgcETxYDA0LpgPDiUAzXbOvFU8MtWR9hyCwIriWMYxDKWCACuCsDQomTOjQmcf4fJL57iwS1jS0ZEAgg6H9SIhEXsBM6MKEYINDvF3YDXz0pglNWMySMnyYJ3YtBW3K0OUf7csiI4/2Z120QNBcD1H/DAgAAIABJREFUjfMDa2x8/KiUcneRtUAFLDrQkfrSVv/94K6YymJ4si/KQYpFghSvfqUXd+zpQMLxBBGFEBBao8B3jo1h9Qx+/pS4TARuNwaEEqY0kQJ+/6jEZy511Ns/uQ9KBwQdvOjGJiRHLdgqLkH3alDPHTdI0cQgkAVBAQSAxd0CXz7Zwls5HmHcTBV1MRhoCDogHLVA4sNHpLBmTnpCQHiqL6LqIGzZFfY0x+LdHC94cSb+uNetnuhZHEPkYqBRH9wl8A9HRNXfvIVTAQaEEuZ9Rz/w2QsdPPgqQC8VlQKCikOQFlIJqWLS0nE3CM1kMRQABAp1XNALfOUkgVNWctdH73RxFkNWjQ+sTeMTRyYLAIK2KrwyGMHlT7bizlfCXSjpnFWTA8JQCrjkpRnYvK/NpXePNSpEQYoA3r7EwgcPjWBuKwNCCctEIHdhQCgyrRR38JM7HJx3C2BZUwcECvyREaliEhLDQkHCZBYESnaUlsTiXoF/OtnC8cs5/dGdsqIWhBBkMbhafIDiEI5MTAgIfWNCAcINz7eE3MUwOSDcu7cNv93RBerDYMx7oQWEr6yz8JcLImghnypvoVSAAWGSaR+KS/zsDuC7v7MhhFUVQND+BnIhKHMCEiMUl6Bz4Sgbgn7sdTG4gBCxBJbPBr58YhSvPziU92oBFwPw2auofKXZ8mMQQgQIxy128JEjkji415RdzsQgaAvCmOnmeCV3czS9GJyCvRh+/sIM3E3uBcpV1v6/UAICjfqHG6M4fCa/kIT5acuAMMHsUzrjz+6w8e2bVedmlX1QDQuCFxDcuIT0qIBMUwVGHbxYCBAo0DEWAVYvAD73FwwJNG03Pw6cfTWl900ACOoBn80WMU/8QNVBcG/fligVTUrjjDWJvCBFDQi246h2z5seb2cLwiS9GH7xwgz8YQJACFuhJC6SFGY0ME9LKTOPV1bDKDAcB35+j4PzbrIRTxId1A4QCBiooJJICyRGhYpPyHSChC7dTC4Gt7xuU5RqJFj4+HEWTloRbtPfzU/oLIbMLRzSLAa6bYmRzlyTxsfW5wOCzmIgQLjqqVZczIAwoQXh0f4m/OrVbjw/0lTQgsCAwEtE2BRgC0LejCfTwB+elvjkFTaiAojH6bEg4KQsnYkwhSwGZa30uBjoeAoQqEQzAEfFJQDpMU0Gavc8QNCFmQSW9Eh84fgI3royvCZAikE4++o0WxAMILxxiY0Pr0vigB7KZnDTHLMWBAYEmFLL8YLNms5/vgd/2GOyFwq4GBgQwrY88ngZEPLugT1DwBeutHHfS9L0V9CAoOoXQMKx1VIOywTuTFpJUcFANs1R1z4Q2iJAtRDyAAERqAd7cghIxfWFFQQEIZQbYkmPwJeOt/DWFYYmQnY/Fw1SDJGLgSwIHU0SH1yTwntWUbDieEC48qk2bHq8LcQuBgIEClJMjAOElO2AAOHuvaSPjg/Kj0EIFSBwo6aQPU0LD5cBwaPLcAI4/26JH91hq4VdNWDymPcJEShOAMJBk2UhnihSarlsQDC1ERwgPgw4CQFp57oYFJAYQCDgoDoJf3t8xKRAhuue1oBAhZLch3leoaQQBSm6YRgfXJ3Cx44gN4M0hZJcC4LElU+1KBeDgs68jFm1+OlOFTlBeTkxemqHXLdWbhcJ3awsZw+hXWaG1czvsr0kdI+JSXpleM6nXHG0L8G151an47tHoLRgOqb3iO5ld8QkPrViFMfNTY4DhEf2NeGaVzvxwgjViWBAoJgrbvUcrudpodEyIHjiDggOzrvTdgvy5QCCevt30xwtoMkCRskVQPaEdLabY04vhgoBQQEAPeDjgJOEqsCoHogm4C4LCNo9sahH4JMbLKyYJ7BmfnhuagaE7Fy7C+IxCxx86PAEVsw0LaCpmqInSPHix9ug2oiFEBDWzrBxxiFjOLQrlQMIFJ/xs2e7ccfuVlOgrDAghKlZEz1jfrQhirUzwx3nFJ6nKVsQJpxrZTn4g8R5tzsaCkyVw3wLgpvFoGIG3AABCgCjTDshYKelsjiocr/0ZjQFQFAxCMIhYwXGBi1Q0yedHum1IGQ7E3Y0Sxy7JIJTV1s4eUU4buvfPSFxztU2bAreyLyihq/UMg098wYtgA+uSeKstQlIVXJZAwKVXaYshoufaFfrXBgB4W8OSuLtS+LojNo5gLA/AVzwfBc297UwICgHKjCjWeA/joliRQ8DQjiepgwIBRWIp4Dr/yTxd9c4uuOiAQQ3QtDrYigECMrsqb5DFlJpRxkQHPJQqGOZAERTarl4DIIpsawaOpF7g1pJC+VPjg8IpEaNSyPjYjA9HfTpdWnmHoHPHGfh2KXA/C531QzmLX7P8xJfu97GK/sZEDKZngL4wKokPnx4XGV36L4MHkAIcRbDOavjOGGhN/5Aw9MdO1vwm21t2BmPMiAYQDh5kcBHlkcxr40BIZhPz9JGFXoXw65B4MyfOXhmj16cKwWETPChhLIk0IpNoFBekKIXELQ1ggCBrAaOgYS0ggQdpKgCHV13rhunKICZbRJvWW7hmCUCJx8W3CyHZ3dDxYvc8AS984S3WZPXgkD3w1Hz0sqKsGpWKtOsKWNBCDUgjBlAMPEZxrry02e6cNtrLfoWUt8ndjF8fX0Eb5gfUa5U3sKrQKgBgeod/OROiR/dqReYqgCCWrR15gMVP6JkB2rzTBkLlVoQ1PGUJUEi0Q+kRi3ICQBBjYEMzpQK2S1wxnqBuZ0CJy0P3pvA433A9+5K484/sQXBa0Egq9YZq5L40NqxnKJJN7/QhEueaEd/IhJKF8PnVo3hzYvIgpAFhCf7o7jixQ48MRhjQDDrID0NqYriOq6iGF4yMCMPLSAMJyR+eidw3m30lm4iuKthQTDpi+otxIKqpZBMavN/1vUwUZpjYReDCwjqbxuIU0zCiBu0qI/tuhi8gKBdHxJLeyy8/wgLczqBkw71Pyi8Niaxda/EY/0Ofv2oxO6n3bs5nO2e8y0IBAgnLEvjzDVjmNuerYnw3H4LVzzZjvt3NjMgKOuBg4ue7cAtO1uQMKkWbEHQ8SznMSCEHg7US3MYKymOxIH/u9PBD26lN20gYsxoVbMgmNRIcldoqwFUbEI6BZO2aH4+rg7CxC4GN55BXaNyNwDJkfEuhkKA4LoilvQA7z3c0hYFBQq6i6Rftm0jEve+JrFtxMGdu2wMpSVG91nY+4w3jy7cQYp6gZOY3SZxxuo4TjkwnqmJEE87uPqpdlz5dHvoAIFu88+pGAQqkqQtCClb4qdPd+KO15ozQZ4MCPppQIDAfRj88mSs3XWGDhBSNrD5OeD9P3VUPQNaeGsBCGrKTJCiCwlUfEXFJVBlRscEN3oqKYK6PLrFlDxBilkLggscUkNCv0By1KRAmhiEiQDB25NgSY+F9x1uYWa7xJsOEmglM0cDb9uGCQwcvDAkcdN2Ry2AlCBCL30j+wT6GBDyFjhdB+CMVXGctWYsWzTJsXH10+3Y9EQHA4LjYOueGK56qQ0vDEcZEHIeARLnbYwxIDTwM7FelxY6QNg3Avzd5RK3PEnpiBMDQsaa4CmUNFkWw7gKiYUAgSITlLVCwLF1gRjHsTKllr2AkElzNEGKBDIqtdKTEUHuhjHKbhjRkYqmFUEmBsF1MajOkd6mRXQsUJaDwDtXAu0xilMA3nKwmzY5/cCwbRi4Z5eGgecHJX63nYCOoIDgQPevIEAY3Sd8Y0Gg4nyUYqjugZyCQ7nFgtwSBVTW242N0QWF9Ob25fA+JPJjEOjfR85L4wOr4lg50837dwGhU+noNR4FvVDSnFYHH18Rx7FzqEgSAbaD/32yHbfu0sGJufqFO0ixt1nim0fHsLKXIxTrtRA36nlCBQgjCeB/b5X44W3m4VhDQFBLmMfFkFms1c9M8wVJ+diWzkt3tB/CtSAUAwQNCwK2TYGLWUtCcQuCPjfVetBNofRiu7gbePdq3dK6s0ngiPkCS3vrBwr0gH51SOLeXfpR/SJZC16lNtumNbZeGQsCQt+zQlfGNZqYkBJ3NVXHyG7Z2hHuwqAWS7fGX5GFWM3jJLK4kOatDqhrDuhrJKijRHMRAayoGZRanrwAoE8xVUCgg5yxIo4zV4+ZvH8NCBc/2ZHRxtUl6IDw9iVJnH5gErNbdA2ER/ZGcMULbXhmSE1CjQBBwE4KOGmJaLOAFTX3cl71yPHAl+f6M9Yy7yKi7nH18/ybMRtwnVtvUn+ayrxrxPRWvMz9Tpy2VOCMQ6KY01q/73+jLpBhv67QAAIVQ1JwcAvFHbhf1NpZEIoBgqpzIGzthqDUSFvXO5jMxeC1ILj/TYsbwUV8v1AxCcr0brIYClkQ3OtyAYG+AAQF6u1Wda0EelsEjlsicMisrGViXifw5gMsbcWowtYXl3j4NYk9cQ1r9Nh6YVDi5ld1OV29EHuAaQJASA4K9L8kEB9tfECgIVBlTJtKdEeBSJMLCd4lynBOlQBh/RwbH1g5hhUzKXrfxlVPt+HiJzqNvtmJDDognLsmgRMWU48KXfvgx0+04dYdTRlLTtUtCFL3b0mO6EqrLT1AtMWcrsEBgQokHTPHUhlYvIVbgVAAQiIN/O7PwKcutrV52n0rraEFQd1W+TEIxsWg3BHKVE6FkMik4Oi0SFszPy346veeOgj5LgYvIFgW1VyQGNsvkB5RxvfMuWnpLexiyNbI9wJCxoKhFihduZFWk6XdEqcfFlH66Tdo8wbiNYObtxo3zVNp4O6eedjoR/HuMYl7djjYSQu76ZKpdjEWjVIBQaYFRnYJ7NvmL0CgNz8rIpUVgf64mTSuTaFaFgQyE71/xRg+sGpYLY63vNSCy57swN5EJFQuhs+tSeDERbq65PP9Fi5+thV/6tepjV48myxIsdRmTQQGTkogTaXS0xoKNCA0vgWBvp0/VPEHTAfhRgM9+lAAQt8wcOZPJB5+1RkHCLSI0wJp1qaySy27b7vlxCAUAgTX7SDozSNNnfjounQlxXFBipYO0suY3F3IsMmSQC2jlQ/BuLknBwSd4SAzFoRcQNDNdzQouL5v9+3erC+ZuAhtpyUrhDbpm18of7upMWEsA9qtkbUQqAd0ptCTMX+WaEGgz47tE9hDgYr5LgbzjGsUF4PXguB1HyhQaJKwIuY+NOpVw8VAR3zjwiTev3IEiztS2D5k4cqnOnDH9tZQAcK5a+I4YVFSVZe84tkW/PbVJgzb2UWwKhYEkHVIIjVMgGAsecS/EYGWbiDSzIDAi66/FAg8IFDcwf/cIvH939NiSwtergWhVoBQqovBtSBoQDDBd2RNUK5EXTS/VEBQ4EGBi/sFEiYFcrwFwRuDYNIkywQEt3wjuSk0pLimU9Ojwl2YXeoyLh16OGuAqD4g7H1WOU10H4zM094Fv8aIQSgECO77K0FCpJkWk+q6GOj4PU0O3rdiDG8/cET1rbj66Q5c+nRH6ADhxEVJ7IkLnP9kK+7bTWab7MO6GoBAFoPksIkzoa+uiWyItQJNHcZSpEg7P+bE090yY8/wXFwdYxDYguCvBbzWVxtoQCA4+O/fOzjvFv1VbSRA0G/VdsbFkLEgmFa87ps8BTgpTnAXVpPFUMiCkLEGOEJF91N2g6rp6MliyI9BqMSC0EiAQEMb7RMoCAjGXt9QFoSUjkHIbYqsFwx606S3zIiBhGpZEEiGk5cm8P4Vw+hpThlA6AwNIDRHJM5encCbFiRx06tN+NWLzXhtLHdRniogpBNAcojKrBvolvTN00cl60GUDDYmKLiRAWF5N/DldTEc1MUuhlovvn44fqABYSgO/M/vHYwmLVx2n40x5Q8UpuwxfVsd9co7PS4GT5CiGxNhzOzuG7nrh6fYBHIZUGyCeshM4GJwF3vLEkinoQIXE8MmQnlcmqMni8HHFgTSIz4I7HvRQorab3stCI0ICOQ+SmoXUu77q15MyIIQNZYENxXSvQ/c/UtNc/S+IS/qcPDew4bxxoWjoQOElb02zlyewNKONH7yRCvu2hkrEKTpWpuMK02lxeSmo04Ug+BaDpRbwe2P4gGE1l4doKgP19gWhM+vjuDExRG06+QO3kKuQKABwZ1bymC44C6JeNL47QG8Nghc9aDOIihUKEmlC5JLogZ1ELwxCDqQ0bzluy4GY7LX5ngzCpOtoCChBEAgyHBsofzzZPYcXwchOIBAgWBDuwT6t2nhGjXNkWaSXEc2AUK6MCDQPpGoUJBAqZCZNaqCOgi56ZgCb102qiDhlpfbcMnTHTm/DnIWw/sPSeEdy5J4cHcEVz3fhFdHIib4NhfRXK0natY0HhCAVEIgNeTOJ32nxlsQ/AQIP9gQwzrKXuKNFQhLkGLuTFMLXIGd/cBl92sf+nBCYNP9lElATZF0jYCpAkKpMQilAIIb0KcvSvv5qbtjfpCi14LgWiFo8RzdI5CMaxBRH/LUQVBvrZ40x1KCFBvNxUAm25G92s3gB0BQqY6TAALNY7SJgtqqCwhLu9J4z6HD2DkSxaVPhScG4dy1SWycS9aDZtyxQ78a6+ycqQECpSYnBwn4jLuCrAYMCLywBkiBUFgQJpsvWjIH48Av7qZaABKDCWDTZls9O5wpWBAqAwS3QI7bq8H87T7Q3LLMguom6NoFOh1Sp0oWAgQaO6U+Du12Uw51AaeJ6iD4FhD6LA0IOmvSrKzuAts4QYpkQSgGCGoMUXI1UCqkN3feHVZ+UFt+oR9jD8h5EdRvtscvHlUNxG55xTjFjVRBtiC8YV4ac9sktuyJ4hXK8KkQEHQZTBNjCKhA4PSoKdKlzEMMCAFaG3ko4bQgTD7vA2PAL+5x1BN3MCGxaYt5KKjeCAC5jk3CgemgOEEbZ/WUd7MEPCmHJtjQrYOQa0EoDgiqeJByRehyzcomoFb1woBAbgqqFTC2D4iTq8FcV04lRZ/HIJAmiUGBfS9ZqjdFowNCMReDe4da5GogSwKl61fBxUC3ybw2gl+JXaP5UfwaonKq75n0Vvd63DoV3m9Qbjy+TovN5ZJsvQ2T+OopjuGOaxKAy/jY6Np0ES1dK8Pz9m8Kbalb26zg3iPSNan12029rQIgqKBESmckS5B7MT4HhL+YL/CJFVEsbGcXA9OBeRkJYzfH0iZfgmDhwnuB/rjEJVspoDGb06+yCFRQYb0BwdQaoDNTkKXyJejUKrcGAQUpZgIdDZAoV8M+IDGkwUUDgv/THN0APnpQD78msP9Vq7FjEGydxTBRkGL+vRltEqA0uWoBgmtZ1+WfPYusibgPIiBoi4HGnwzsVOBicC0IMg0FpBnXgntQnwPCfx0bxdGzq1cttbTnLO/VyAqE3sVQyuT0jwEX3e9gIA5c9qCjrAjFAKEmLga3VoKxItADSxcy0gGJ+uWKXA65gKBjBiTowTZKmQ1DmnWCBAik90ifwJ5nGxsQKNKdKu1533C1gyD3J+59GXFdDbHs7yvJYlC2AWMep2WSAaH8GAQXECh9OEWuBd32wENZhV0MVEVRQV4DZzEQO1EHx3VcQbGUJSE0+zAglDHVBAqXPCDRPyZxycO6u+BEFoRigODWQSg1SNEteZzZnwiFshkoVsK8GKleDnJiQKB907bAyGsSdpwgIjgWBNKbaj/seUY3v8q+KrqVHTPvjjmNFNXSXKdmTXQFbi+G3CY7EwMCLepkRaAyve4LMANCeS6GaloQ7BTVO9CllHN9KRPHIDS1AzEqlOQ2amvAQkkMCGUsBCHalQGhgskm18OmrRL7R4FLH7YzqZDUKS1TZ6FIN0e3WVNuJcVSYhBcV4J+HVTNmTKpkNoSTSBATQN1zQT3PzRM0L6UljW827UylF9quRGzGGjJSI3pVMexvblV6BqqUJJp1lQqINDtmbEiUAC+8vFXHqTILgb3Tb4yCwLVFUlTkaVCBp8JXAwUS9LcLVU8SaPWQXjTAgsfXxHh+IMK1oMgf4QBoYLZTUuJnXHgvl0S37s3rUyNo30W7LTbI4FqFWRLEOvMADpRttRwtQFBPXhMPASVk6aMDMf0RnBtyyp+O6LjFUb3CsSHTOGoAAQpuosmpTv2PeM21/AsBh6TgifuTRv3G9iC4L79UkYD1UZgQCg/SLFaFgTHdlSfE4fSGgttEwACYX9LLxBr4GZNFH9AHRyr1a21gscqf6QBFQgtINhSYtcY8PiQxL5k9nXAmyFHi6zpKpTjI047EjviwGMDDvYkJRwbGNljqb7vZknSJQtMrIJICwz16YeKW/yoMCCYXgx5hZJUPJkyDeg3R20ZyLUguDFY7u8oNoEuR6iACb2wZOImhFRd5sb6LMSHgmNBIG0IfCgOwbPmm/oP/nQxuIubymho1t0f2YIwHS4GieQoVJaM+k4VYoQJAIGulgChkbs5/mBjFEfMMmDdgAsVX9L0KBAoQIjbwE27bMRzgod0LwN34XYd1LTI7xwD/jzkYG/C/bXuaqgeyiq6ID8KqfxJUot7WmBwr5t/rY9BdQwS+8mikK1hkGnWNEVAUCSgKkDqyn2ZRYYsC8oNQuQgkY5bGNgWoYTJsro5NqqLgQacGgX6t1lZN4O3xLQ7s3kFcupmQZAmBiGpA0Sz28QxCO7c0f1IhZNUhcW8DATaJ7eXwMR1ENjF4H4fynUxSFXSOxWnDKBKAEGqcsuN6GKY1yrwL0fFsKKX0xvLf8IH+xOBA4Srt6dx6avpjGO+Got8dW8B/SVUb/D7s2+D1G8hPliiBcET7OTGIHhdDN7Ax0wqpDJA5AKCKsVMVoQB454wpZ31sVwLyPh2z40MCPTsVlUV3WDFBgIEmnOHGjWp7NTyAcFqMn0aTLqt975kQNBqFKqD4ELWVNIc0wmpCiPRHJYLCHT+5i6BWJsOIG60Zk1nHRrF6QdE0Gsqd1b3ecdH87MCgQIEmghyF7x/S0L54P2xmcXYhlmo9VUTMFA6ohu/kHUxuIGQug5ChBZ9s9ZkYh3MQ8itEaAggnYiSRQEaAuCMjGoIkoWRvuz7g9/A4JU8SCqqqKK1GycLAY7KVWKo04zLB8QqDeDsiKowkm5dzcDQi0BQWLMWA8UhOQVasrMxIQxCECkyUJzlw5UbCxAEPjBxhiO4P4L/lgu6nyVAQWEJOS4JOU6Kzul0wkVSKgtCrqLIzVc0nEHpmKiqnVQOiCoYkpqFTE9GRQgCEQEQN3o9r1ieWDEzxYEqczAA68KjO7W7TEbIosBApQiR0WSKgUEmj0ChBh1BmRAyK7LRSopTtWCQA4bci+kKTW4QkBw4xCyRa8mq2uh6qNmnyDeTCXzU1UtVP083y2gfYrqZaFAoAS5GF0HKn2y2RL4zoYY1nL9gyk9sYP64cABwmAK+Lcnknh0iF4fg7BpWNBtmy1IRyI1op8AbldHXfRGuyfU88LbIVI4OhXStJJWmQ2qopL+DP2O4iG0q8G1WPgZEPSDc2SPcTO4AZ6ZW8G0vzb/rlcWA1VOpBLLVKyKAcHjw8+rCeAWdHKny7sAVlpqeaqAYKekKqucpnbOFQICXUNLD7kZXGBtDEA4bVkUHzgkgjmmkFMQnpg8huopEDhASDnAln0O/vUpN/KwemJN75FoYaP+C0ByxLQNjmuLgLvYTwoIpigSBeTpQkK66pub2eAkBIa3C6RoAfN5DALpQcVsBl62MKagJ7dy0nSkOVL3RrLUuPGFlbgYlHk7ZuIQdFPC7Fu0+S/95shBivkOxqmUWk4MA6kx0xxtCoAQaxFo7qI5zA1KHZ+VUi8LgsD3N8awnt0L0/tob+CzBw4QSOt9SeD9W+I+ikMo/w4hD4o9pt+pBEFDQpVBmtiCYABB5dFn3A0mIt6UY0z2A0N7NYgohFBpmv4LUlSrsCMwsttC3/MNAAiUtZIG0ib+YCoWBBobZTJQRDwDglbADa9RAKWA2e1NmVVoKoBAkGnHs+epJAZBo7xAywwqu9wYgLC0I4KvrY9geQ9nL5T/BA7HJwIKCBLv20Lh4o0QqKgzBGq1qb6ODpCMCzgEDWQ4ERRPoIMZ6Zc608GY1t0OfeqyzJuKyV6gPgGjuwUSIzol05eAoFcJtY3utdD3rIeG1E/r72KgeUkndb+MqVoQaAQKEPJMwhykqOe8FoBArjey/mTifCsIUnS//9E2geZOiUh0el0M9BX5xGFRvH2ZhW4KnOSNFSigQCABYdQGLnw5hd/sSFdt0mmx1XWT3FQAqq+gjbkmOXECEPACgkvqOkBQN1cSIGtxSi3WelGvJANDux90lLx0LKSTVBjJW0wpDxDcnsimG6Q2TesyzIM7qdejzo7wrQWBxjIKDG6zMLrXexvUHxAoODFlqu8xIGhIy8TPNXgMAn0rqXMjtXd23/srtSBoPhVonSFVVUV3mw4XAwHCDzZEccRsLo5UtUUigAcKJCDQV29XXOJDW5WTvuRNL+Xugm4yCNw2uBUDQv7pzfE9gBChbMMcQDBvQ2ROJn+6Ckwu1QqhQ54pb5vM7LQ4FbQguNWIFbOYyGbqCkmtbPcIjAxavgcEGhdVVtz7DBWDyrxj17VZE1kN0imqtqnhkAHBX4BAlp+kqX9QLUAg64/XijAdgPC2xRY+tDyCeW3sXih5gQjhjoEEBJrHvqTEGSXWQ3Df2icDhPreG/pLSwt7FhDMFVBgIdV4LOI+oYcOmbapbrxFmQ+2TmN0YxBcMzz9zFJVF6meol7BnBFKe4wEAhCogdPAq2RFcGe3fhYEmqJ0SkNa9m1xalkM6r6I6VRHqovgbuxiMFBd5RgE3Zwpaz2YShaDJkRtPWk1vRn0K0l+ZcbaBSlShdUTF0XxkeXUmKm+TzU+m/8UCCwg7E9JnPNIEnsS3nLJheMBKjXr13e6DelnACH37Hpk42K3dT0kB0ilLTgpnd6oUyH15zUgaBhRVgwyQCQEhnZaKq7Bfy4G475Ro9PNsVKjFsb6hMr+IFCoVxYDpY/SGyjVsagmINDcxZp1TQQGhNoGKVJXdMzvAAAgAElEQVSvEgIE9b0wtrapuhhUoGkL0NJJvTXqBQgSR8+xcFiPhZOWRLCoXX/neWMFJlMgsIBAXHDjrjT+70Uqu6wXC/PuFpA7IvfbnXWIeN8+smZ1MgeoZlLkeUibBk7uC42prkjVFlUapKP9roO7dHc39TO38IopsEQPObJk6GIt2f4A6qHjskyGQLKxFbpZlSnh4gZM0uyoOg06ZkIdwlg7okKgGQLxMWB41FShM7ERzc0Cre0S6ZiJBDHuEn09xmLgHtfEJIztI1AQxqJgHvo16OboODITmOi94arhYqDj5QcqsgWhNhYEBQjGU1lNQKCrJSuQdjXkF76qrgWhq0ngTQsETlps4ZAeC80ey1OhhyGlir84BGwbsfHaqMhxcc5ohnJLzG0V6u+mcSEMedcekKdtWIcRWECgCd2blPjAFqqqmJtWFMTJdj3c2oqgcht0ule+K0Jqk7f7VqsWfrf8shuYKKlzncDAK7q6UtUAwaRhUvVGJAWG9mcy9nNqOdD8qKRNS7tYmqQBBHqTM8dQKWNNQHOHgzS1sHattAYMXDahv+kB3NQl0dKtwYMAYWyf/pv6Nria6c9MFjxWuFFSPgCQ5FQUiSwI+RsDglLZF0GKdE+pAMUaAQKJ0NrjoIkyUnJ4vxqAIJT18K1LLBzWa+G4BQKzWgR2jAAP7HbQnyhkb9R3a0oKvDwksW3UwWtjFAOVfX4SIMxttTBXQQKygJAxy3lfxARiQuKUxRHMbM7GdgXx+RvUMQUaEPqSwBkKEBqhqqJZtI2hUr8nu5YN9/bKt/mVGpg4fhlSR1LfSW3C1C4EfT7Vl8E2P6PCSBlAMNUVIZFOWRjtE4j3VwgIrpEiKTA84AkRFECEwCUPEHTMZhZzaKEeX0bWPEeNBUL32/RoZEwPboKGUoWuIyLVm1pzd3ZxUiAQUU0vVZU8qv9QLUCgQE/lWijw1GBA8BMgSAMI+t6otgWBjkktvFu6gAj118hsUwMEguu3LomiyRJoiUo0m6JadNSdoxJb90j0qxb3hQN3ySnrdaM44zJNshY69xhu7RR3CG6H1CYhcdLCCGYoQMiekY7/9sWWAYc8PgrqauvDcQUaEIbSwHeeSeH+fdVLd5x0jk0FIoqZJzMepVtmIaASQNC2AGJ9eututvQxPe/dJd1ylBvuBQRjzFdv6WnywEjTn4GOZukgyP/P3nXAR1H07Wf3SgpJCAlJCL1XRVTws2BHRJDX3lBBQYoiClawYscGiIoFG/aG2HtvqCBKEVBq6AkQCJCQ5Mp+v//sbW7vcpcru3e5S/7zfe/7am53dvaZ2Zlnnn8Z+lv1AQl7ijyyfxATg/Df8MiMLoeEakEGVNODRgTKy1QHSJ31QW23PsMh1eN5GzUjpHkEwT+TouaHYc9QkJ6jCCVh/y5zCAJxUUqKRBkvAxUmCMlEEGKtIKgjhM5nSMkkpUv7AowQBEV8v6e0tsBmkfB7iRu7KKLJU7X/WQyeD9HHL0cQBLFXUL+JaAkCEX6hFuqosvaGNEcOaiUjN1VWw8fJcdMC8bdsOztHhDWxx+GiBk0QXAqwrMyNm5ebn3ZZy4ugEQCxWdcRBLsFOOBDEKLpTc2zgBZbgL6bA26NIGi7bc0rXp8XKpTyoDvGhXwS6Phhqlec2aBSEiqU+W//NgkOShHsQxA8TlsOOqLaO+G7qiVU7RVpGdX13yfFsapO+Hz69UQQYuWkKMiBQ8UzWGGCwATB9yNQ8SCSoDktev2lahhzzYmt2rgKfliTSq61TYD/OAyXIKjjVHXoNZsg6OcALYKDWpxukTCgUE3cRP9OG5sz2sho5lEfoplB+R5jCDRogkDQ7KqitMvCeG1C8aoAGhnwIQgmPCH8KrwEQV2NVYLgTdqk1RSYLOjpBU0opCRotmGRhZH+1Q0cKJOwf7v63rQzJkIgsjISIaKcCfuCs/3GQxAUcaAWhTQKa1YdGyCzCIIl1XOqo6eb2UlRBcLMTIokk6s+CLEzMaitVhdiimxIyVBgsWl6WzQEIbLTHPXP12YMr9oXP4LgM+95VAeaZQa3sqCZR1HokiXh8BwJacJkwipD+GtF9Fc2CoJw8SIj5zLQlCOWw5qsid6AwlA79eg7Jto7vft/X4Lgr3jUTAyeiAFBLjxKZE0GZgmo2COheBkJgh6CsM87odUiAH6NbhQEgRQYymDppCgR7Sjt4L1nGkHwpFvWpkkmCLEgCPExMWgEgd6AQldTs1ywkHeuVmJ43HMwghBLE0MgBaEWQQiw/nfOkNC7mSxMEUJdaEvkIdqZku8LB4EGTxBI5n9rkxNvbNZlqwkDGZUSaEIb3aAShGQteuIg3oqkQ/Fa6jvR3+ijE65L1TL2l0io2KfASdEMm9WsinrWLkwO/iaExkQQFEWYZYgY0P/WZEoUYaBMELyLG/mSaMuQBg1HMfiOEG9uDvoc7WmKONCJyIIa7qtG6ehLcBODOQqCGU6KwXwQoiUIPu8v1AXVHHF2Gwv7LcRoYWrwBIFw21lFWRXDSbvs+VDF10j+8f77sxj1QpyrrbEtepyRbJIEh5scEwHnPhmlG2RU7JBQsd+TxMUTcqifpRo7QRAmBTqAieZj3ewtSFM8CEKqKkmzghC7REmxD3P0SgR6vxgaQnQktNWuwEYJjWz1QBBi6KRoBkFQ8VI3N0NaWtDUJuHstlZks6Jg6mrSiAgCOSoGVwDUHbZHIhZSe3zUAs1tT+/ToFk849EC2inYJBnl+xTsWS/DUQ7s2ebxUNDNWiJSwWchbJwKAg0LoRy4PAmnAqkmTBC8qIhoFFYQvIqKf1plVZnzJwjaELKkumFvqkC2+Q6qWCsImnYaLydFn89Is8OFWOp8cpYoEoa0tiLLprCiYCJFaBQEgdIu37jUgU3esIJaEHol+FguyyodyLACR+bIaJ/uOWeZ5Go1EYBH5FcNHFQoEmNLpYIvil0eB8Q6XOQjHhgSHOUSyjbIIqRx7yY1k2LNvoYJgo8aIEwJFMIooj4Cs4B4KgiUiU8r7IOgImGuk2L8fRAEXdCJULRRsaapBMGaTqmZPe/piYSsnSvEHBND0hEEAZw6b5KicFC2BUc3l5HuwSviqZFvEAg0CoJApyF+u8OFGaurfRa/aI5Vjm7cSMi1STirlVUQhHQLcEi2hFZpoY9apSRmxVUKftnpws5q4P2tTlPUDXeVhPKtFuzbRYcZaVs8X3KkT37SmBUEjRiQ04YgB3XYEOJGEFI8UQyermOC0DAJAr0VhRmKY+GJKFgU2NIBC6VLFr4J/kS1cRAEvYlB1WA0gkD/oKB1uox+zSy4uAP5KdQh6UU3oTeauxoFQaDe1PwQxKInZlM1D18sS4pFwiFZFkEGsq0yTi4Q+5uoy+5qBd+WuFFS7cYHgihEUyQ4KiTs/FfGgWILqmoiQD1hDLoqGztBoOOyKeEREQR9Ms5AGR412Jgg+NEnNjH4fqRqQhG/EtzE4CUI2jKoCN8TOuSJiIK/6cGbgyRwJoRw8yAkYhRDLdR80qLrCYL3SlITKIvjma0tyPLJVhnN3Nn47mlUBOGSRaQgkBFZPdynLp8EI0OBHGZOK7CKNKJdM2R0zzRCC2q3pLRawbzNLnxW7ES5SMYUDlWQoDgkHNgpYfdmGXs2U8ZEfbuYIKibEDU6gXI8iMOrAmRETASCwIc1eb8L8nHQvoCGZmKoTRC09ybTAxEFqEShRko3R0FI9CgG7VutIebqH2pNlkJ5kYFTW1hweUcmCZGua42GIFDa5dnrnPhuh7P2AUaRohbk+jSLhL7ZFvTLkdE/14ImMbR/lTmAn3e6sOmAgvlbQ4dwkmqw6z8LqkollO+p7YSoOkA0YhODZ5URUQl+ioF/dzNB0C3OfvSUjgf3maaTWEGgF6mM6WFN3uUtmJNicILg7QPV9CDB1kQ9Plp/oFmtsevxblRdsgM/36yzGGIZ5hgJQdC2UEMKZZzcwoLuWRJsoa27Jq0KyV1NoyEI5Oz3734Fk5aEE+4YaadKyLFLGNbGil5ZMjo2MVcxqKs1pCa8tcmF97fRqUvevAb6e4gclPxj9foaeH70PWClsRIERQ1VdHvyGYhU1nUXJgiNhCBAzRTqEJkU1bgmkQLYP2V4zaZedTYWVgShUgZQ9gybGIKPTZUoALYmbs/hT36pzUW4spaGOQRBSPAwx0gJgkoSFBzaTEbHDAnD2pGaEOpLj3QdaHjXNxqCQF1Hfgji+GcTfQ9ybBLObW0Tg21AvjEfg2iHV2k18P0OF4qr3MKJUXw85GPhAir3SNi1VhbJjvxLYyYIWqiimDgoAUSQqIRAfcIEofEQhMp9sue458QnCFqvCKJgVSDMUFqyJc+P4RKE5I1i8P1i/U+ZhKSaYAYXWjFSmByYJNS17jQ6gjBiURWcnuyB0S7I2n3NrDJGtbdiQAtKRVz/hdSEb0pc2HzAjY/Xu7F7jUWcpbCvxNcJSmtp4yMIqkogohI8/yv2U4H8xuroznonCDKQlw2kpAI7K9SGchSDioPZPgiVe2W4hOiYPARBG7oWu0oSaHKyU8IlixK2gtDQCQIl56BMjCM7WpGlT2td/9N4QrWgUREESoMwf7MDczcZO/65iUXCSXkWdMu04JSCxDJmUVjk4m1ujHjTib2bLcLRTrNJNl4FwUMKKCJBOB56pV+CJ9kIAmXWG9RLRlYa8P5KdUfEBMF8gtC3hYTNxRLWlKjoJrqJIdDKokXV0GmREoVIZqgOjaF8EBo8QfCAdVpLGy5uJyMvpbY5JqFW6npqTKMiCITxDpF2uarmSONIcW9mlzGirRV9m6mDKtHKllLgwY8VzFvsrjnPvbESBDGtk1IgAld8iYHWb8lIEChH/9j+FgzoIuHp39z4cQOlBVeLSnY81m9fb0GPbdx7PLhe9tLs5T7TpIi/945w31hzr3Kht7Q3HCdFYOLhFvy50Y3PV3kiWxLcB6EugqD9pkY+UIikIg6EqjkaWtfPwkmxAfogqB+If2i7JMLPj25uwRG5MlISa79X78tLoyQI5IegxQtH0gPZNhmjO1gwID+G4QmRNMjv2s2lCh78RMF7f6qJVbzFd6LX/t5QTQzCxUSoBZ6zqOqIAk1KgpAKjD3Ggmv7S3hpkYLpv3hjMZkgCA/BWu6B6ueg89v3OzPDl2BJOLW9jMsOsuD7IjdeWehGyd7kMzGohDHw2SDWVPJTUOmgPVPN0Kih0xCjGGrmwloEQf2lU4aM4/Mt+F8rGemWxNv4GVgWDN3a6AjCHoeCO1c4sGpfgAD3IFDSZ0TkgPwNTilQxbdEK1t2A9M+cmHeYrV1jZIgkK8hORsSMSAzQjBvcz11SkITg4UIQn8LJvWX8E8x8NRvbny/Xh//zgqCPyeMhCCQffrOo60Y3FHChjIFD37nxk/rVZUmkaMYwlEQal8jCTWBoh/sIkxSPXIl0RWEujMp6lQv/9wIQQgC+RU1s0sYWCDhwrYWZFDyBC6NI9Wyvp8dbmBBqRP3rQqdO0C7r6lNxpj2NgxIMH8DrX2bhVnBjXmL1WmxsRAE4TimKCLbIRXhb0FOGF6JJCSVS0YF4YiOEiacIOPIturx3C/+qWD6TyoIrCAYVxBObmPFyN4yOmerrom3f+HG+ysaKkHwpimmI6YlWhc9ZMFiUZ2bKdWzfzI2dQPi/bt/tACd6ZJIeRBCKQia43GaBRhaaBFhkE3YebHxEQQaKDuq3Lh0YVXI/IMWSUKbVDWMMdGcEbUBT8rBAx8peG+x17bW0AmCyJYtIhEoKoHyGGix3X4nTDZEBUECRh4p44YBMmyUjx/Ago3A7AVu/LWN/E7YB8GIiYHWx1uPtGJwJxmq0qzgtkZCELyLKEBkQZaBlEwFsNW20TVUgkAYkBP6pe1lDC60gJLfNebS6EwMKkGgfAh1J0yi8NhumRLOa2XHkbmJKTcROXjwIzfm/ek9UrdBKwg604EWrqifulRi1LAVhC75Eq46XsbpvbwTV3k18PxCN55dyATBaJhju0zgur5WHNXK+83f9ZUb7/3jFuHRDc/E4H/Qke9yKFQFYXZQkJKphkqqSlX9KgixMDFob049X5AKjOtsQ79mcqPOutgoCUK5U8FLRU58SNkHAxS7LOHQbBlntbTg0GzPNi3BaKTwOfhQwXyPcqDP89OgFAQiBW4yJXh8CzxCSSC/w8ZAEM47TMb1AyTkpvvubF5c5MajPzNBMEoQRvS04IIeMpqnefH9tQh4/BcXlharZoZEzaQYaIoKdXiYtqEIdI6BVp/ICUm5FOjMB0+mRivtoHSmh4ZiYqB3JoJAhIiy4t7W04bcRnwaZKMkCLTGFJW7Me6vqlrfVIos4fBsK85vI6NHZuIqB9M+VJUD2TOPNTSCQDOxsBwIguCJRgih9jUGgjDmGBk3nlJ7XK4ogQh5/G69m8Mco4xioPGjOif64utyK7jjSzc+WOUWY7LREQSJiJE4W1rwCGuaGxYK5CJVIYPCJWsflJSsPgh6gkCvfGqBBWM6WpHZSP0RGiVBoEFQUqVguF/aZZskoWcmRSvY0S0rwSQDT3P2lAMv/wQ8+KnLs5tRf0h+gqASAiIDHtOvekZCBCbAhkwQaGY+pr2Ma06QcXi7wGOTVAQKedTEX79TkzgPQogwx/9rIWNcHwt6NfcfdAoWFAGzfnVjyXZ3oyYIqn1BzbFCLrJ2yqtAZgdZgl1ngog1QYi1iYHarw0XOpl3dEcrMhIzuj2mC1WjJQh0LsNVf1ejjMIayHFXktAuTcLYjjb0yU5M5YDa+e82YOQzbmzYpcp+Sa8giNBENSRR5C2IkBTov46GTBC6t5Ax/jgZp/UMzpiYIBhLtTzpcCvO6iIjNcBCQGPz+7UKZv/mwqodQYgr+SjU42FNMTMx6BQEPUEQ5z6Jon6/FC4pyQpkO2BtQv8s1Th66q704a0iE4P/kA4zklzvbySqCHLcsw8udYQ5atdpJgZvuyScViB7SEIEO5aYLt3xqbzREoRKF/BZsRNPr3OIcZBrlzGhky1hHRJpOGzdDdz/gRvz//Skfk1SgqAmMKL/8kwvGkEw+O01RIJAc14unT53hIzh/WQ0Sws+MfxTrODZ31Uzg4DWB0/tlEHOpKiuJb4JhAgvMi8M8TMv6NGudgE/rlMxXrkjQAKiRksQ9CipTo10YBTtXlLS6cAo70mxaryRtyQHQVA50NCWFlzewYaMxHRLiwljaLQEgdAsEeGO1WhqkzCugxUn5SduzxM5uO8DN973kAPB25OIIAh3AjIfeHiB+GfNluBh/+LYCAOlwREECWiZLeH0g2Wc20dCp9y6ARI5ERa5MfMX1fzEBEG3EKlbzJo/1HbeU3DHUTYM6VS3ekgk4fciUhLcWF7sRxKYIHgBl9U8CNZUwGKjf1JgbyJBtlNWV6+LcdIQBADkhvBc3xQUpjaecxsaOUFQMP4vB8Z1tOLk/MQ1K5TsBWZ9ruCFn8gBzVsSmiB4Fn9hMvAcGCX+Wb97YILgQaN2Ihr64egOFpzfV0Kf1kCb7PDYk0ia9LMnOocVBB0hqJsgHN9awhW9reiaExpnEr9+26jg8V/dWEYkQStMEPwIgu/3bksF6KAxIgu2dIDOFKFcC7VKwpkYvC2kZHlXdbQho5E4LTZqgkCnO/6yy40BCUwOaGiu2AKcPdONfZW+wX2JSBDESdoePwIRNa4RBH1+As/3xgpCzcrik6mOstkd01HGhOMsOKyt188kHHHlxUUKZvziZAXBD6xQqZZv6mfF/7pEFvO+YKOC95Yo+G2Tgj10vIvibqQ+CAFGplAQgpcasiCpCoONjqPWiEECEwRq2qkFMsZ2sKEJhXo28NKoCUIy9K0wLbzvxnt/KfA6Baktr2+CUGMvEHMjyYiyeo4ghSWKDZsIjgpamCD4EgTyDO/UXMJJ3SWc0l3CYa0jn4BWlihYuk0BLV7frNemaE+mSU/ouohy8JuEG+tpjse3tqBPvoRjWslo1zTyGWH1Dgh/hNf/VrC8WA3BEdksRVKlAEtkwLPFVf8Qrfifr0Spjv0JTrgtNSUPQkgnxcgJQs27SpI4XZJMEeIdJSC1KR1NrT+NNvDbxs9J0f/5Cqb2sKNfjqXBJ1FighDul1YP123fQ5kSFbz1B+1MkCAEQS+pekCpUci9s5yYHJkg1Bo12rqs5X73UD1IVgX9O8i4pJ+MQ1pLyGtibMAJorAd2LIX+GmDG2tK1UVGW3waL0FQx+/gjhYclCeJ/3TKlgxN9FTjgiIFy7Yo+Gy1grV7FCYIIRQEPUHwN5vSoVHiTAgQWXCLUyf9SzzDHAN9ib0yZUztZRP+aw25MEFI4N5dvhkY8rALFIlZnwRBUwMUfbIF4Z8V/ONgghBk1+NxldMIAtlgj+ko4dSeQLcWEg5rZe6Es6sC4sTH7fsU/LrRjW/X0+KlnejlbWNjUBB65Eg4qpWEvHQZh7eQ0T4KxaCu6aK8Cli0RcGijQq+XefGJnFEtJ+KwAqCD4RqPgW/ojNHaidNas6MqU1V8qAesqZ3doxlmGPgXh+Ub8GYTpQfwdxvNpGWJCYIidQburZs3QPcO5+iFlR3/3gSBI8grWYx1Mcl1ZrrmCDU3tkECH/TXaQpCHlZEo7vIuGQVhK6t5BwaOvYD0RSFcipzuWW8MtGN34s8hwR7c296Ev6aqRttW1qIIBvn/u7V8r+qhFlNfTc4rVq6GLfa50U6Cu365UWcm4T51f6LSqeLNyijf6pllMsEk5tL6FnnozWmUD3XAlNU2I7oe/cB5FQaUMp8Mm/CtaUeqJKNPxqr4iN2sQQmCDoJhvqbzEPSeJIam0IWtLcwtmRciML82vM8iAE/jZprL3cz4781NiOp9jPDMGfwAShPtEP8uwqB/DNcmDUC86aDyMeBIFyE2heA8JOXRMr5/0o9U32z7+u/40VBN/OVTc7Co7uIGPwQTKy0oFeLSW0z4n/AKS0EytKFPEft6LglyLghw0e+7l+P5eEBIHGbZtMCce1ldE2S4JVltCnAOKf41sUHKiWsGgLsG2fG4uK3PhtM7CbnBlrOew2bh+EsAiCf+dRmgVKyCRyLKjk1ZoGQRh8/Dn8SUNUiZICjxya/07JkzGuAasITBDiO2uE9bSincANryj4Za3Ls3WLjYKgJwDehgWaSJkg+JCfADsV7Xe9U5iG5BHtJAzupS5WXQukoKmSwxocpl5EBIHIAkDqApVt+4AfN7ixutTjZKp3nkswBaFmjykBA9tbcGgLcpMFctKAXnky8mh3mSBldYmC/3YBuyoU/LLBjSXFCsodnsZ5si/WjCE/EaqhOylGRRAC9KtKGHQEQVaQ1lSBbNHFUppMEIj0X9XBhkGFFqQkbqR81F8BE4SooYvNjaX7gae/duPxb9zejUbUJgZtChV6gK811JOwSP1FZeDBFQEmCGERBI+8brMAR7UnvwJZ7GY65QGHt5UCx3zHZhhFXWtphaoubN+vxqs73Ap+2KDg182qtlTr1D6fAE0KVfOLXDHJxKCaN9TogMIMCSe0k9FelxvikHwJHZslfgKbaiewqkTBht0K9lcDq0uAnzYpKK7wfmONLYrBLIJQa9DLUMMnZUrjrgjzkzXdJU6l9Hd80JuyaqdaDq4g0C+t0iTM6N0wHRaZIEQ9lcbmxtXbgPNnubBtvy6sMRKC4OEE6mRObVSX/8CpeHx1AyYI4fVpzWTikYrpHI+DC4EB3SWRFpniubsUAIdSmGK8le3wXiHsq+gkw39KgP92qQNLe52yKjJLKFharPkYkPOjJpXr7cfh+SDoTVuaQJOXBhzb1oIuuVpOf5XOZqeSQiChoElyg+t0A9v2ACt3KiA81xYDO/YpWLpTQfEB1d+CKA8rCNETP18fFtUkQSqDeqKZmrdCtkhQnR9VE2ukBIF2cqcXWDGqgxXpiZuMN+xvXn8hE4SoYIvNTRTW+MAHbry9kCZVX4LgZxpWG+BZf/yjrbV/1w5yokv1AQiBWs8KQug+1Zzt2jWT0b8j0L65goxUIgQSWjcDereSkJEaup6GcEWFQ1UaNpZpR2qoi5la9CNS1cvdinoYF02+ZIYhMqpFx6i3eD0ZtVoy7UCP5hIKM1XS1dALff97DwAb9irY6wA27lRADo/byxX8V+YWf9OOXA4Xi2TIgxAzBYEoll/lNI48I8+jqUriUCm756ApbRSrURJACpkorCp9FX/TO/TWmBoV0EnA5LCYY29YA5UJQrhfWhyuW7FFwaAHXah2UdID8sz19eT1YXYh2qNPosQEIThY2kRQ81kL04u6gBVmAgcXymieCbTMkdBM5CaQ0LwJ0K0AyM9SkNrA46CND3tVwSJfBw+n9YSnNayJ1DhOtWvYsU8lDGWVwLZyBRUuBetLFJSWS3C5JBTtd2PDPjeqaL7wGBHVf/Ji25gJAn3DftndBdHUCEJdfUYbKrpfnFBpCSwEiohVmc6YUH0fBrawiLT9DUlFYIIQiy87yjp3lwOf/q2PK6RsYhRNIIFsl7TDWLZJwdIiBaUkQXoYrFjkaGHz/K+2IWMFoW5pMt0OcQBSh1xyIFTQJFVCqxwJTdPU3QP9L52BkJkG5GQAGSRNcmEE6gkBmhlKyhTsr1QJ144DCnZUKmJDsbVUAZ3Z4vT4NdNptct2KSitVqNTtKLukH01R9W/IzhhU2KcSbG+FAR9N6pzp1fV8npvqX/rmCHhxPYWsTmguUKDiwiYNUVSz5iQgBPz5QblrMgEoZ4+9nAe6/UekMSHTwRi4y5g006golrbknk/L3G9onqmH3Co9s3SfQpcijpx7K2UsH6Hgg2lgWP1taQlanoXNaGOJFKaJYaTond35Gmfd09aI2tnpEjo2FxC22b0IQPCgZk+fAlC/m+dA2R50rrarUB+BpAvJGxVDSAikM5EIJzhydckBAKK2ECUlgN7KwCXJ805+Tds3Keg3El5LykuBQ0AACAASURBVCDIw/YyiI2G+J49rIF+2+tQsKlCJRxOHXegf6T8AmTuFCK7x+dGU9j8U7/7wBFlJkX1k/bzmAqUTElnyNITDLWl9L1T7gQFblk1C2RZJLRKl5CXApDoR/NCYTaQ3xSwWz1o1OEylJcqCb+XTDqdshGJX0wQEuIjN7cR5LFb7ZQEodhfSfZfCJJQWQ2U7AMoUsJrOdZtMMgu7Favr3a5xYSzu1wSMqferlyzB/HV5T2OP5pDpPaRB/uaPKl/hSAa+MvUbNTqvCS8JMT/kzLSJEVB8wwFzTLIS1lWIwQUIMUmiUU/V3gvew6A8YgyKTYgNwNI87B9c1Hn2hiBxESAvmf6lvdUeBSGmlSa6rd+wKlgVxVEVIWLFlU3UOWUUFqhYMcemgu88qQ+RkUzbGgziMel0usc5Tm3LTAqXiaiftm6eUKiCC7VRRM1YYme75+OjbZKyE6X0DTdBdoQWCwSLGqmpJpoLa0+TVVNs0hoZpeQaVPEAk+7/WbpQNN0wGpRr9bIRWL2Yv20iglC/eCesE8ltwf61EhxOFCtEgxSI3wIgmdHrhcua2IlNZlO/Kg3l/i/ss4rvg5509fhTZ1EiCCkWIHMVDILqLbCxuDElrCDhhvWoBAg0kDfP6WOLiNSQQexiW8+0Pdc1zeuJVsLDY9q5tCu8zyv5m/6ZyhiQSfzYLqdVD81jJEUQC9RSfrgodCAxekKJghxApofwwgwAowAI8AIJBMCTBCSqbe4rYwAI8AIMAKMQJwQYIIQJ6D5MYwAI8AIMAKMQDIhwAQhmXqL28oIMAKMACPACMQJASYIcQKaH8MIMAKMACPACCQTAkwQkqm3uK2MACPACDACjECcEGCCECeg+TGMACPACDACjEAyIcAEIZl6i9vKCDACjAAjwAjECQEmCHECmh/DCDACjAAjwAgkEwJMEJKpt7itjAAjwAgwAoxAnBBgghAnoPkxjAAjwAgwAoxAMiHABCGZeovbyggwAowAI8AIxAkBJghxApofwwgwAowAI8AIJBMCTBCSqbe4rYwAI8AIMAKMQJwQYIIQJ6D5MYwAI8AIMAKMQDIhwAQhmXqL28oIMAKMACPACMQJASYIcQKaH8MIMAKMACPACCQTAkwQkqm3uK2MACPACDACjECcEGCCECeg+TGMACPACDACjEAyIcAEIZl6i9vKCDACjAAjwAjECQEmCHECmh/DCDACjAAjwAgkEwJMEJKpt7itjAAjwAgwAoxAnBBgghAnoPkxjAAjwAgwAoxAMiHABCGZeovbyggwAowAI8AIxAkBJghxApofwwgwAowAI8AIJBMCTBCSqbe4rYwAI8AIMAKMQJwQYIIQJ6D5MYwAI8AIMAKMQDIhwAQhmXqL28oIMAKMACPACMQJASYIcQKaH8MIMAKMACPACCQTAkwQkqm3uK2MACPACDACjECcEGCCECeg+TGMACPACDACjEAyIcAEIZl6i9vKCDACjAAjwAjECQEmCHECmh/DCDACjAAjwAgkEwJMEJKpt7itjAAjwAgwAoxAnBBgghAnoPkxjAAjwAgwAoxAMiHABCGZeovbyggwAowAI8AIxAkBJghxApofwwgwAowAI8AIJBMCTBCSqbe4rYwAI8AIMAKMQJwQYIIQJ6D5MYwAI8AIMAKMQDIhwAQhmXrLxLbu21+On39biO9/WoDyigNwuRXIEpBit6Fd29YYMvAkdO7YHgoUSJBMfHKiVKUAkLBx81Z88c0PWPnfWpRXlENxAykpKWhZmI+Tjjsa/3d4n0RpcBK0gzClImHtho34+ruf8e/qtaiqroZbob8qSE1NQY+unTHghP7o0K4NAO89SfCC9d5EDa1PPv8aCxb+hbK9+wS+FllGWloqOrZvi7OHDkKrwhYebBvit1vv3dBoGsAEoRF09a7de/DRZ1/hx1//qJmPqx0ObN66DRs3bYHD4YRbTOuAxSKjaVYmOrVvh2bZTbX5Xkzq140fLX5PzqJg+Yr/8Orb81GyY6fnbYG9+/ZjXdEmlJbuRrXTIfCxWCzIyGiCdq1boWWLfBUYSDj6//pixIVnw2azJicEMWr1B59+hU++/BZOpxOKZwXbU7YXGzZuRunuPXC5XIIGqOPLgtycZmjftjWyszJrxpfdZsMF5wzFif2PilErk7VaBU8+9wr+WvIP3G63SqckYO26Ddi6rRiVVdVwud2C3FutVmQ3zULXTh2RmdHE88IK8ps3x+jLLkKnDu2SFQRudz0h0CAJAk1O191yjyFI8/Jy8eDUyYbq8L9589btuOO+Rw3V2b5dG9xx0zUh66g4cAA/LViEt+Z9iAOVlVizvgibtmzzbthC1qC7QAJym2Wj32GHwGa14tDePXHVFcMjqaHert26vRgff/Y1fvvzb+zYWYoVq/4Tioln1Q+vXZ5NGO3KDu7RFTa7HSf2PxLDzjujzvu//fFXvPrW/PCeEeSqgScfhwvPHmqojljc/N5Hn+HjL74VVa9euwFrNxTBTTKBtsWN5KESxA6YSGjb1i1F1ww79wyhMiRSmTP3DSz4Y3HUTbryikvR79DeIe8nCJ+c8zL+WrIciqJg8dLlKC7ZWUO+Qlbg8+kqSE9PQ++DegrCf8PVo9Gze5dIqjDt2rsfmoUNRZsM1Xf3rdejdUtSR8wr02Y8hTXrN8Dtom1SdGX6/bcLctbQSoMkCNtLdqBP/8GG+qp921b47ev3DdXhf/PK/9bgxNMvMlRnn4N74vN5c4PWQSRg9vOvYvOWrYIQrPpvraHn+d8syxLy83Jx7FFHiEXy7P+dZmr9ZlX235p1eGPeR1i+4l+sXV+ErcUl0S1e/g2SAFmS0KZ1SxzcoxtOOu4oD1GoLeW+9Pq7mDz1QUOvNO7yYZg6ZZKhOsy6ef2GTZj/yRdY9s8q/Ld2PdZt2KjygWhIQR2NkiQIstCubSucf9YQnHLisbBa6l+1mXDjnXjng0+jhnPOrAcwdNCAOu+f9cxLWLxkOf5a+o9QujRFJuqH6m+UIAhK89xs3DhhXNyJwqBzRuDvZSsMvcp3H78hxoaZ5axLxmLh4iVwOl1RV/v3z5+iRX5e1Pcn6o1MEIL0TLIRhP37y/HNj7/glTfn469lK1BeUWH6xK2Hym63om2rljhr6CBcf/XohBrfvy36Cw9Mn41Vq9eirGxfzNpGZIl2vGMuuwjDLzxHSLz60lAIwp49ZZj/8Rf46PNvsHrdBqHExKVICrp36YR2bVrj0gvOqndFIZYE4fFn52LxkmWCHBSX7IoxvAqOOLwPxl8xHP2P6ocm6Wkxfp5afcIShIvHYOFfS5kgBBgFTBAaAEFYu64IdzwwHRs3b8HqtUVx+di1h+TlNsPll5yP68ZfEdfnBnrYor+W4JmXXsfGzduwZNnKuLWHJM/eB3UXCxhJ41ppCARh/sdf4u35H2PNuvXYtGV73DD1f1DPbp3RoX07XHz+mTjp2CPrpR2xIAhffPMjvvz2R3zzwy/YXkK+MXEqEgT5Ou6ofhg94iKhiMW6MEGINcLm188EIYkJAjmFLV3+L+5+aCZ+W/S3+aMjzBqbN8/B5cPOx/VXjwrzDvMv+33RX7hz2gwsXb5KtYXHuZCaQJPsVaOGY/hFZwuHvGQmCCv+XY33P/kSn375Hdasiy/pDNZ1kiwJefmW68djwPHHxLmHAbMJwhPPzsW7H36KDRu3oLKyKu7vQw9smpWBK0deiksuOAvNc5vFtA1MEGIKb0wqZ4KQpASBHB4ff/YlsSCSvbK+S/PcHFx+MZGEkZE5AJrQ8D/+/Bt33D8dfy9fGVOzSjhNJZJw9ejhGHHROclJEBQIP4MXXn1bEIPdZWX1jmkgNeGGCWOEb0I8I0rMJAhEDua8/KZwPqzvQgrYs49Nw2GH9IppU5ggxBTemFTOBCEJCcLTM+7Drfc8JFSD8nLyyE+M0qtHV9xz63U4+ojD49ag34kc3DcdS/6pf3KgvXTb1oW4esxlUNxu3JxkTorvf/wFHnl8joh6SeTStXMHXHzeGThj8EC0KIiPc5gZBOH0QQPwxJyX8NxcIgex9jUIvwf7HXYwHrr7FtMdAPUtSFiCwE6KQQcKE4RkIghauOGhvfH1Dz/D6Yw+LCf8qSP8K9PTU3H26YPwyL23hn+TgSv/WPQ3br9/OpaQcpBIRQLatipERpMmWPHvGkMti2cUAykHRA4o6sPsyARDIAS5uVVhgchLcf7ZQ+NCEswgCBs2bfaQA28ujlhgE3mdCi6/+DxMGHsZWrYoiPz2MO5gghAGSAl2CROEZCIIAMjWTbkIqqodCTaU1Oa0a9MKk64ahQvPiW3s/h9/LsHt9z2CJctXJSQOZjUqXgTh/U++wMOznsXa9RvNanpc6mlVmI8p140XSkKszQ1GCcIhB3UHhWCrZoXEy3CYm5ONubMfRd/DQudqiKZzE5YgcBQDKwiRDuhEDXOM9D3ifT1N0kMGnoCnZzwQs0dTelkK57z30ceTYqdrBIh4EIQPiBw8/izWrEsucqDhSuaG22+8BqecGNvESkYJgpFxEK97H7v/dgwdcgrS08wPfUxYgsAmBiYIkX5gTBAiRUy7XsGAE47Bq88+Fm0FIe/7ecFC3HjH/VhftDnktcl+QawJwoeffoWHH39G5DeAkni72nD7r0fXTrjtxgk4OYbRDY2BIHTr0gFPPHwPDu7ZLVzow76OCULYUCXMhWxiSDITQ8KMnDoaktc8ByMvOQ+TrjI/N8Ifi5fg9nsfxZLllJEteRe0cPsxlgSBMvVNf/I5zH1jnrkZ+zwvRxkRAxXKDqj9ZmamQHKSvf3GCTihf2zyJDQGgkD9Mu+Vp2PiaMwEIdyvPnGuY4LABMH00UiTDKkIrzwz0/S6KZvfmGsnx2RBM72xJlQYK4JAmSLeeOd94XewrXiHCS0lvqbg5OOOxhmDT0VOMzroKxiBU49ucjiq8ca7H+Cr734WZ4YaLZIk4aG7JuPSC882WlXA+xsDQaBueI8JQsTjh1MtRwxZ/d3QkM9iCBdV8gXo3as7xo28BGmpKT63VTuc+PPvZZg95+WYOauffPzReG2OuWYGUg9uu+dhLP3n33BhiOq6Xj26YNg5Z4izAPTF6XKB0ji/9d7H2LNnr/iJDtOJZYkVQaAkSA8/9ow4ZMmoEkOE8Lwzh2DoaSejTctCcYwzHZkdqtDphKvXqhkaX3v7fXz+zfceTEPdGfz3Hl074vYbr8VJxx8dfSVB7ownQbjwnNNxQv+jkNEk3ac1hBllX/z8mx+wq7TM/IMwAIwZcSGuuuJStCjINxXDhFUQ2EkxaD+zghAEmmT0QaAjXind77lnDBbRDuSV3LN7V1gtllqTTMnOUvyz8l+4FQUrVv6HaTOfMnVXHguC8PEX3+CKCeaesKkB0//IvuJIXMIqp1k2OndsrzsyV72KsCop2SlOfquqcmDHrl3ifIJvvv/F1IlUX1ksCAItMjNmPy/UAyOFiEF2dlOcd+ZgjLz4fHGEc7SFiAIdD/3K2+/jy29+jLYasWBOvOoKcT5GjnZcuYHa9LfGiiAQjgq1e9wo9PNEEND4a1lYICKW9IUIKR3CtmnzVnHU82NPv4g//14Kl4GTCP3hofTpLz31KA7vc7BJyKnVMEEwFc64VMYEoQEQhKzMJhh40nE4/6zTxVGoHdu3DXvw0ISze08Z3pr/MR567GkcOGBOylciCK/OmQnJBOmYXmbZilW495En8MPPv4f9bqEupIn5mCP7YsyIYWjVsgA9u3UBydThlgOVVSjatBnr1m/El9/9KJQFswWFWBAESob08CxSD6I/epdQGnhSfzHmDj3kYLRsYXy3SWNx9Zp1eGDGU2KHHC2Wbdu0xF1TJuG0ASeE25VhXRcLgkDDbeKVo9D30INxcK/uyG+eG1ZbtIuWrfgXJTt3if4UJyWaIWhJCt575RnT/RCYIETUtQlxMROEJCcInTu2wwN33ITWrVqiQ7vod3AUOkgkYdr02ag4UGl4cB57dD88N+tBNM3KNFwXVfDZ199j3KRbUVVVbUp9VMmxRx+BuyZPQo9unSIiBv4NcLlcoNTXz738pkhRTDv0aBc3/7rNJgiVVVWY8eTzmPX0i4bWkuOPOUIk1TnisENgt9tN6xOqiNSE+x59UpCEqBopAbfdcDVGXnK+qeF6ZhIEIgannnw8hgw8UZgSyLHXSCGn3ZvveEAkDTPuz6HgvVeZIETSH+yDEAla9XxtY/FBIHIw84E70PdQcxKb7CnbizfnfYip04z7DlBSmAfuvBmHHXKQKaPhk8+/wahrzDEv0OR87FH9MHXKJKEamFW2bi8W52J89tX3mPfhZ6aQBLMJArWLlKKiTVujfm2b1YJrxl2Oq8eMQFpqatT11HXjf2vW4f7pTwp7ezRkq2P7Nrhz8kScetJxprXPTIIw8aqROGfoIHHAV2oY/hrhvMSnX3yLB2bMxmoTDtd671XzIxlYQQinFxPrGlYQklBBsFhksbBNm3qz6XbC0t178Mqb7wmZ10jp2b2L2J2TkmC00K7o7gcfwy+//2m0KnE/kYO7b7kOPbp1NqU+fSVOp0uYHZ558XW8/OZ7hus3myDMfOp5TJvxtKF2XXTOUEwafwXaxviI4DsfmI45c9+M+nTOh++eYmpEgxkEQSJfgytHYuSlFyAvQnNCqE4rr6jAyPE34odf/4hOedE9gAlCKLR9f2cFITK86vXqhq4gkHLwxMN3o8/BPWOC808L/sB5I8YbqlsQhCmTxGJstHz+9fcYM3EKqqudRqtC/6P64q5brkMvE5UD/0aRLX3pPysx/cnnxQ7YSDGTIHzw6ZfCVm0kY+IZQ07B9VePRtdOHYy8Vlj3rlm3QfidfP71D2Fd738Rjb2bJ44zTWEzShAkiRwRY0MOtHd/5sXX8PSLr2HbdmOhq42KIHAmxaDfFysIyaQgSECnDu3w2IN3oW8Mj2b9+bdFOHf4lVFNytpNRBCmTp6E40xQED754luMmnCzofbQzb17dsNNE8eJSI9YF/KVeP6Vt3D3Q7MMPcpMgjDzqRfwoIFoFTLN3DBhLEget8iyofcK92Yydz338hsgZSbSQuG90+6ajAvOOj3SWwNeb5QgjB5xEcaNvBh0yFSsSsmOXRg7aQoW/PGXoUcwQYgMPlYQIsOrXq9uyApCn9498fm7c2OK7+Yt2zB99vN4/Z0Pon6OmSYGMwgCLW5DBw3AjAduR5N039jyqF8yxI0vvf4uJifQcc8zZz+PaTOjNy/0ObgHbrxmbEzTGftDSodH3ffIE/j0q++i6qZH7p2CS84/y3CuB3q4UYLw1PR7ccbgUyDHmFwNu+IafPvTAkNmBiYIkQ03JgiR4VWvVzdognBwT3w+L7YEweF04uvvf8blV90YdT+apSBs2VaMZ154Dc/OfSPqttCN3bt0FKdMnjFkoKF6Irk5kQjCTwsWCvMCnYIZbbly1CUCw6zMjGiriOq+2+59BM+9/FZU91477jKMuWwYcnOaRXW//iajBGHOrAcESY11EQThxwWGHsMEITL4mCBEhle9Xs0EwTj8dCDSuSOuiroiswjC9z8vwLWT70Jxya6o20I3nn7qiZh+3+3IMinsMpzGJBJBePqF10QyrMrK6PJckAJz88QrhYNdvAsRBDLXRBPN0LplAe6+5XoMHnii4WYnC0G46Ipr8B0ThLD7+yz2QQiKFfsgBIEmUTMpkmNirBUEguTn3xbi3OH1TxA++ZL8D24yfNLguWecJhw741kSiSBQxr1pM2ZHtchqmE2eVD8EgXJLPDFnLrZuK4mq+x655xZccgGZGYwVJgjG8EvYMEcmCEwQIh3aTBCMOSqa5YNABOGKCTdBMXAUcUF+LshB7OrRIyIdBoauTyyC8IIauhplpr0undoLDCm5VLzLilWr8fQLr2Lh4qVRPZoJQuSwsYkhMszYxBAZXvV6NZsYjMNvNJLBLBODGQrCKSf2x0N3T0GhyYfPhEI5oQjCUx6CEKrRQX6ndN6FLfLj5uCpbwZFhJAvCiXyiqYwQYgctUZFEPiwJlYQIv1EWEFIEAXBhBDHc/43CE8+ck+kQ8Dw9YlCEIo2bcH0J58TZ0U0xvLwPbfgUjYxRNT1TBAiggusIESGV71ezQqCcfjNUBDMSJRkRohjYycIdI4FRTCsWLXG+MBIwhrGXHYhrhx1qWEFiX0QjHV+wvogsILACkKkQ5sVBOMKghmJkpggDBNnRhgpZL9XIxjMO+jKSHvife/hhx6EW6+/2vDphEwQjPVcwhIEdlJkghDp0GaCwAQh0jHjf32imBgee+oFNYLBpKO3jeIS7/ubpKfiwalTcO6Zgw09mgmCIfiQsASBFQQmCJEObSYIxgmCGYc1sYJgXEEggmD08K1Iv59Eup5yODxyz624+PwzDTWLCYIh+JggGIOvXu7mPAhBYGeCYAJBMOGwJiYIJhAEE3Ig1MvsZNZDJeBRJggRodmonBTZxMAKQkRfBwAmCMYJAvsgJMZZDI89bSwHQqTfTiJe/+i9rCBE0i9MECJBCxzFEBlc9Xs1RzEYx9+UKIbJk3CswdMcWUEwriC88vZ8PDjzaezcWWp8YCRpDUwQIus4JgiR4cVhjpHhVa9XM0EwDr8ZBMEUBUFkUrzZUIrgQ3v3wq3Xj0f/o/oZByaCGhLFSZH68pHHn8VvC40dARzBqyfcpUwQIusSJgiR4cUEITK86vVqJgjG4U8kgjBqws1RpwgmJNLTUjHsvDNw7203GAcmghoShSDs21+OGbOfx+znXomg9X6XSp5/jzJVc/QPNn4nOylGjmGjIggcxRB0gLCTYhBo2AchcXwQxFkMBkL0aIE453+N+7CmmSLU8anIVwrtDknBsHPPwHlnDIm+jvq6UwI6tW+L/LzmhlrAUQyG4EvcKAZ2UmSCEOnQZoJgnCCYEeb4x59/45a7H8Lylasj7UKf6089+ThxHkOBwUUikkYkioJAbTZ+mqMC9TTHUZFA0KCuZYJgrDsTNg8CEwQmCJEObSYIxgmCGT4I+8srxBkCt97zcKRd6HN9s+wsXDbsPNw8cZyheiK5ObEIgvFIhsmTxjFB+ODTSIaAz7VzZj2AoYMGRH1/uDdedMU1+O7HBeFeHvA6NjFEBh/7IESGV71ezT4IxuE3wwfBDAWB3sSMSAaq53+nDcDMB+5AenqacYDCqCGxCMKLajZFAz4Ebdu0xE3XjMW5ZxjLSBgGdAl5CSsIxrqFFQRj+NXH3eyDEAR1VhCMKwhmHNYkCIKIZLgJiqJ5ykX3qeQ0a4qRl16AG64eHV0FEdxVWVmF5155C/c+/HgEd9W+dNzlxsMcqdaNW7Zi+hNz8Oa86E90lCQFkydeiWsbqZmBCYKhoZy4PgjspBi0Y5kgMEEIiIAZCoIZJgaNIIyacBNgkCBQXc1zm2HUpRdg0lWxtaV//MW3uGvaTGzass3QrGoWQVAUBeSoSPkQoi8Kjj/mSNwwYQz6HdY7+mqS9E4mCMY6jhUEY/jVx91MEJggJDxBKN29ByTXP/TYM6Z8I4Ut8kAL79jLLzGlPn0lDocTn3z5HR6cORvrN242FJ5J9ZpFEKiumU89j2kzjBAEoEmTNKEijB5xkenYJXqFTBCM9VDCEgRWEFhBiHRos4nBBBODCZkUtX77+PNvMfpaYwmTtLpkWUJ+Xi5GXnIerhl7OWAghFI/rr7/6Tc89cJrWF+0UUj6MGDv1+o1kyCsXV+E6U8+h3kffh7p5+C9XlLQpmUhbrp2HM47MwlDHqN/czBBMAAewCYGY/DVy92sILCCEDMFwSwfBGogSfajrzGHIFB9lBuBzA3kk0Che0a8G9xuNz77+nvc/8iTKNq0BU6Xy7SP2UyC4HK7MXP283h41rOG29f7oB7CYXHACccYrivSCuZ//IUIVz36/w6P9FZD1zNBMARf4hIEDnNkBSHSoc0KgnEFwSwfBOq70j1lePnN9zBt+uxIu7LO64kkdGjXBicf3x/XXnl5RESBQjA/+vxrvP7O+yjZsQtFm7aa2jaqzEyCQPW9/s4HeOixp7G9ZKehttrtVpxy4rGYMPYy9Dmop6G6Irn5mRdfE86fqXY7plw3HoMHnhjJ7YauZYJgCD4mCMbgq5e7WUFgBSF2CoKJJoZYqAj6F9eIQordhkEnn4ArRlwYEJd1GzbhzXkfYsHCxXA6XSjZsRNbtm83xYEy0APNJgi7SncLM8MLr75lOCokMyMdnTq0w/jRIzB00MkxncCcTieefel1PPPi6yjesUsoQFNvnigUIJvNGtNna5UzQTAGc8L6ILCCwApCpEObFYTEUhCo/3bvKcPcN9417GgXfCwokGUZec1z0KZVy4CXVRw4gG3bS7C7bK8pPgahxqXZBIGe9/b8j/HQrGewecv2UI8P+bvFIqNVYQFuvGZszHwSnnnpdXz46VfYuHkrduzcVeMz0rpVAUilOv3U2JITJgghh0FYFzBBCAumhLqIFQRWEJJGQaCGfvjZ1xhz7ZSE+ohi2ZhYEAQy15CK8NzcN01reuuWBWjVsgUuG3Yuzjp9kOF6V6/bgFfenI/FS5Zj4+YtwoRTuyho16Y17rh5IoYMPMHwM0NVwApCKITq/j1hCQJHMbCCEOnQZgXBuIJgppOi1n+kIrxCvggzZsNtQpRApOMi3tfHgiDQO2zeug2PPjEHb7z7kWmvRLI/kYSCvDzQ2RcXnj1URIuELJTeUQIW/rVM+Ej8t2YdKioOYMv2Yuzdtz+kUjNp/CiMvWwYsptmhXyUkQuYIBhBj6MYjKFXP3ezgsAKQuwUhCmTcOxR/Uwf2d//vADX3XIPtm7fYXrdiVZhrAiCljjpkcefgctlPtMin47CgnzY7XZAUkA5nrMyM5Gbkw27zQ5y8KT8FgcqK2sgL9u7D9uKS1BefiCibmhRkIu7plyHMwYPAO/j1wAAIABJREFUjOi+SC9mghApYr7Xs4JgDL/6uJsJAhOEmBEEM6MY9I3ct38/Xnv7fUyd9lh9fDNhP5N21FSMnH8QK4JA7aJIBlIRXn3rPUNtDAmIIAiA1WoVDoWyJMPlcsHhdMLlcoe8PfQFCtq0aYWpkydiyCmxi2pgghC6J+q6ggmCMfzq424mCEwQYkYQzDqsKVADd+/Zi1fenIcHpj8JJaLgxPh8ZnZaCGUZldXVISXyuloUS4JAz91WvAOPPvEMXn37/ZhFYsQFcQm4/OLzMX70cLQuLIjJI5kgGIM1YQkCRzEE7VgmCEwQYkcQYmRi0Bq8p2wv5r4xz/Aphcamvdp3k3JAYX/kQPf4s3MNVR9rgiCUhOIdeORJUhLmGyIzhl7UhJtzcrJx763X4+yhxp0kAzWHCYKxTkpYgsBOikwQIh3a7KRo3EkxViYGfV/u8SRQut/kBEqRjpea6yUFQwaeJMLvvvnhF0ye+mDUVdGN8SAIQkko2YFHHn9WmG7MSBFt6KUN3NymdUvcNWUiBsfA1MAEwUDHJHKqZVYQmCBEOrSZICQHQaB+TSQl4fRTT8LUKRPRumWhOGAqWQiCUBIESZiD196eH1ufhEg/xgiuP/n4o3HDNWNw6MG9IrgrvEuZIISHU7CrWEEwhl993M0mhiCoM0EwThBi6YPg320aSXignpSEVi0LcMHZp+Oic85Am1aFonnJRhBqSMKsZ1WfhCQrV48ejksvPAsF+XlITUkxvfVMEIxBmrAEgRUEVhAiHdpMEIwThHiYGPT9SiTh598W4Y13P8A3P/waaZdHd70EcR7ATRPGipj/nGbZNfUkI0HQSAKlNX717fnYu7c8OlzifNeEsSMw9vKL0TynWcyezATBGLRMEIzhVx93s4LACkJABGihPXf4lVGPyZ7duwg7/HFHm58Hoa5GVVVVo3jHTrz30eeYNuOpqNsf6kZyRMzKysRZp58K2rmSScG/JCtBoPfYuatUhEG++NrbeO3tD0LBUS+/Ux9cNepSDD3tZJEaOzeG5IBekAmCsW5mgmAMv/q4mwkCE4SYEYR4mhj8X4LUBMrd/9OvvwvnuwOV1eZ8XxJA5w+cPvAkXDNuJPJymyE/r3nAuokgTLnrQUP2/Hg5KQYDp7hkB5YsW4mX35yHr+OlyoToKSIGl5x/Fs4aOghdO3eIqWqgbwoTBGOfEBMEY/jVx91MEJggxIwg1IeC4P8ylJ1v05atIjHP19//godnPRvxd6YlPDr2qCNw1RWXimyAZEpoVdiizrqMKgj0XJLNKQFQfZbqageIKKxYtVoQhW9+XBD/5oikUwrGXzEc/zttIFrkN0fz3BxB1uJVmCAYQ5oJgjH86uNuJghMEGJGEOpTQQj0UnSOA51BoJWdu3bjky++wQeffiVS/4oliI4FkIC0tFQcd/T/Ydh5Z6JFfh4kSUHTrCy0bJEvMgKGU4wSBHpGfSsI+vesrlbNN6TOvPjaO3j9nQ/DgcHwNWeffirOP/t0QcxatiiIuSkhWIOZIBjryoQlCJwHIWjHNkiCQClcV/23xtBopnzx3bp0NFSH/82VVVVYvXa9oTrTUlPRuWN7Q3WEczMtmOuLNoZzacBrUlNSUdgiHxlN0qOuI9Y30jgpLd2DXaW74XK7fB5HWRCJEJDjod1mi6opL732Dibf9VBU92o3JRJB0L8IhUSKo5cV4LOvf8Br77wvyIPKsqJ7ZUlINQpaFhZg1PAL0f/IviJHZvOcHHEEd7jELLqnh75r05Zt2FNWFvrCIFe0bd0KTbMyo74/3BvXF23C/nJjzqUd27VFE5O/3TXrNvicvRHu++iv69Kpg+kRKus2bER5BZ3/EeXABdC9a2fYwtw4RPPe9XVPgyQI9QUmP5cR0BBYtXotZs5+Hu9/8lXUoNCO+erRI3DlqEuiriMeN5IyQ8cxO5yOGoJAiZcoUdSX3/6IrdtKajUju2kmjux7GE45sT+6du6ItFRvWCId8NSiIA9ZmRnxaD4/gxFgBIIgwASBhwYjEAME3pr/MW679xHs2xf9Tm7IwBMx5brx6NyxXQxaGNsqqx0OYYqgTJfkw+BfLFYLsjIykJ2dBVLFSLHhwggwAomFABOExOoPbk0DQcAM/4Mrhl8gQkWtVksDQYVfgxFgBJIJASYIydRb3NY6EVDEuY6eM5brEauPPv8Gdz4wPaC0HnazJEV1UJx8Xdi38IWMACPACJiJABMEM9HkuuoFge9//g33PvI4Tuh/JG67YUK9tEH/0JfemIfJd04z1A41xJEIwiRD9fDNjAAjwAhEiwAThGiR4/sSBgEKUxw78RY0zcrA+WcNxY3XjEVWZpN6ad9Hn3/tUQ92GHr+EYf1Fu9x7NFHGKqHb2YEGAFGIFoEmCBEixzflxAI/PDTb7j+jvuwect20Z7MzCbo1KEdhg4agPFXXBrHNiog08Id98/AtuJiQIne1EHqwYiLzsXUydciNTU1ju/Aj2IEGAFGwIsAEwQeDUmLwOIly3HXg4/h90V/+7yDLEvIzm6KYeedgduuvzoO76eSgzvvn4Gt22uH9EXTgLGXX4S7prD/QTTY8T2MACNgDgJMEMzBkWupBwQ++fI7XHX9raiqqh1GR80hk0Orli0w4PhjcEuMiMLCv5ZiztzXsWjxMtPIwdlDT8VtN04QWQO5MAKMACNQXwgwQagv5Pm5hhAgx8QbbrsPm7eqpoW6ChEFys53WO+DMH70cHRs3zbULSF//2flf3jh1bfw04KFKNm5C5VmHQYFYMxlF+HuW1g9CNkJfAEjwAjEFAEmCDGFlyuPBQJ79+3Hq2/Px90Pzoqo+ibpaSjIb46UFLtIznPaKSdg3MiLYbN6UynXFSr519J/8OxLb2DV6jU4cKASO3aWelK0RtSMOi8+6/SBQj0IdRCUeU/kmhgBRoARCIwAEwQeGUmHAKXwnTjlbrFAR1vIT6Fp0yzkN8+FegYAFf9c7L6OhhUVB8T5Awcqq6J9bJ33UTOuGH6hUA+8bYrJo7hSRoARYARCIsAEISREfEEiIfDDL78L0wIdnBO7ohGF6CMRIm2bBAXnnjEYt990DfLzmkd6O1/PCDACjIDpCDBBMB1SrjCWCFC0wJhrJ4tjmRtSGTzwBNwizl2I/UmdDQk3fhdGgBGIHQJMEGKHLddsMgI//Pwbrr/1HmwOcDqgyY+Ka3U5zZoKX4jxV4yAxcKHFsUVfH4YI8AIBEWACQIPjqRAQFEUfPwFqQdTGpR6QIcYXnD2UNxx07Volt00KfqCG8kIMAKNAwEmCI2jnxvEW+7bX4433v1AZCtsCMVmt+L8M4dg8sQrkdc8tyG8Er8DI8AINCAEmCA0oM5sDK+yn0jCvA9xx/3Txesmqy9C717dMWr4BTj5+GPQPKdZY+g6fkdGgBFIMgSYICRZh3Fzgf3l5SjatBVffPMjHnrs6aSD5Jz/DcKUSVchJ6cZ0tP4rIWk60BuMCPQSBBggtBIOrqhvSb5JFDCpLfe+0icx+B2uxNaTaAcB3Tw0vlnDcENE8YgLzenoXUJvw8jwAg0MASYIDSwDm1sr0Nqwvbinfjmh58xdZrqm6AYOEkxVviRanD9+NFomp2F3GbZsXoM18sIMAKMgGkIMEEwDUquqD4RIKJQXLITX39PRGGmhyjUY4skiJDFc/93Gq4ZezmaZmWiOasG9dgh/GhGgBGIFAEmCJEixtcnNAJCUSjZidLde/DuB5/i5Tfei3t7Bw88EZPGjxL+BU2zstgJMe49wA9kBBgBMxBggmAGilxHwiHgcrlQtncfdpfthcvlxudf/4Bpj80W/yyZlIVRO8KBToccMewcnHzcMeIMhcyMJsjNzYFcc8ZDwsHDDWIEGAFGICQCTBBCQsQXJDsCxAcoPJIOWqJ/phMWyMlxV+lu0NkOn3z5Hf5dvdbnNf3DJ9PSUnHYIQfh7KGDQCGKdDKkVuw2G7KzmyKjSXqyQ8XtZwQYAUagBgEmCDwYGi0CpDKUVxwAJWCqrq6uEwdSBtJSU5CZmYnUFDtkSoHIhRFgBBiBBowAE4QG3Ln8aowAI8AIMAKMQLQIMEGIFjm+jxFgBBgBRoARaMAIMEFowJ3Lr8YIMAKMACPACESLABOEaJHj+xgBRoARYAQYgQaMABOEBty5/GqMACPACDACjEC0CDBBiBY5vo8RYAQYAUaAEWjACDBBaMCdy6/GCDACjAAjwAhEiwAThGiR4/sYAUaAEWAEGIEGjAAThAbcufxqjAAjwAgwAoxAtAgwQYgGOS1fbzT3xvweBfR/EiLP9Jcwr+XXkGDtimd7VUwpSbO3aEc6+P415h2clA9grHzHTbKPmVh9e5QCnbKWRlti1a5o25Ps9zUKgrCnWsHEpd5Uurl24NHeKWH1XWm1ghmrHdh0gAat2+eevBQZE7vY0Cq17qq2HFBw6z+BU/m2T5MwtZe9VgV0z8OrndhT7fvMQE/q1ETC7T28dazZ78a9qxzi0i4ZEm7tXrt+/3pW7VPwwCoHpBAnGR2UJeOGrraa2/c4FHyx3YXPil3BQVAkHJYt45ou1pCYL97txqy1atup5KdIGFpoxbHNaxOehbvdeFJ3bV2VH50rY0wHb7t/3eXCs+ud4pb+uRZc0cG3bT/tdOH5DervRzSTcWk7KzKttSeu73e48FKRet1JeRYMbxfsHRV8U+LCKxsD4KQApxZYcFFbi+ekiJAw1Vzw2XYX3trkVA+YCFgknNbCirNbybCFOe++v9WJ97d62qkA57SyYmhLaptvmbfFiY+21dHvftdf2NqKQS3861HwxiYnvij2jnPCcUihBbn2MBvs95yXi1z4dofaJ3WVwlQJw9pYcXBT79h6fr0DP+1S2zKynQ39m8uQAzTj2XUO/FqqHvw1rqMN/5cbmJC7FeCpdQ7QWNWKdxGTcE0nGw5rFvg9Z61xYPEe9b6JnW3ok+19xuYKRYy7NeVqGyZ1taN309r1/LbLjfe2OlFSpVK0G7va0CvLW8/D/zrxz15XHeNHbXW7NAmjO9rQOs37jPtWVWP1/tAnn93Zw44OTbz33bWiGusrgt2nAIqMI3IkXNjGipwAY+D2f6qx6YB6//297GipaxP97Zbl1dhaqf7+4EF2FKQGxvfmZdUo9uDy8MF25KUEvs7hBm5eVoVS77RU05cWBXj0EDuyoxyrocZoff/e4AlCuQt4aYMTH27z9q5dlnBMrozJ3epeOOmjum6JA3scbjjEePMd1BZJQjObhPZNZNzXy7v4aJ1a4QK+Lnbhrc0O7KwO/EHYJAmdM2Sc28oqJiOtFFUomLKiCrs8Az34QJHQM9OCGYd4n79ynxsTl1SJWw7OsuCR3qEJwrIyN25YRiSm7g++b7YF9x3krY8I1PwtTry9pa4JWUKqDJyYZ8XEECSBFu67VnrJlFWScEJzK27sVnvhpUX83lV1n6Gg4TYg3yomR63QYv3Qf+q9p+ZbcZ3uN/rbV8UuPLJa/T1VlvC/QitG+ZEI+o0W6Jlr1OuIyFzdqfY4+G6HCy8XObDfCex1Bsa3iUXCWS2tYlK0RSD+zNvsxJwNjjp6TUITC5BhlXBmSyIKtRd6/dj6eJsTr2ykMe/961E5Vlzcxooumb4T6NwiF17fRBeGXiRoBRrbwRbw+XPWO/CubvykW9Rra5OJ8KbLJ9Y68NG20AShbZqMsR1t6NvMC/j01Q58Uaze29Qm4drONhyTWxuzh/9z4OsSJyRFwpTudhyf59tptBOevc6J33e7UOYAKl2BMJKQbZNwU1cbDte1QXvLu1dW45ddKgG7u2cK/i9HNz+UA4+tqcY/+9TfaR6ijYCe7NDfvxOk1IktlSrRmHZQCg7VEY1bllVjcZkrZA92aUIbAzva6xb6G5ZWYxmRixDl8UNS0DXT2/Zr/q7Cv/vr2vio80WmVcYDB9nQJt133F35VxXWlav3zzksFW39fh+zuApFFerveXYJj/ROQYsAJGHUn1XYfICukzG3rz3gNTcscaCk2o2d1W4E6kJqWb5dwqxDU0RfNrTS4AnCrmoFNBAO6HqXpOKWqTJe6Bt84RTkYKkTO6roA1Blr3QLMCDPCloUfyylyUEdDimyhKNzLJjc3bs40Pf4804Xnl7nwD6xKNDgkdA8RcIp+bL48IkF00RikYCemTKm9bLBalE/JEEQ/nFgl3i+eq+/gkHX0bv0zLBgeh8zCIJKKuoq/gSB8J2/xYV3ttSm10KSl6jVisAq1SLhpDwrru0ceJe9tMyNGaud2FrpO+kc19yCWwW2vh9gnQRByJQSoKgTxYA8i1A+NPkyEoJA96dZJPyvpQUjhULgbUcogvBtiQvPrHeizEEoqD1G46VPUxl2GViwyy10KfpvIglEFIe1Da20aH0UnCCobZSEwUktGVYZF7ehRTo4A3l9oxMvb/QlHCmyjBHtrDjHj1zMLXJ6CEKoUaP+rhIE33d7c5NKLsv9iNNVHW04o2X4OOhb4EsQtL6qvUC3S7NgjCAI3v7UEwSqk0gC7d6P9iMJXoIgY0p3Wy2C8NQ6UkWcPvNOnl0W9Szf68bacmqP+h9aWG7uasdhfiShToKwX8Fjax01BIHa2txOmx5NEVHf6dsdLrxKBEEshNEThK4ZVlzfxWo6QVBoiqjpGln9l5rNGGFvxQl5VqTpOFokBIHeOT9FxiMH11YSQhGEG5Y5sXKvE86ao11ltE+XcHyehPe2urGPpAVPIaXz8T4NjyQ0fIJQpWDYwkrPEivBJZZUNwpSZLzYN0Uszv5lR5WCiUto108DQBHMkgaYONFPprsBktZ/2angpY3Voo5+TS24s6e1ZgHaUkFmjaqaHSPtVu4/yC7kSlpsaEexvtyNW4TpQUKrVPXj1pi2XkHIsko4tYAmzMATOxFXvcQVvYKgEgQyIwRTV2hRo0lTK6XV8CgIKkHo01RdiLVC3/rfe1x4dLX6OxGpO3sGJmYkh9610iEWyxYpKomj3Q3t4E8psNTanVe5gb2qtCPK76VuPL5W3c3Tru/Kjt52pFgAwlErkRIEuo/kTpLbaRHXSl0EgeRlkuBnr1PbRM8f0sKK0wstghzQeKJx8FWJCy9vdKKFXZVVI9k56wkCqRznt/ZdVGmsfrjVVbNDb2KVcEmbwEoCteW1jeqCLZCSiF6Is7FxWTsbLmrjW3e5E6jQEe+icgXztjqxeI9K8Ia1sWGwzqRAzyaSrS/PrXPg3a2qiYRUDpdbrZO+z1EdbDg+gGnJt4ba/6YnCFe0t+GEvMCqCX239EzqC634EwT6e69MMkHZ0DPLO35qCAKAKd1IQfA+Y3e1gplrHPitVMWhe4ZVmDJIgUmRgWq3Aqci4fE1Dvy+24l+2VaMbG9Dxwzfd6mLIGzYrwhTnKYgiO6ChEldiKxYxA6cSiQKAikQPXQ7fX1r6NPJtEnQW9n0CsLUHnahhAYqzey+9+kVhHt7pYhFV1+mrqjG2nKVUJNZb3rvFB+VIFKCQLUPbmHFZe2syNLNXV6CIGFuX1+V4b99Tkxd6QRtgKgQSaHx39RKGx2AlGniDdcuqQL199BCGy5rb601vkON1UT/vUETBOq4CX87sKNaXWT6N7eiRSrw6kaHWNS7Z8iYfkhtX4TtlQpGLFIXyxYpspDv/W1hNGy2HlCE+YJ2IXZZqVk4d1UDj692YcFudWFoky7j4YPsoA9FX2jTRM/aXulGxyay+Bg0eVmvINAO48xCm8dGHXpIRU8QaBF347BsCx7QmRHqeqJQELY68c5mkmUl/F8zC+72M7f8sduNO1ZUC7Xk6Bwr7uxZW4anheyXneQ7USUmOpK1ye/gof9oN6vg+OYW3KJTaAK16cedLpBdlMrJeVbc1K32c7T7oiEIRO5OK1DNCJpdui6CQOrBU+ud2OvZaQwqsApJ23+RPOACyh0KSDwi8kgTULhl3maXx8Sg4KLW6iTlX2gyIz8FMnVRubSNDZcE8JWYv9Ut1IMKp1uYdXJTJJBKU1LlRpZVVRGI3AQrZA9/pchZszCO7mDzIVP+99Guluzo1G+SJGN4G5tQ7D4tdkKGJAgeqTaRlifWOPHRdhqPCiZ1tkdEuAIRBDJzkXlKTzTqIghPrlXVgyq36ix8XRcbTsqTYfVbP/c6gGoXYLcA6Vb4LL70zpESBLqnqc2C27rbavwRQisIDo+JQcHDB6egt84fIxTueoIw85CUoOTCvx49QXiyT0otYkHz9uTl1dhQ4Rbj4qk+vj4MkRIEej7N/08fmoJCnb+ClyAAc/um+pgYqI2ry90gkk+bwsf6qCTFfz9J8x/RwCayJPqwoRkZGjRB2FkFXPpHFdySGyTvPX1YCnY7gDGL1L/RLvWlvik+XrNkPpi60oF/95HWALROlfFc38AOjTR4yl1KLee1TRUKrvyrGg7FLYgFOa7RwhKoENGgTZi//5ueINCO/czC8KXn6AmCSoqiJwjwEARfheCPUjduX6HWHUxBIOfEaf86UOZ0o326jOFtyRwAoSgQaSFlYnxnG9r6OSTpMY0dQfDK1MLU0MKCkbQQS1KdPghkz3/c40Q5KN+KMR2toF20mUWvIAQjCPS8tzY78WKRU5C07hkWXNLWin46mzaNw9c3OYWvhEYiSC2hv71N5iMJuLytTSgcZhEEIhPvbFEX0nNa2nBeayve2eLCe1tUUkgmCfKbCOQkWBeGegVhYmc7TqvlGBn8bi9BkMT4o20stYV2nmRq0PwR6vJBePBfR42T5LWd7BhQoCpGkZbwCQIpPUSpVMmb5guVJMj4tsQtNkTh+CA8clAKDtb5J4Rqb6wIwh+lCp5YSw6E9D7qwq53cgyfIMhQJDJvqipArp18taxCnaJSl4nhskVV2Obx23ist+pDEek4DIVfMvzeYAkCWQfIOYw+eCot7DLmHmEHmQ+GC9KgLuwj2toxVCfd045+5J/VcCluIT+e14omxch2MUQQxvxZLUgILXaz+qQIaTGSojcx0MBM9zBU/zpssoRDsmVcq3OOi54gqIsxOXFmB9l8k9Ojfmfu76SoKggqQaDfaIf94TanMMnQx64ShNqVk3nhzpVEIkg9sGBKdytIwqZ7ycud2nRynkVEjQQrsSII5FxJ0SDPrlfHkiAJhTaMbG+pkyB8ss2FWcLkoRK8Kztpi6uCv/co+K6ktqMWoUS26BP8nN6CvXM4CgLdS/iS8yHt8mlHfEkbX0XqV/G7E+tIbgAwoq1N+EKQ/Zruo3J2S1Vm1cu0+nat3a/WscAjrdetICiYs94pTB9kalHJgEW087VNTqze7xJOavT3Uwoi+3j0CgKZdYIpMkNaqI6Q+rGuVxCu6mDH8n1uoXAQTaD3nuTxR6hLQdAThNu623Fsc+/88fFWN1YHcdCjSJHOGV4CGT5BAG7qasdXxW78Vaa2tU2aGm1EKif1ydagTopeBYEcHYM5yFK0xaHZFh8VRE8Qgt1LbzO1Zwo66pwb9QrC7D4p6OQxTdDYf2adU/hn7fI4BZLpleYTffRE+ARBwsMH20QUmhrVIIEi2Gb0ThGRDXWZGLwEQcYr/ewimkorz61zefzKan+V6iYgkpk+sa9tsASBZKrRi6uxz0nyqITru1pxZI4VJOsvL3Pj5uVVgnO3SydlwbvjJYJwOSkMUMTu/4YuKTg8SBhSsK7dWAGMXlwpPtSO6TKeOiy8kEp9feFGMdDCeUSOFbd3945KowShriEbOIrBpe4yAR9yQcoIyeeanfqQphZc38VWK+xoQ7kidre/lXrDDilskz5p4Yj4b7XwXVLNDMEdS2NFEEj9ITPSx1tdeL7IYzZKk3FBa5twYAoWxeAlCPAQBC+5od+e8RAOf7xp1ywUijBKuARh5V6X8C9Y6AmbI4JAoZtaeWuTC3M3OuBSFJzbSiUHFP2wokx1cvuzzI00i2pmOCuI7L92v7oYLfD0Y10EYd4WNbqnzEEyPHBlBxvOaGUFEXuKaiBiSGV8R3vEZgY9QagLwgta2XBWKyua6YaUniDQokv+OLPXef0JTmyuKnmkyIgohgA+CBpBIOJzazciCF6C89C/DvzsiUzwbRtFIdh8IhUiIQj39UoRxINwI2JOm4o7eqSg3Cnh9Y3VdSgIXoJQF1a3d7fj/3IsPgTCjCiGHPJr8MBD3/s+B4SipHkWkarRs6ns4ysWPkEAnj88FRTmPu3fauzw+BNc1TEFAwtkXP23FsXga2KgZxNBINMvKTOv+hEEIha00QxUyJfB35QcxmecsJc0WIJQWqXgooWqrE3mhRf72WviwMmmesmiKrHoFKbKwsygFSIIl/1ZJaRYWnxpR3xbj+C71kA9u7FCwRV/VYr6zSAI1I4OTWR0C+AERL4U7dIp1t27S4meIGh4STgyxxIwYUmbNNWbXyu+PgiBxzlNooc2teDGbuSHUdtORyaIe1Y5UO1249Cmam6JFh4vq192uYUtlsgWKT7k5Hd5kMUzlgSB2vTjDhdIvi5zUuSJJOzxpBBRuBkV/zDHuggCOQ4+6XFe9EeNnCBpcQ2nhGtioEiTl4ocqCS7GCAUBD1BoOgFIgi0qJF5Z5hHNSPh59UidTGnabvGzBDAUhKJD8LzGyjyhUwebvE8im7QPNXnrHMIZ0dq6eHZqjmkpy52PxQuehMDmabapgdWICjcj3IL6H1C/AnCSfkWzFrtxBclTkGeKAKFdubkEBsszNGrIJDU70sQ7l9VjR+EIlG7TO2RgqN0+RQiJQiU3+DuVdVYvFutn0wNZBJZUuYOK4rhmBwbcoPsZShPB8n8eqduPUE4NpeIVu1BQfMomY70uQhChzmq2EzrlYLe2b7kgP4eKUGgfBe0WVQjORRkWGTMPtQuHMSDhTlqCgJ5HbzcL8VHQbh0YWVNXgn/XnzjiNSAuRtCjdlE/b1BEgSSs69bWgVKNkTLkUWSkWPzyrn0+RDLpkIDnhbeGR47FZNYAAAQLklEQVRnxQqnGtf/8iZ1d0BS3RxSGCLI7kUmBlIQ6Akk59LO+f6DwpvwtYHi44NAC2Mh2WiDe2PrTRjREwTVxEDtnRok0oB2JpqHNLXV38SgEgEbluxR8KDIM6Cgd5Ys8gwQGQtUKNRvqjAvqApEls7ZR0QqeELgaPEi5zmK9ghUYk0QaHf7yXZ1508TH5kayKVADWOtmyD0z5UxsgMl1VIxoEhO8l9RMXSLaIcvPMmmIiMIoZ0U6RmkELwg/AsUkZTpkra2mkmPEiO9XOT0tIfyJlC0gWeHJEGYejQVqHWaLHxqSM3xL+GaGMhnk5JQzd+qqk5kyiMshVs4VA9x7XlkQiN1gRInhVv0CgIpEOQDEKhQ35Gkrl/W/AnCyfkWkb/isTUOr6nBKgmlg8iWpNQOcySCQOZNIlTkA0F1aD4I+5xqFAOVVXsVvLbJITz2qRUUCWCEIFA+B3J8JEfdv4WpQXXOcyhKTQx/7TwIXgXhnp4pOCiIkyLNL/4RX3qCQPV2CxIBQUNeb7/XE4T7e9nQvolF9Pc9Kx2e/AUyHuxlE/4QgaLMIiUIZJ6gNWHSEkqgpGKdY4dQr9RPsHYeBL0Pwkt9U0Ekgwp995QjRFtNPt+uRghp45UJQrhfaT1eR4sWhTbWhK+KKSCwJESDpTBFxkv9VJ2RrlIXeFrc3OIDOzbXghsCeMRvqyRvWwd6ZanJTrRC6wXF9E9Zri56wg/hEDtSAox2MkdM/8+B4e0sPnHQ9RPFELmTYjAfhK2VAO1KvypxiEWfFpQbuvrmECBs9M6J4QwZyolwczebIF7+JdYEgZ5HhOXjbZSFsXaCIH8FgZItkTxNkwftPEnOvjxA9AAl0aIoEFqoqURGELyJkoI5KX60VVUP9rtUr3pKenRJO0vNwvjGRide8vgZhOoDItv0DoHIargEgcYFhVLqc5PU9dxIzQx6BcFIFAOZGGhxp0IkgUxJZPLSl1AEgcjPjV3tOFLnEKrdv6yM/DAc+He/WqdRBUFL+ESqHjn8LvWQBH1760qUVJ9RDDTvTqDIAY9/BhHRu3r6+h5o7xENQaB791QD1y6tFqYD3/UgEEFwYJvIx6II58bH+9gCZvacv9WFV4ocNWSfCUKoGaSefydyvq5Cwfi/yAegrkILDP3HLTr+zp4p6OZxECL/hYf+o3huVUWgXQypDPqMhEQOrqMYWIe6CyEJlNJ6aoUW+DHCD0GNUChIlUG7SJpctfj333e7MXstJVKiXRTQPdOCuz0OfP5RDGe0tOHiMJ0lo1cQIicI/iYGzUmR+mFBqdc8QBiTbd0/Tv93j3NiMPrm34O00FJWxGsCJFuKB0Gg9hApem+L6oGvL/4Eocql4APht+B1bjwl3yIc/WgHQ2WvQxLqAflwaNn2zCIIJZUQpOPzYk0dAMiHhNSDHp6Y/v/2U+4Dr409nM+XUhBfECCaIVwTA6Uz1jJvqmeGqOeH+BZv5AhJwpTOOFxnxfAJgvZML9kMpCBo7VpS5sKLG5yg70srgQgCkYlHV1eDsoJSofwBV3ZQTQ2aYkE5UF7YQHOMuyYRj6ogeNWOSDIpkg/C/7d3NrF2VVUcX/fe91F4LU2RlgdCK2ARU6AwwIFhIJGYAMGGSCCKOkbtxOAXRJ0QB6IGEqwhjNCZSgwwYECIgiFAdVCax1coaf141do+Wq1SbN+975j/3mf37nveOfdeioHVl9+evXvOPWe93zr3nP9Ze621k0DQf/WTN1Q+GitExhUIw6sYYjQ2H/0IQtseuHLq5DU16hpqKnPUG/135hZt77Ela7cK23HVqoHkxvcqEPT9X8/H6bIU9YvHXC4QFCVQjsKhspJi3XTLfrRl2i44Q8HkyOLFI13b8aaa6fWvXgTCKO9/wNv1wL5z1wn7pwqM1V1sum0Pbl2e2Ka3tu27Yx5Cu9WyS2Y69tOyG6F+/vv+U9hXdsc8Ag29/CtTNw2Fpo6EBKuWXXiG2hlPDDQQ0vZXji7ZN+di2F7fVARhdfn712EVptSFqm0Xndm2H14xbWeVgYhqFYMiGdX6+WTL5tXtgSmBXCBI3Ki5R3WoIcp3s/UbYqvlaGvTd3SMK9fGN/g0YgQhJSkO9kHQA0912ArPKiFU86F5PsdC2WTp0TLB8Zp1nVAzXh3ipMzmVEWgaMTdH+t3RUz7v18CQb5TdUbKPUjnr2u1rJcQiYQU3pfAUZZzmmzRtaZEzvQ2feO5E2FdiHHLIfMkRbUozq+RlCSa8g50/SqxUtnyqdpSkQs1aYphb1Xt1DdRenS+F/IC9DCf6bRD05lqj4JxkhSfW4hhdVVLSBx8aeOE3TC7fOpJrXR/Nd8N8+eya/vF0e5xRj7FoDf4hpktO39Vy764adK2ZmH1YQJBkUE9eOM6D/HGUJekqM/VwOt+9UI5rFyKIkyjKEyf7iA6lqZSFssH+F2bp0KfhbwccmgOwttF+F29WrZazgWCzq9pIeUjqElZPoZNMShnoalbsKKgEml52+N8ikG9WpoqeO/dMhX6vKQxrA/C9l2LtidU0sQOk4pqVFspn2oEQefX7/Gru1LSZl8gVhslaV/lLHz75cVSJMT7fx4ElnbQNGHSYD/bOm0XrV5Z5ZArLgdhYbGwO3bqTbgIDr3viqnaJCU5VW88CmtpVJMVtX3+nSKEyZ95Sy2R6xOLFApTp6+1NSkGukG/qgdvOdXQdHML4uDyKVubJfmMW8WgY6pNc8qh0N+5QGg6p/IMxCaNKBBOpdVy7KSYWi3nZY46thIQv/+a5uxj+eR16zv29c0Kb7fDAjZaSyG+ObfCoknfa0gIVdvqe8smSOpK+YWNk3ZdpRTw/RII+r8UHVCfg4fLBZ30WdNaDOqW/djfYwVE81pYMQFT4qBJCNb5cvRaDPExJttuv6ATSvXyfBWVkGr6QUMlvXdsHGxrm875l2OxTPL3C2khoym7vRLRerOsYkjVKHVVDI/8KYpJJfzpgaIyxs/WtFTWA/ThvV17PFQzFLYt5OBM2PoxCoL+X2sx5FMMiYNmAx7Ys1hONURxX+2keHLfrtmP9yzaCyGS0DzF+Y2PTtqnNgxWCOgY7zZJMV9TIomUmI/Qj3h4W4uh2ihJORTfmjtu+8q1FH5w+aRdtXZiQHy8F4EgLlobQx0QU58DfVZtlKTP5LF/nyjsa7uPNyYlKhrcWmrZjqun7SMzg7kWTffe0+nzFSUQ9KapOuq5cu5Nb2pf3tTveld1jEL7vwg3+CKU2ijJJu+WpgvkWFfzj4X98XDPHtyrG6kaqLRtdtrCAk2aGshbD1fPoWefQmf/OlHYL/f37HflKnPKglcnR71R60ZZrS3Xm7nePJU0OWooQ/jWrMWuKjH04Bg29PZ0i3rrl3P5Suh8bP+wG1k8mt4g8hu63lR0A3rpSFzwZdNM227OEsqUkPa6askPRYGlxV5uOi+GNBRmfbJcDVCJRMoYVzi2bmh+WytGxoiP2aVrOvbpDYNvnpq/fOpAPI8am6g9c9OQTU8fjMe7bE0rzjVneQ2vHS3stwdjJr2mj2RbdejBr1yTPxyO/7sSvJra+mraU7585mDPfv7Xnr1TvnaoS9vNsx373IfbNt0ZzKgf5XdtV4j6+QVFqAavE/2l7H01y1FUSutgqEogp/vK0cJ2vtUL0Qvt/4mztYpePTOZu/NwL+SMaKit7jVnd05OlegzhVqV3f/nsk3uJ8/phFU88/H8Qs92laWW2nb1unawrW5IFO4u91W3wWvP6YzVre/ZQ71Qyjxq6A312vWdUAWUhjpsvn50ybRGwPUbOnZZTeKdphCePdgLnf4kET4z27FLs/4F+Xm1r6IzD+3thvLG1Jn6Q5Mtu/PiuG6CokXLGikVhT15oGf73i6CLTfNqoqgz1JTe2qj/I//xu0SgPn/kWzQg/aFhZ6pqats3XZ+ZyAKoFU795cP42G8FIm9/tz2wDz8b+a7pqnWUUPTiuuzxZIUGTpUfu+2CyX6Bv2vrp8LZRnhzGTbtp3X7ldIFGZavyO1QP78xuUrPuqlTtPE4qIKmLpFlMTjib91w71dQxU9Tf09lOC4tFTYXXPKS4ilj6Kppm33fHwqRGh1jpXYSGlFCQS5Wg+k9CPUZTesba32z9cFkoPrGhql4/YXlIkXg2689be25T8Z3WBVZXMiM06Jdmsayt21vwTP6J9ffGDmduu7YepsyDiV7+hw1e/Jvu6Shf4Sddv1mf7ltGq1ngXpZtj0eZ3Z+b7anh8n7X+qx6s7lv6ftBZL3fZ0znH3S/vLL+GBXPKSJtH00btpr5zzyc9f5Sa7JT6bblwqYZTv0pBIHrYgnXjkfta++bF13emYKeSq+fZq2Dk/Rt32/H/I99Xno/ZP361+r+lnEPOLBrPzdZ2mn6iu0wbtEq7ncfZL51bUPEzjZL8TTQkNW7lz2DnkNv2fiXWTreE+otOW563up+uxkqZQi0us9N3c3+N+V/empu9Vt+nkEtP9BPN4b8u/r3t2ui9qjZXqBFW+Xb+rpnv0uPslIJo2yld0DGt5SBiMUkin8fYVJRBOYz9gOgQgAAEIQMAVAQSCK3dgDAQgAAEIQMAHAQSCDz9gBQQgAAEIQMAVAQSCK3dgDAQgAAEIQMAHAQSCDz9gBQQgAAEIQMAVAQSCK3dgDAQgAAEIQMAHAQSCDz9gBQQgAAEIQMAVAQSCK3dgDAQgAAEIQMAHAQSCDz9gBQQgAAEIQMAVAQSCK3dgDAQgAAEIQMAHAQSCDz9gBQQgAAEIQMAVAQSCK3dgDAQgAAEIQMAHAQSCDz9gBQQgAAEIQMAVAQSCK3dgDAQgAAEIQMAHAQSCDz9gBQQgAAEIQMAVAQSCK3dgDAQgAAEIQMAHAQSCDz9gBQQgAAEIQMAVAQSCK3dgDAQgAAEIQMAHAQSCDz9gBQQgAAEIQMAVAQSCK3dgDAQgAAEIQMAHAQSCDz9gBQQgAAEIQMAVAQSCK3dgDAQgAAEIQMAHAQSCDz9gBQQgAAEIQMAVAQSCK3dgDAQgAAEIQMAHAQSCDz9gBQQgAAEIQMAVAQSCK3dgDAQgAAEIQMAHAQSCDz9gBQQgAAEIQMAVAQSCK3dgDAQgAAEIQMAHAQSCDz9gBQQgAAEIQMAVAQSCK3dgDAQgAAEIQMAHAQSCDz9gBQQgAAEIQMAVAQSCK3dgDAQgAAEIQMAHAQSCDz9gBQQgAAEIQMAVAQSCK3dgDAQgAAEIQMAHAQSCDz9gBQQgAAEIQMAVAQSCK3dgDAQgAAEIQMAHAQSCDz9gBQQgAAEIQMAVAQSCK3dgDAQgAAEIQMAHAQSCDz9gBQQgAAEIQMAVAQSCK3dgDAQgAAEIQMAHAQSCDz9gBQQgAAEIQMAVAQSCK3dgDAQgAAEIQMAHAQSCDz9gBQQgAAEIQMAVAQSCK3dgDAQgAAEIQMAHAQSCDz9gBQQgAAEIQMAVAQSCK3dgDAQgAAEIQMAHAQSCDz9gBQQgAAEIQMAVAQSCK3dgDAQgAAEIQMAHAQSCDz9gBQQgAAEIQMAVgf8BHUJAwu3W510AAAAASUVORK5CYII=" parent="-sU8y2Q3AdZbQh8XbGMl-1" vertex="1">
                    <mxGeometry x="-866.5" y="219" width="111" height="111" as="geometry"/>
                </mxCell>
            </root>
        </mxGraphModel>
    </diagram>
</mxfile>